<?xml version="1.0" encoding="utf-8"?>
<!-- Generator: Adobe Illustrator 26.0.3, SVG Export Plug-In . SVG Version: 6.00 Build 0)  -->
<svg version="1.1" id="Layer_1" xmlns="http://www.w3.org/2000/svg" xmlns:xlink="http://www.w3.org/1999/xlink" x="0px" y="0px"
	 viewBox="0 0 1316.67 380.62" style="enable-background:new 0 0 1316.67 380.62;" xml:space="preserve">
<style type="text/css">
	.st0{fill:none;}
	.st1{fill:#5292A4;}
	.st2{font-family:'Montserrat-Black';}
	.st3{font-size:136.1066px;}
	.st4{font-family:'Montserrat-SemiBold';}
	.st5{fill:#C1279D;}
	.st6{fill:#E78224;}
	.st7{fill:#0596A1;}
	.st8{fill:#FFCC00;}
	.st9{fill:#A1D228;}
</style>
<g>
	<g>
		<rect x="233.22" y="186.17" class="st0" width="1023.12" height="133.63"/>
		<text transform="matrix(1 0 0 1 233.2152 287.1572)"><tspan x="0" y="0" class="st1 st2 st3">STEM</tspan><tspan x="399.88" y="0" class="st1 st4 st3">NOVATE</tspan></text>
	</g>
	<g>
		<path class="st0" d="M131.69,177.07v-0.29V177.07z"/>
		<path class="st5" d="M122.26,215.19c-0.01,0.33-0.01,0.59-0.01,0.77C122.25,215.7,122.26,215.44,122.26,215.19z"/>
		<path class="st5" d="M240.18,89.31c0-0.1,0-0.16,0-0.16C240.18,89.2,240.18,89.25,240.18,89.31z"/>
		<g>
			<path class="st6" d="M267.9,72.97c0-10.84-9.11-19.64-20.35-19.64c-11.23,0-20.35,8.8-20.35,19.64v64.71c0,0,0,39.28-40.69,39.28
				c46.19,0,81.29-39.17,81.38-78.39c0-0.1,0-0.16,0-0.16V72.97z"/>
			<path class="st7" d="M104.25,241.73c0,10.84,9.11,19.64,20.35,19.64s20.35-8.8,20.35-19.64v-64.71c0,0,0-39.28,40.69-39.28
				c-46.19,0-81.29,39.17-81.38,78.39c0,0.1,0,0.16,0,0.16V241.73z"/>
			<path class="st5" d="M227.21,137.8c0,0,0,0-41.13,0c-47.15,0-81.73,39.53-81.82,78.39c0.05-2.66,1.48-38.91,40.69-39.23
				c0,0,0,0,41.13,0c47.15,0,81.73-39.53,81.82-78.39C267.85,101.23,266.42,137.48,227.21,137.8z"/>
		</g>
		<g>
			<path class="st7" d="M205.06,130.81c0-10.84-9.11-19.64-20.35-19.64c-11.23,0-20.35,8.8-20.35,19.64v64.71
				c0,0,0,39.28-40.69,39.28c46.19,0,81.29-39.17,81.38-78.39c0-0.1,0-0.16,0-0.16V130.81z"/>
			<path class="st8" d="M41.41,299.57c0,10.84,9.11,19.64,20.35,19.64s20.35-8.8,20.35-19.64v-64.71c0,0,0-39.28,40.69-39.28
				c-46.19,0-81.29,39.17-81.38,78.39c0,0.1,0,0.16,0,0.16V299.57z"/>
			<path class="st9" d="M164.37,195.64c0,0,0,0-41.13,0c-47.15,0-81.73,39.53-81.82,78.39c0.05-2.66,1.48-38.91,40.69-39.23
				c0,0,0,0,41.13,0c47.15,0,81.73-39.53,81.82-78.39C205.01,159.07,203.58,195.32,164.37,195.64z"/>
		</g>
	</g>
</g>
</svg>
