<svg xmlns="http://www.w3.org/2000/svg" viewBox="0 0 1780.39 370.9"><defs><style>.cls-1{isolation:isolate;}.cls-2{font-size:190.31px;font-family:Montserrat-SemiBold, Montserrat;font-weight:600;}.cls-2,.cls-8{fill:#4599a2;}.cls-3{letter-spacing:-0.01em;}.cls-4,.cls-5,.cls-6,.cls-7,.cls-8{font-family:Montserrat-Light, Montserrat;font-weight:300;}.cls-5{letter-spacing:-0.02em;}.cls-6{letter-spacing:-0.04em;}.cls-7{letter-spacing:-0.03em;}.cls-8{font-size:74.4px;}.cls-10,.cls-11,.cls-12,.cls-13,.cls-14,.cls-9{font-size:72.5px;}.cls-10{letter-spacing:0em;}.cls-11{letter-spacing:-0.01em;}.cls-12{letter-spacing:-0.01em;}.cls-13{letter-spacing:0.02em;}.cls-14{letter-spacing:-0.01em;}.cls-15{fill:none;}.cls-16,.cls-19{fill:#c1279d;}.cls-17{fill:#e78224;}.cls-17,.cls-18,.cls-19,.cls-20,.cls-21{mix-blend-mode:multiply;}.cls-18{fill:#0596a1;}.cls-20{fill:#fc0;}.cls-21{fill:#a1d228;}</style></defs><title>Logo+Strap</title><g class="cls-1"><g id="Layer_1" data-name="Layer 1"><text class="cls-2" transform="translate(222.49 161.77)"><tspan class="cls-3">S</tspan><tspan x="117.81" y="0">TEM</tspan><tspan class="cls-4" x="541.63" y="0">N</tspan><tspan class="cls-5" x="696.55" y="0">O</tspan><tspan class="cls-6" x="852.03" y="0">V</tspan><tspan class="cls-7" x="975.93" y="0">A</tspan><tspan class="cls-4" x="1103.44" y="0">TE</tspan></text><text class="cls-8" transform="translate(98.7 262.61)"> <tspan class="cls-9" x="19.12" y="0">Redefini</tspan><tspan class="cls-10" x="323.03" y="0">n</tspan><tspan class="cls-9" x="371.9" y="0">g drug dis</tspan><tspan class="cls-11" x="736.56" y="0">c</tspan><tspan class="cls-12" x="776.15" y="0">ov</tspan><tspan class="cls-9" x="857.2" y="0">e</tspan><tspan class="cls-13" x="900.48" y="0">r</tspan><tspan class="cls-9" x="930.14" y="0">y th</tspan><tspan class="cls-14" x="1064.7" y="0">r</tspan><tspan class="cls-9" x="1092.25" y="0">ough data </tspan></text><path class="cls-15" d="M185.38,543.72v0Z" transform="translate(-106.34 -409.96)"></path><path class="cls-16" d="M177.13,578.3c0,.3,0,.53,0,.69C177.12,578.76,177.13,578.53,177.13,578.3Z" transform="translate(-106.34 -409.96)"></path><path class="cls-16" d="M280.37,464.11v0Z" transform="translate(-106.34 -409.96)"></path><path class="cls-17" d="M304.64,449.29a17.82,17.82,0,1,0-35.63,0V508s0,35.63-35.63,35.63c40.45,0,71.18-35.54,71.26-71.12V449.29Z" transform="translate(-106.34 -409.96)"></path><path class="cls-18" d="M161.36,602.38a17.82,17.82,0,0,0,35.63,0v-58.7s0-35.63,35.63-35.63c-40.44,0-71.18,35.53-71.26,71.11v23.22Z" transform="translate(-106.34 -409.96)"></path><path class="cls-19" d="M269,508.1H233c-41.28,0-71.56,35.86-71.64,71.11,0-2.41,1.3-35.29,35.63-35.58h36c41.28,0,71.56-35.86,71.64-71.11C304.59,474.93,303.34,507.81,269,508.1Z" transform="translate(-106.34 -409.96)"></path><path class="cls-18" d="M249.62,501.75a17.81,17.81,0,0,0-35.62,0v58.7s0,35.63-35.63,35.63c40.44,0,71.17-35.53,71.25-71.11V501.75Z" transform="translate(-106.34 -409.96)"></path><path class="cls-20" d="M106.34,654.84a17.82,17.82,0,0,0,35.63,0v-58.7s0-35.63,35.63-35.63c-40.44,0-71.17,35.54-71.26,71.12v23.21Z" transform="translate(-106.34 -409.96)"></path><path class="cls-21" d="M214,560.56H178c-41.28,0-71.56,35.86-71.64,71.12,0-2.41,1.3-35.3,35.63-35.59h36c41.28,0,71.56-35.86,71.64-71.11C249.58,527.39,248.33,560.28,214,560.56Z" transform="translate(-106.34 -409.96)"></path></g></g></svg>