<?xml version="1.0" encoding="utf-8"?>
<!-- Generator: Adobe Illustrator 26.0.3, SVG Export Plug-In . SVG Version: 6.00 Build 0)  -->
<svg version="1.1" id="Layer_1" xmlns="http://www.w3.org/2000/svg" xmlns:xlink="http://www.w3.org/1999/xlink" x="0px" y="0px"
	 viewBox="0 0 1316.67 380.62" style="enable-background:new 0 0 1316.67 380.62;" xml:space="preserve">
<style type="text/css">
	.st0{fill:#5292A4;}
	.st1{fill:none;}
	.st2{fill:#C1279D;}
	.st3{fill:#E78224;}
	.st4{fill:#0596A1;}
	.st5{fill:#FFCC00;}
	.st6{fill:#A1D228;}
</style>
<g>
	<g>
		<path class="st0" d="M234.98,270.54l10.34-23.41c8.98,5.31,20.96,8.71,31.44,8.71c9.12,0,12.39-1.91,12.39-5.17
			c0-11.98-52.67-2.31-52.67-37.84c0-17.69,14.84-32.12,44.37-32.12c12.79,0,26,2.72,35.93,8.3l-9.66,23.28
			c-9.39-4.76-18.24-7.08-26.54-7.08c-9.39,0-12.39,2.72-12.39,5.99c0,11.43,52.67,1.91,52.67,37.02
			c0,17.42-14.84,32.12-44.37,32.12C260.57,280.33,244.51,276.39,234.98,270.54z"/>
		<path class="st0" d="M349.72,207.79h-27.9v-24.91h87.93v24.91h-27.9v70.37h-32.12V207.79z"/>
		<path class="st0" d="M497.26,253.93v24.23h-79.21v-95.28h77.45v24.23h-45.87v11.16h40.29v23.14h-40.29v12.52H497.26z"/>
		<path class="st0" d="M594.71,278.16l-0.27-43.42l-20.69,34.84H559.6l-20.69-33.35v41.92h-29.26v-95.28h26.4l31.03,50.77
			l30.22-50.77h26.4l0.27,95.28H594.71z"/>
		<path class="st0" d="M729.19,182.88v95.28h-14.56l-52.54-64.52v64.52h-17.56v-95.28h14.56l52.54,64.52v-64.52H729.19z"/>
		<path class="st0" d="M747.97,230.52c0-28.17,21.78-49,51.31-49s51.31,20.69,51.31,49s-21.78,49-51.31,49
			S747.97,258.69,747.97,230.52z M832.76,230.52c0-19.46-14.29-33.48-33.48-33.48s-33.48,14.02-33.48,33.48
			c0,19.46,14.29,33.48,33.48,33.48S832.76,249.98,832.76,230.52z"/>
		<path class="st0" d="M953.49,182.88l-41.51,95.28h-17.42l-41.65-95.28h19.19l31.71,73.5l31.99-73.5H953.49z"/>
		<path class="st0" d="M1022.36,256.11h-47.64l-9.39,22.05h-18.24l42.87-95.28h17.42l43.01,95.28h-18.51L1022.36,256.11z
			 M1016.51,242.22l-17.97-41.65l-17.83,41.65H1016.51z"/>
		<path class="st0" d="M1077.08,197.85h-31.58v-14.97h80.85v14.97h-31.58v80.3h-17.69V197.85z"/>
		<path class="st0" d="M1211.14,263.32v14.84h-71.46v-95.28h69.55v14.84h-51.86v24.77h46v14.56h-46v26.27H1211.14z"/>
	</g>
</g>
<g>
	<path class="st1" d="M131.69,177.07v-0.29V177.07z"/>
	<path class="st2" d="M122.26,215.19c-0.01,0.33-0.01,0.59-0.01,0.77C122.25,215.7,122.26,215.44,122.26,215.19z"/>
	<path class="st2" d="M240.18,89.31c0-0.1,0-0.16,0-0.16C240.18,89.2,240.18,89.25,240.18,89.31z"/>
	<g>
		<path class="st3" d="M267.9,72.97c0-10.84-9.11-19.64-20.35-19.64c-11.23,0-20.35,8.8-20.35,19.64v64.71c0,0,0,39.28-40.69,39.28
			c46.19,0,81.29-39.17,81.38-78.39c0-0.1,0-0.16,0-0.16V72.97z"/>
		<path class="st4" d="M104.25,241.73c0,10.84,9.11,19.64,20.35,19.64s20.35-8.8,20.35-19.64v-64.71c0,0,0-39.28,40.69-39.28
			c-46.19,0-81.29,39.17-81.38,78.39c0,0.1,0,0.16,0,0.16V241.73z"/>
		<path class="st2" d="M227.21,137.8c0,0,0,0-41.13,0c-47.15,0-81.73,39.53-81.82,78.39c0.05-2.66,1.48-38.91,40.69-39.23
			c0,0,0,0,41.13,0c47.15,0,81.73-39.53,81.82-78.39C267.85,101.23,266.42,137.48,227.21,137.8z"/>
	</g>
	<g>
		<path class="st4" d="M205.06,130.81c0-10.84-9.11-19.64-20.35-19.64c-11.23,0-20.35,8.8-20.35,19.64v64.71
			c0,0,0,39.28-40.69,39.28c46.19,0,81.29-39.17,81.38-78.39c0-0.1,0-0.16,0-0.16V130.81z"/>
		<path class="st5" d="M41.41,299.57c0,10.84,9.11,19.64,20.35,19.64s20.35-8.8,20.35-19.64v-64.71c0,0,0-39.28,40.69-39.28
			c-46.19,0-81.29,39.17-81.38,78.39c0,0.1,0,0.16,0,0.16V299.57z"/>
		<path class="st6" d="M164.37,195.64c0,0,0,0-41.13,0c-47.15,0-81.73,39.53-81.82,78.39c0.05-2.66,1.48-38.91,40.69-39.23
			c0,0,0,0,41.13,0c47.15,0,81.73-39.53,81.82-78.39C205.01,159.07,203.58,195.32,164.37,195.64z"/>
	</g>
</g>
</svg>
