<?xml version="1.0" encoding="utf-8"?>
<svg viewBox="191.187 60.414 1569.074 303.603" xmlns="http://www.w3.org/2000/svg">
  <g class="cls-1" transform="matrix(1, 0, 0, 1, 198.298636, 62.852404)" style="isolation: isolate;">
    <g id="Layer_1" data-name="Layer 1">
      <text class="cls-2" transform="translate(222.49 161.77)" style="white-space: pre; fill: rgb(69, 153, 162); font-family: Montserrat-SemiBold, Montserrat; font-size: 190.31px; font-weight: 600; line-height: 304.496px; perspective-origin: 445.896px 0px;"><tspan class="cls-3" style="letter-spacing: -1.9031px;">S</tspan><tspan x="117.81" y="0">TEM</tspan><tspan class="cls-4" x="541.63" y="0" style="font-family: Montserrat-Light, Montserrat; font-weight: 300;">N</tspan><tspan class="cls-5" x="696.55" y="0" style="font-family: Montserrat-Light, Montserrat; font-weight: 300; letter-spacing: -3.8062px;">O</tspan><tspan class="cls-6" x="852.03" y="0" style="font-family: Montserrat-Light, Montserrat; font-weight: 300; letter-spacing: -7.6124px;">V</tspan><tspan class="cls-7" x="975.93" y="0" style="font-family: Montserrat-Light, Montserrat; font-weight: 300; letter-spacing: -5.7093px;">A</tspan><tspan class="cls-4" x="1103.44" y="0" style="font-family: Montserrat-Light, Montserrat; font-weight: 300;">TE</tspan></text>
      <g>
        <g>
          <g>
            <g>
              <text class="cls-8" style="fill: rgb(69, 153, 162); font-family: Montserrat-Light, Montserrat; font-size: 74.4px; font-weight: 300; white-space: pre;"><tspan x="98.7" y="262.61"> </tspan><tspan x="117.82" y="262.61" style="font-size: 72.5px;">Redefini</tspan><tspan x="421.73 470.6" y="262.61 262.61" dx="-50.525 -60.63" dy="-1.684" style="font-size: 72.5px;">ng drug dis</tspan><tspan style="font-size: 72.5px; letter-spacing: -0.72px;" x="835.26 874.85" y="262.61 262.61" dx="-135.723 -142.736" dy="-0.99 0.103">cov</tspan><tspan x="955.9" y="262.61" dx="-150.663" dy="-2.417" style="font-size: 72.5px;">e</tspan><tspan style="font-size: 72.5px; letter-spacing: 1.45px;" x="999.18" y="262.61" dx="-157.751" dy="-0.368">r</tspan><tspan x="1028.84" y="262.61" dx="-155.968 0 1.684" dy="0 0 1.684" style="font-size: 72.5px;">y th</tspan><tspan style="font-size: 72.5px; letter-spacing: -0.72px;" x="1163.4" y="262.61" dx="-173.974">r</tspan><tspan x="1190.95" y="262.61" dx="-171.086" dy="-0.737" style="font-size: 72.5px;">ough data </tspan></text>
            </g>
          </g>
        </g>
      </g>
      <path class="cls-15" d="M185.38,543.72v0Z" transform="translate(-106.34 -409.96)" style="fill: none;"/>
      <path class="cls-16" d="M177.13,578.3c0,.3,0,.53,0,.69C177.12,578.76,177.13,578.53,177.13,578.3Z" transform="translate(-106.34 -409.96)" style="fill: rgb(193, 39, 157);"/>
      <path class="cls-16" d="M280.37,464.11v0Z" transform="translate(-106.34 -409.96)" style="fill: rgb(193, 39, 157);"/>
      <path class="cls-17" d="M304.64,449.29a17.82,17.82,0,1,0-35.63,0V508s0,35.63-35.63,35.63c40.45,0,71.18-35.54,71.26-71.12V449.29Z" transform="translate(-106.34 -409.96)" style="fill: rgb(231, 130, 36); mix-blend-mode: multiply;"/>
      <path class="cls-18" d="M161.36,602.38a17.82,17.82,0,0,0,35.63,0v-58.7s0-35.63,35.63-35.63c-40.44,0-71.18,35.53-71.26,71.11v23.22Z" transform="translate(-106.34 -409.96)" style="fill: rgb(5, 150, 161); mix-blend-mode: multiply;"/>
      <path class="cls-19" d="M269,508.1H233c-41.28,0-71.56,35.86-71.64,71.11,0-2.41,1.3-35.29,35.63-35.58h36c41.28,0,71.56-35.86,71.64-71.11C304.59,474.93,303.34,507.81,269,508.1Z" transform="translate(-106.34 -409.96)" style="fill: rgb(193, 39, 157); mix-blend-mode: multiply;"/>
      <path class="cls-18" d="M249.62,501.75a17.81,17.81,0,0,0-35.62,0v58.7s0,35.63-35.63,35.63c40.44,0,71.17-35.53,71.25-71.11V501.75Z" transform="translate(-106.34 -409.96)" style="fill: rgb(5, 150, 161); mix-blend-mode: multiply;"/>
      <path class="cls-20" d="M106.34,654.84a17.82,17.82,0,0,0,35.63,0v-58.7s0-35.63,35.63-35.63c-40.44,0-71.17,35.54-71.26,71.12v23.21Z" transform="translate(-106.34 -409.96)" style="fill: rgb(255, 204, 0); mix-blend-mode: multiply;"/>
      <path class="cls-21" d="M214,560.56H178c-41.28,0-71.56,35.86-71.64,71.12,0-2.41,1.3-35.3,35.63-35.59h36c41.28,0,71.56-35.86,71.64-71.11C249.58,527.39,248.33,560.28,214,560.56Z" transform="translate(-106.34 -409.96)" style="fill: rgb(161, 210, 40); mix-blend-mode: multiply;"/>
    </g>
  </g>
</svg>