<?xml version="1.0" encoding="utf-8"?>
<!-- Generator: Adobe Illustrator 27.5.0, SVG Export Plug-In . SVG Version: 6.00 Build 0)  -->
<svg version="1.1" id="Layer_1" xmlns="http://www.w3.org/2000/svg" xmlns:xlink="http://www.w3.org/1999/xlink" x="0px" y="0px"
	 viewBox="0 0 329 328" style="enable-background:new 0 0 329 328;" xml:space="preserve">
<style type="text/css">
	.st0{fill:#FF1200;}
</style>
<path class="st0" d="M159.6,17c-2.7,7.8-5.2,14.8-5.6,15.6c-0.4,0.8-3.4-3.6-8.4-12.8c-4.3-7.8-8.1-14.1-8.6-14.1
	c-0.8,0-2,6.1-4.1,20.5c-0.6,4.4-1.5,8.6-1.9,9.4c-0.5,0.9-3.9-2.6-11.1-11.4l-10.4-12.8L109,28.1l-0.5,16.8L96.3,34.3
	c-6.7-5.8-12.4-10.6-12.6-10.6c-0.2,0,1.1,7.3,2.9,16.2c1.8,9,3.1,16.4,2.9,16.6c-0.1,0.2-6.6-3.5-14.4-8.2
	C67.4,43.6,61,40.2,61,40.7c0,0.4,2.5,7.3,5.5,15.1c3.1,7.8,5.4,14.5,5.3,14.9c-0.2,0.3-7-1.9-15.3-5c-8.2-3.2-15.1-5.6-15.3-5.5
	c-0.2,0.1,3.5,6.6,8.2,14.4c4.8,8,8,14.1,7.2,14.1c-0.7,0-8-1.4-16.1-3c-8.2-1.7-15-2.8-15.2-2.7c-0.2,0.2,4.4,5.8,10.2,12.5
	c5.8,6.6,10.5,12.3,10.5,12.6c0,0.3-7.4,0.7-16.4,0.8l-16.3,0.3l12.3,10c6.8,5.5,12.4,10.3,12.4,10.6s-6.9,1.6-15.2,2.9
	c-8.4,1.2-15.6,2.6-16.1,3c-0.4,0.3,5.8,4.2,13.8,8.5c7.9,4.4,14.1,8.2,13.7,8.6c-0.4,0.4-7.2,2.8-15.2,5.4c-8,2.6-14.8,5-15.2,5.4
	s6.5,3.1,15.3,6l16.1,5.3l-2.9,1.7c-1.5,1-8.1,4.6-14.6,8.1s-11.4,6.7-11,7c0.5,0.4,7.7,1.8,16,3c8.4,1.3,15.3,2.6,15.3,2.9
	s-5.6,5.1-12.4,10.6l-12.3,10l16.3,0.3c9,0.1,16.4,0.5,16.4,0.8s-4.7,6-10.5,12.6c-5.8,6.7-10.4,12.3-10.2,12.5
	c0.2,0.1,7.1-1.1,15.3-2.7c8.2-1.7,15.4-2.9,16.1-2.8c0.6,0.2-2.6,6.5-7.2,14.3c-4.6,7.7-8.2,14.1-8.1,14.3c0.2,0.1,7-2.4,15.2-5.7
	c8.2-3.2,15-5.6,15.2-5.2c0.1,0.4-2.3,7.4-5.3,15.5c-3.1,8.2-5.5,15-5.3,15.1c0.2,0.2,6.6-3.4,14.3-8s14.1-8.2,14.3-8.1
	c0.1,0.2-1.3,7.6-3.2,16.4c-1.8,8.9-3.2,16.2-2.9,16.2c0.2,0,5.9-4.8,12.6-10.6l12.2-10.6l0.5,16.8l0.5,16.7l10.4-12.8
	c8.8-10.8,10.6-12.5,11.2-10.9c0.7,1.6,4.9,26.5,4.9,28.7c0,2.8,2.9-1.2,9.5-13.3c4.3-7.8,7.9-13.9,8.1-13.7
	c0.2,0.2,2.8,7.3,5.8,15.7c2.9,8.4,5.5,14.9,5.8,14.4c0.3-0.5,2.7-7.3,5.2-15.1c2.6-7.9,5.1-14.3,5.6-14.3s4.3,6.3,8.6,14
	c4.3,7.7,8,13.8,8.2,13.5c0.3-0.3,1.7-7.7,3.1-16.6l2.6-16.1l10.5,13l10.5,12.9l0.3-16.8l0.2-16.9l12.7,11
	c6.9,6.1,12.8,10.9,13,10.7c0.1-0.2-1.1-7.2-2.8-15.6c-1.7-8.4-2.8-15.5-2.6-15.8c0.3-0.3,6.7,3.2,14.3,7.6c7.5,4.5,13.8,8,13.9,7.9
	c0.2-0.2-2.4-7.3-5.6-15.7c-3.2-8.5-5.7-15.6-5.6-15.8c0.2-0.1,4.3,1.3,9.2,3.1c5,1.9,12.1,4.6,15.8,6l6.9,2.6l-2.8-4.8
	c-1.5-2.6-5.4-9-8.5-14.2c-3.2-5.2-5.4-9.6-4.9-9.8c0.8-0.3,22,3.7,29.9,5.5c1.9,0.5-0.1-2.3-8.7-12.3L283,219.2l16.6-0.5l16.5-0.5
	l-12.8-10.5l-12.7-10.4l16.2-2.6c8.9-1.4,16.3-2.8,16.6-3.1c0.2-0.2-6-4-14-8.4c-7.9-4.4-14-8.2-13.6-8.6s7.3-2.8,15.4-5.5
	s14.4-5.1,14-5.5s-7-2.8-14.7-5.5c-7.7-2.6-14.3-5-14.7-5.3c-0.4-0.4,5.7-4.2,13.6-8.6c8-4.4,14.2-8.2,14-8.4
	c-0.3-0.3-7.7-1.7-16.6-3.1l-16.2-2.6l12.7-10.4l12.8-10.5l-16.5-0.5l-16.6-0.5l11.2-12.9c8.6-10,10.6-12.8,8.7-12.3
	c-8.6,2-30,5.9-30.5,5.5c-0.2-0.3,2.8-5.9,6.9-12.4c4.1-6.6,7.9-12.9,8.5-14.1l1.2-2.2l-6.7,2.5c-11.4,4.3-25.3,9.3-25.3,9.1
	c0-0.1,2.7-7.2,5.9-15.7c3.2-8.5,5.7-15.7,5.5-15.9c-0.1-0.1-6.5,3.5-14.1,8.3c-8,4.9-13.9,8-14.1,7.3c-0.1-0.7,1.1-7.9,2.8-16.1
	c1.6-8.2,2.8-15.1,2.7-15.3c-0.2-0.2-6.1,4.6-13,10.7l-12.7,11l-0.2-16.9L219.5,12L209,24.9l-10.5,13L196,21.8
	c-1.4-8.8-2.8-16.3-3.1-16.6c-0.3-0.2-4,5.8-8.3,13.5s-8.1,14-8.6,14s-3-6.4-5.5-14.3c-2.6-7.8-5-14.5-5.4-14.9
	C164.8,3.1,162.3,9.2,159.6,17z M244.4,97.4c0.3,1,3.2,10.9,6.5,22c3.4,11.1,6.1,20.5,6.1,21c0,0.8-14,7.6-14.6,7
	c-1-1-17.2-43.2-16.8-43.6c0.6-0.7,16.5-7.9,17.6-8C243.6,95.7,244.1,96.5,244.4,97.4z M222,108.1c0,0.2,2.5,15.7,5.5,34.5
	s5.5,35,5.5,36c0,1.3-2,2.4-7.5,4.4l-7.5,2.6l-2.4-4.2c-1.4-2.3-5.7-9.8-9.6-16.7c-3.9-6.9-6.8-11.4-6.5-10c1,4.8,5.5,32.8,5.5,34.1
	c0,0.8-2.9,2.4-6.7,3.8c-3.8,1.3-7.3,2.6-7.9,2.8c-1.1,0.4-37.1-63.3-36.3-64.1c0.2-0.3,3.9-2,8.1-3.9c5.6-2.6,7.9-3.2,8.6-2.4
	c0.5,0.7,4.2,7.2,8.2,14.5s7.4,13.1,7.6,12.9s-0.7-7.2-2.1-15.7c-1.4-8.4-2.4-15.4-2.3-15.5c1.2-0.9,10.2-3.4,10.8-3
	c0.5,0.3,4.4,6.8,8.7,14.5c4.3,7.7,7.9,13.6,8,13.2c0.2-0.4-1-8.2-2.5-17.4l-2.9-16.7l7.6-1.9C219.7,107.8,222,107.4,222,108.1z
	 M154.4,141.2c2.6,4.7,4.4,8.9,4.2,9.4c-0.3,0.4-3.8,1.8-7.9,3l-7.5,2.4l1,2.8c1.2,3.4,1.2,3.4,6.9,1.4c2.3-0.9,4.6-1.2,5-0.8
	c0.3,0.5,1.8,4.3,3.2,8.6l2.6,7.8l-2.5,0.9c-1.4,0.6-3.6,1.3-4.9,1.6c-2.7,0.7-3,1.9-1.5,5.8l0.9,2.5l6.8-2.6
	c11.6-4.4,10.7-4.9,12.2,6.2c0.8,5.5,1,10,0.5,10.4c-1.7,1.5-30.3,11-30.8,10.2c-0.8-1.2-23.6-67.4-23.3-67.6
	c0.5-0.3,29.2-10.4,29.9-10.4C149.5,132.7,151.9,136.5,154.4,141.2z M123.4,178.5c6.4,18.6,11.6,34.3,11.6,34.9
	c0,0.9-13.1,6.3-15.5,6.3c-0.6,0-6.9-5.8-14-13c-7.1-7.1-13-12.8-13.2-12.7c-0.1,0.2,2.2,7.2,5.2,15.6s5.3,15.6,5.1,16
	c-1,1.6-14.7,7.4-15.4,6.5c-0.9-1-24.2-66.9-24.2-68.4c0-0.4,3.7-2.1,8.1-3.5l8.1-2.7l13.5,13.3c9.1,9,13.3,12.6,12.8,10.9
	c-0.5-1.4-2.9-8.6-5.6-16l-4.7-13.5l7.1-3.7c4-2,7.7-3.7,8.3-3.8C111.2,144.7,116.9,159.9,123.4,178.5z M263.7,154.3l2.2,1.4
	l-2.6,7.7c-1.4,4.3-2.8,8.1-3.2,8.5c-0.5,0.6-12.1-5.8-14.2-7.9c-0.6-0.6,0.1-3.7,1.6-7.9c1.4-3.8,2.8-7.5,3-8.2
	C250.9,146.8,252.7,147.6,263.7,154.3z"/>
</svg>
