<?xml version="1.0" encoding="utf-8"?>
<svg id="master-artboard" viewBox="0 0 100 100" version="1.1" xmlns="http://www.w3.org/2000/svg" x="0px" y="0px" style="enable-background:new 0 0 1400 980;" width="100px" height="100px"><rect id="ee-background" x="0" y="0" width="100" height="100" style="fill: white; fill-opacity: 0; pointer-events: none;"/><g transform="matrix(0.49999992370605467, 0, 0, 0.49999992370605467, 0.000012460654033930041, 0.000003976403604610823)"><rect id="rect-1" x="0" y="0" width="200" height="200" style="fill: white; fill-opacity: 0; pointer-events: none;"/><g transform="matrix(0.8540434067863681, 0, 0, 0.8540434067863681, -353.71017896360974, -361.1877540681158)"><path class="st0" d="M433.24,569.85c0.09-1.53,0.09-3.06,0-4.59c0-1.53,0-3.05,0-4.58c0.09-1.53,0.09-3.06,0-4.59&#10;&#9;c0-1.53,0-3.05,0-4.58c0.09-1.53,0.09-3.06,0-4.59c0-1.53,0-3.05,0-4.58c0.09-1.53,0.09-3.06,0-4.59c0-1.53,0-3.05,0-4.58&#10;&#9;c0.09-1.53,0.09-3.06,0-4.59c0-1.53,0-3.05,0-4.58c0.02-0.64,0.11-1.28,0.04-1.91c-0.16-1.5,0.28-2.89,0.71-4.28&#10;&#9;c0.42-1.06,1.34-1.76,1.89-2.73c0.56-0.19,0.92-0.58,1.19-1.08l0.01-0.01c0.91-0.44,1.69-1.04,2.24-1.9l0,0&#10;&#9;c0.31,0.01,0.49-0.12,0.49-0.44l-0.01,0.01c0.55-0.21,1.05-0.47,1.2-1.11l-0.08-0.05c0,0,0.08,0.05,0.08,0.05&#10;&#9;c0.49,0.01,0.72-0.34,0.95-0.7c0.07,0.01,0.11-0.02,0.12-0.1c0.28,0,0.43-0.14,0.46-0.42c0.14,0,0.23-0.06,0.24-0.21&#10;&#9;c0.28-0.02,0.45-0.17,0.48-0.46c0.2-0.01,0.33-0.13,0.47-0.27c2.11-1.87,4.24-3.72,6.36-5.58c0.18-0.06,0.34-0.15,0.32-0.38&#10;&#9;c0.12-0.13,0.24-0.27,0.36-0.4c0.28,0.1,0.36-0.08,0.41-0.3l0.04-0.04c0.38-0.04,0.59-0.28,0.71-0.63l0,0&#10;&#9;c0.29,0,0.46-0.15,0.49-0.44c0.08,0.01,0.14-0.02,0.19-0.09c0.51-0.27,0.98-0.6,1.28-1.11l0.06,0.01l0.01-0.06&#10;&#9;c0.33-0.09,0.59-0.26,0.67-0.62l0.02-0.04c0.23-0.05,0.42-0.14,0.45-0.41l0.02-0.01c2.7-2.01,5.16-4.29,7.59-6.62&#10;&#9;c0.07-0.07,0.15-0.14,0.22-0.21c0.45-0.04,0.73-0.32,0.92-0.7c0.23-0.06,0.42-0.16,0.47-0.43c1.52-0.9,2.77-2.12,4.13-3.23&#10;&#9;c0.26-0.16,0.53-0.3,0.77-0.48c2.6-2.07,5.41-3.82,8.38-5.31c1.11-0.56,2.4-0.63,3.46-1.31c1.08,0.03,2.1-0.36,3.16-0.4&#10;&#9;c3.77-0.15,7.31,0.74,10.58,2.61c0.82,0.47,1.22,0.36,1.72-0.44c1.49-2.37,3.25-4.5,5.5-6.22c1.2-0.92,2.6-1.49,3.78-2.43&#10;&#9;c1.37-0.4,2.75-0.8,4.12-1.2c4.67-0.66,9.37-0.35,14.06-0.37c13.86-0.04,27.73-0.11,41.59,0.02c14,0.13,28.01-0.58,41.99,0.43&#10;&#9;l-0.02-0.01c0.08,0.27,0.23,0.4,0.52,0.3c0.23,0.04,0.45,0.08,0.68,0.12c0.1,0.19,0.25,0.26,0.46,0.19&#10;&#9;c0.68,0.47,1.53,0.53,2.26,0.86c2.32,1.34,4.62,2.71,6.48,4.68c2.08,2.2,3.81,4.63,4.84,7.51c0.07,0.2,0.25,0.36,0.39,0.54&#10;&#9;c-0.03,0.07-0.02,0.14,0.03,0.2c0,0.38-0.12,0.8,0.39,0.97c0,0,0,0,0,0c1.5,9.57,0.53,19.2,0.7,28.79&#10;&#9;c0.18,9.62,0.12,19.25,0.01,28.88c-0.08,7.51-3.31,13.55-9.37,17.94c-2.86,2.07-6.14,3.37-9.75,3.75&#10;&#9;c-6.29,0.65-12.59,0.18-18.88,0.29c-1.02,0.02-1.5,0.15-1.65,1.33c-0.25,1.94-1.44,3.56-2.32,5.27c-1.62,3.12-3.28,6.22-4.91,9.33&#10;&#9;c-0.1,0.19-0.08,0.44-0.12,0.67c-0.58,0.57-0.87,1.3-1.13,2.05c-0.42,0.27-0.56,0.7-0.65,1.17c-0.03,0.12-0.05,0.23-0.08,0.35&#10;&#9;c-0.74,0.82-1.24,1.78-1.61,2.82l0.01-0.02c-0.59,0.4-0.99,0.95-1.16,1.65c-0.06,0.06-0.12,0.13-0.18,0.19&#10;&#9;c-1.45,1.55-2.9,3.09-4.35,4.64c-0.95,0.74-1.9,1.48-2.85,2.22c-1.42,0.7-2.85,1.39-4.27,2.09c-0.26,0.04-0.52,0.09-0.78,0.13&#10;&#9;c-4.1,0.63-8.01,0.26-11.47-2.3c-0.5-0.37-0.94-1.14-1.44-1.16c-0.68-0.02-0.91,0.91-1.27,1.45c-0.93,1.37-2.22,2.43-3.12,3.81&#10;&#9;c-1.55,1.2-3.1,2.4-4.65,3.6c-0.11-0.04-0.18-0.03-0.2,0.1c-1.06,0.51-2.12,1.01-3.18,1.52c-1.31-0.07-2.48,0.59-3.79,0.64&#10;&#9;c-1.84,0.06-3.6-0.36-5.38-0.64c-0.12-0.02-0.23-0.04-0.35-0.06c-0.58-0.76-1.55-0.87-2.29-1.37c-2.42-1.65-3.96-3.93-4.94-6.62&#10;&#9;c-0.22-0.62-0.48-0.82-1.08-0.54c-2.2,1.04-4.58,1.31-6.93,1.72c-0.15,0-0.31,0-0.46,0c-0.38-0.11-0.76-0.1-1.14,0&#10;&#9;c-0.37,0-0.75-0.01-1.12-0.01c-1.11-0.57-2.38-0.35-3.53-0.81c-3.08-1.24-5.15-3.37-6.01-6.59c-0.18-0.67-0.39-0.78-1-0.6&#10;&#9;c-2.08,0.61-4.14,1.3-6.25,1.74c-4.67,0.98-9.41,1.38-14.19,1.5c-11.49,0.29-22.98,0.06-34.47,0.14c-2.38,0.02-4.58-0.54-6.44-2.17&#10;&#9;c-0.64-0.56-0.86-1.4-1.51-1.92c0,0,0,0,0,0c-0.25-0.91-0.51-1.82-0.76-2.73c-0.02-0.46-0.03-0.93-0.05-1.39&#10;&#9;c0.09-1.53,0.09-3.06,0-4.59c0-1.53,0-3.05,0-4.58c0.09-1.53,0.09-3.06,0-4.59C433.24,572.91,433.24,571.38,433.24,569.85z&#10;&#9; M524.14,574.65c0.28-0.14,0.43-0.35,0.4-0.68c0.02-0.08,0.04-0.16,0.06-0.24c0.54-0.59,0.87-1.29,1.08-2.05&#10;&#9;c0.03-0.14,0.05-0.29,0.08-0.43c0.59-0.39,0.62-1.06,1-1.81c-0.94,0.57-1.57,1.12-2.08,1.82l-0.05,0.04&#10;&#9;c-0.23,0.04-0.4,0.14-0.39,0.4c-0.09,0.01-0.13,0.05-0.12,0.14c-1.11,0.81-2.18,1.66-2.94,2.83c-0.47,0.31-0.88,0.66-1.15,1.17&#10;&#9;c-1.31,0.97-2.33,2.23-3.4,3.43c-0.46,0.33-0.87,0.7-1.18,1.19c-1.22,1.05-2.35,2.2-3.43,3.39c-0.49,0.27-0.9,0.62-1.18,1.11&#10;&#9;c-0.97,0.46-1.63,1.36-2.53,1.87c-1.32,0.76-1.62,1.86-1.55,3.25c0.07,1.31,0.29,1.66,1.61,1.63c4.72-0.11,8.55-1.68,10.65-6.3&#10;&#9;c1.04-2.3,2.26-4.53,3.24-6.87l0.02-0.06c0.56-0.65,0.9-1.41,1.12-2.23c0.03-0.13,0.06-0.27,0.08-0.4c0.53-0.23,0.55-0.74,0.65-1.21&#10;&#9;L524.14,574.65z M549.81,568.93c0.09-0.22,0.18-0.43,0.27-0.65c0.23-0.29,0.58-0.53,0.51-0.97c-0.04-0.32-0.32-0.28-0.54-0.28&#10;&#9;c-3.47,0-6.94,0-10.41,0c-0.28,0-0.51,0.05-0.55,0.42c-0.37,3.22-2.31,5.81-3.53,8.69c-0.57,1.35-1.42,2.57-1.78,4.02l0,0&#10;&#9;c-0.79,1.04-1.32,2.22-1.73,3.45c-0.03,0.07-0.07,0.14-0.1,0.21c-0.36,0.11-0.42,0.38-0.4,0.7c-0.39,0.91-1.08,1.67-1.22,2.69&#10;&#9;c-0.57,0.29-0.55,0.95-0.85,1.41c-1.29,1.96-1.72,4.12-1.42,6.44c0.1,0.8,0.33,1.52,0.92,2.1l0.08,0.05&#10;&#9;c0.09,0.33,0.3,0.42,0.62,0.33c0.45,0.12,0.91,0.13,1.37,0.02c0.41,0.08,0.76,0,0.97-0.4l0.1,0.01l0.07-0.08&#10;&#9;c0.45-0.01,0.77-0.23,1-0.61l0.09,0.01l0.06-0.06c1.62-0.97,2.87-2.32,3.91-3.87c0.54-0.38,0.83-0.96,1.13-1.52&#10;&#9;c1.65-3.08,3.32-6.15,4.93-9.25c1.3-2.5,2.54-5.04,3.81-7.56C548.12,572.52,549.16,570.82,549.81,568.93z M478.27,498.3&#10;&#9;c0,0,0.01-0.01,0.01-0.01c-1.65,0.96-3.11,2.16-4.48,3.48c-0.16-0.01-0.28,0.03-0.33,0.2c-0.67,0.55-1.36,1.07-2.01,1.64&#10;&#9;c-2.73,2.4-5.44,4.82-8.17,7.21c-4.86,4.24-9.72,8.48-14.6,12.7c-0.56,0.49-0.82,0.98-0.82,1.75c0.02,18.4,0.03,36.81-0.01,55.21&#10;&#9;c0,1,0.37,1.23,1.25,1.23c8.59-0.04,17.17,0.06,25.76-0.07c4.4-0.07,8.77-0.26,13.06-1.26c2.21-0.52,4.46-0.99,6.41-2.26&#10;&#9;c2.66-0.98,4.9-2.59,6.89-4.58c2.15-1.51,3.85-3.51,5.64-5.39c1.19-1.25,2.6-2.3,3.52-3.8c0.07-0.02,0.17-0.02,0.22-0.06&#10;&#9;c5.61-5.39,11.48-10.51,17.27-15.7c2.81-2.52,5.56-5.11,7.72-8.23c0.66-0.95,1.46-1.84,1.61-3.06c0.86-1.37,0.86-2.4-0.01-3.44&#10;&#9;c-0.47-1.36-1.7-1.45-2.78-1.42c-1.98,0.04-3.92,0.53-5.78,1.16c-1.08,0.36-2.24,0.64-3.17,1.39c-0.07-0.04-0.13-0.03-0.19,0.04&#10;&#9;c-0.28-0.03-0.5,0.09-0.75,0.2c-4.29,1.97-8.44,4.21-12.61,6.43c-1.53,0.81-3.13,1.48-4.53,2.52c-0.66-0.02-1.13,0.43-1.62,0.73&#10;&#9;c-1.52,0.92-3.27,1.46-4.63,2.65c-3.3,1.41-6.43,3.14-9.49,4.99c-0.71,0.28-1.42,0.56-2.13,0.84c-0.33-0.02-0.64,0.02-0.89,0.27&#10;&#9;c-0.39-0.05-0.78-0.07-1.17,0.07c-1.66-0.12-3.18-0.62-4.57-1.55c-0.19-0.67-0.91-0.82-1.29-1.35c-1.28-1.74-1.57-3.67-1.37-5.74&#10;&#9;c0.02-0.16,0.03-0.31,0.05-0.47c0.24-0.61,0.49-1.21,0.73-1.82c0.05-0.05,0.06-0.11,0.05-0.18c1.19-1.6,2.79-2.66,4.53-3.58&#10;&#9;c1.32-0.7,2.72-1.29,3.93-2.2l0,0c0.71-0.25,1.44-0.45,1.92-1.11l0.08,0.02l0.06-0.05c0.83-0.24,0.48-0.93,0.48-1.42&#10;&#9;c-0.01-8.76-0.04-17.52-0.07-26.27c-0.01-3.57,0-7.14,0-10.71c0-0.78,0-1.34-1.13-1.47c-1.33-0.15-2.65-0.57-3.9-1.19&#10;&#9;c-1.1-0.54-2.34-0.65-3.43,0.24c-0.32-0.07-0.51,0.12-0.67,0.35c-0.25,0.02-0.44,0.14-0.56,0.37c-0.19,0.1-0.38,0.2-0.57,0.31&#10;&#9;C480.44,496.47,479.24,497.22,478.27,498.3z M609.41,546.69c0.01-0.3,0.03-0.6,0.04-0.91c0.3-0.35,0.29-0.77,0.29-1.19&#10;&#9;c0-9.28-0.01-18.56,0.01-27.85c0-0.85-0.23-1.22-1.17-1.21c-9.47,0.03-20.3,4.91-28.42,0.02c-12.85-7.74-25.52-16.75-41.94,0.01&#10;&#9;c-10.12,0-20.24,0-30.37-0.02c-0.72,0-1.14,0.09-1.13,0.97c0.04,3.4,0.02,6.8,0.01,10.2c0,0.79,0.19,1.05,0.99,0.61&#10;&#9;c1.99-1.09,4.02-2.1,6.01-3.17c3.49-1.88,7.21-3.25,10.87-4.74c0.25,0.03,0.48,0,0.68-0.17c0.81-0.18,1.69-0.15,2.38-0.72&#10;&#9;c0.13-0.01,0.26-0.02,0.39-0.04c2.52-0.32,5.02-0.76,7.57-0.74c0.31,0.01,0.61,0.02,0.92,0.03c2.09,0.52,4.22,0.84,6.2,1.81&#10;&#9;c1.68,0.82,3.05,2.06,4.56,3.1c0.1,0.13,0.19,0.25,0.29,0.38c0,0.28,0.12,0.45,0.42,0.43c0.09,0.09,0.17,0.17,0.26,0.26&#10;&#9;c0.06,0.13,0.11,0.27,0.19,0.38c4.79,6.12,5.25,12.71,2.11,19.69c-1.21,2.68-2.9,5.05-4.69,7.36c-0.22,0.28-0.75,0.5-0.58,0.9&#10;&#9;c0.2,0.47,0.75,0.21,1.14,0.22c5.04,0.02,10.08,0.01,15.12,0.01c4.62,0,9.24-0.01,13.86-0.02c4.66,0,9.31,0,13.97,0&#10;&#9;c4.24,0,8.48,0.05,12.71-0.01c1.7-0.02,3.4-0.24,4.64-1.65C608.29,549.77,608.98,548.32,609.41,546.69z M559.01,575.13&#10;&#9;c-0.03,0.1-0.06,0.2-0.08,0.3c-0.42,0.24-0.55,0.63-0.59,1.08c-0.02,0.11-0.05,0.22-0.08,0.33c-0.47,0.1-0.41,0.47-0.41,0.81&#10;&#9;c-0.07,0.03-0.08,0.08-0.04,0.15c-0.96,1.09-1.29,2.53-2.07,3.72c-1.23,1.89-1.51,3.98-1.28,6.2c0.27,2.51,1.97,3.45,4.17,2.2&#10;&#9;c0.81-0.46,1.61-0.99,2.29-1.61c1.5-1.36,2.97-2.77,3.84-4.66c0.87-0.79,1.11-1.95,1.69-2.91c1.41-2.33,2.41-4.88,3.82-7.21&#10;&#9;c0.51-0.85,1.07-1.74,1.3-2.75c0.06-0.05,0.08-0.11,0.05-0.19c0.61-0.6,0.82-1.42,1.21-2.14c0.73-1.36,0.72-1.37-0.85-1.37&#10;&#9;c-2.86,0-5.72,0.03-8.58-0.02c-0.92-0.02-1.5,0.08-1.51,1.21c-0.01,0.61-0.35,1.22-0.55,1.83c-0.03,0.14-0.05,0.28-0.08,0.42&#10;&#9;C560.34,571.96,559.58,573.49,559.01,575.13z M609.38,491.67c0.04-0.33-0.11-0.57-0.36-0.77c-0.21-0.91-0.68-1.64-1.41-2.22&#10;&#9;c-1.4-1.86-3.38-2.47-5.59-2.48c-12.19-0.02-24.38-0.01-36.57-0.01c-10.66,0-21.32-0.01-31.98-0.01c-6.42,0-12.84-0.03-19.26,0.01&#10;&#9;c-2.02,0.01-3.86,0.61-5.23,2.23c-0.8,0.59-1.4,1.32-1.56,2.34c-0.57,0.43-0.42,1.11-0.56,1.68c-0.21,0.83-0.01,1.23,1,1.23&#10;&#9;c14.7-0.03,29.4-0.02,44.1-0.02c13.98,0,27.95,0,41.93,0c4.93,0,9.85-0.01,14.78-0.01c0.75,0,1.23-0.17,0.76-1.04&#10;&#9;C609.42,492.3,609.4,491.98,609.38,491.67z" style="fill: rgb(50, 192, 204);"/></g></g></svg>