<?xml version="1.0" encoding="utf-8"?>
<svg id="master-artboard" viewBox="0 0 100 100" version="1.1" xmlns="http://www.w3.org/2000/svg" x="0px" y="0px" style="enable-background:new 0 0 1400 980;" width="100px" height="100px"><rect id="ee-background" x="0" y="0" width="100" height="100" style="fill: white; fill-opacity: 0; pointer-events: none;"/><g transform="matrix(0.4999999403953552, 0, 0, 0.4999999403953552, 1.7419560364057247, 0.000003976404514105525)"><rect id="rect-1" x="0" y="0" width="200" height="200" style="fill: white; fill-opacity: 0; pointer-events: none;"/><g transform="matrix(1.0956541299819946, 0, 0, 1.0956541299819946, -497.0534362792969, -541.5534461495989)"><path class="st0" d="M531.81,626c-4.43-6.52-8.88-13.02-13.12-19.66c-7.32-11.46-13.95-23.28-19.04-35.92&#10;&#9;c-2.17-5.4-3.73-10.96-3.86-16.82c-0.21-8.94,2.42-17.09,7.46-24.4c7.3-10.57,17.3-17.18,30.03-19.16&#10;&#9;c15.44-2.4,34.23,3.35,44.57,20.89c3.28,5.55,5.64,11.42,6.36,17.86c0.64,5.73-0.17,11.28-2.1,16.7&#10;&#9;c-4.22,11.82-9.94,22.9-16.31,33.67c-5.27,8.9-10.96,17.54-16.81,26.07c-0.17,0.25-0.32,0.53-0.47,0.79c-1.76,2.5-3.53,5-5.29,7.51&#10;&#9;c-0.91,1.28-1.83,2.55-2.71,3.84c-0.31,0.45-0.5,0.52-0.83,0.03c-0.88-1.3-1.79-2.57-2.69-3.85&#10;&#9;C535.18,631.09,533.48,628.56,531.81,626z" style="fill: rgb(50, 192, 204);"/><path class="st1" d="M540.01,579.68c14.28,0.03,25.92-11.48,25.96-25.65c0.04-14.38-11.48-26.03-25.75-26.08&#10;&#9;c-14.25-0.04-25.95,11.5-25.99,25.64C514.18,568.06,525.64,579.65,540.01,579.68z" style="fill: rgb(232, 92, 91);"/><path class="st0" d="M543.21,633.52c1.76-2.5,3.53-5,5.29-7.51c7.29,0.41,14.54,1.11,21.69,2.65c3.79,0.82,7.5,1.88,11.04,3.49&#10;&#9;c1.58,0.72,3.02,1.64,4.22,2.91c1.64,1.74,1.69,3.59,0.16,5.45c-0.82,0.99-1.86,1.68-2.97,2.31c-4,2.29-8.38,3.48-12.85,4.38&#10;&#9;c-11.83,2.39-23.78,3.14-35.82,2.65c-7.32-0.3-14.62-0.89-21.83-2.28c-4.59-0.88-9.12-2.02-13.36-4.06&#10;&#9;c-1.36-0.65-2.65-1.43-3.75-2.48c-2.18-2.08-2.12-4.45,0.16-6.43c2.16-1.87,4.72-2.97,7.38-3.87c6.23-2.12,12.67-3.24,19.19-3.95&#10;&#9;c3.34-0.36,6.68-0.63,10.03-0.8c1.67,2.56,3.37,5.09,5.18,7.55c-1.9,0.18-3.81,0.26-5.69,0.56c-2.19,0.36-4.33,0.89-6.33,1.88&#10;&#9;c-0.78,0.39-1.53,0.9-1.55,1.9c-0.01,0.97,0.73,1.43,1.46,1.85c1.29,0.73,2.69,1.19,4.14,1.49c6.86,1.4,13.75,1.47,20.64,0.32&#10;&#9;c2.09-0.35,4.15-0.89,6-1.99c1.29-0.77,1.39-1.82,0.32-2.86c-0.86-0.83-1.92-1.32-3.05-1.65&#10;&#9;C549.76,634.11,546.51,633.68,543.21,633.52z" style="fill: rgb(50, 192, 204);"/><path class="st2" d="M540.01,579.68c-14.37-0.03-25.83-11.62-25.79-26.09c0.04-14.14,11.75-25.69,25.99-25.64&#10;&#9;c14.28,0.04,25.79,11.7,25.75,26.08C565.93,568.2,554.29,579.71,540.01,579.68z" style="fill: rgb(255, 255, 255);"/></g></g></svg>