<?xml version="1.0" encoding="utf-8"?>
<svg id="master-artboard" viewBox="0 0 100 100" version="1.1" xmlns="http://www.w3.org/2000/svg" x="0px" y="0px" style="enable-background:new 0 0 1400 980;" width="100px" height="100px"><rect id="ee-background" x="0" y="0" width="100" height="100" style="fill: white; fill-opacity: 0; pointer-events: none;"/><g transform="matrix(0.49999992370605467, 0, 0, 0.49999992370605467, 0.000012460654033930041, 0.000003976403604610823)"><rect id="rect-1" x="0" y="0" width="200" height="200" style="fill: white; fill-opacity: 0; pointer-events: none;"/><g transform="matrix(1.0130860805511475, 0, 0, 1.0130860805511475, -415.2893533064823, -456.0316709681165)"><path class="st0" d="M505.92,606.91c-24.31,0-48.63,0-72.94,0c-3.18,0-3.94-0.77-3.94-4.02c0-33.54,0-67.09,0-100.63&#10;&#9;c0-3.12,0.9-4,4.06-4c32.61,0,65.22-0.01,97.84,0.03c1.29,0,2.06-0.43,2.9-1.38c8.8-10,19.84-13.66,32.58-9.95&#10;&#9;c12.57,3.66,20.01,12.53,22.1,25.54c1.25,7.76-0.57,14.96-4.86,21.52c-0.49,0.75-0.74,1.44-0.74,2.38&#10;&#9;c0.04,22.46,0.03,44.92,0.03,67.38c0,2.24-0.99,3.14-3.38,3.14C555.01,606.91,530.46,606.91,505.92,606.91z M572.89,601.26&#10;&#9;c-15.08-15.08-30.19-30.19-45.34-45.35c-0.23,0.22-0.66,0.6-1.07,1c-5.97,5.76-11.93,11.53-17.9,17.28&#10;&#9;c-2.03,1.96-3.12,1.96-5.16-0.01c-6.01-5.8-12.04-11.58-17.98-17.45c-1.03-1.02-1.49-0.79-2.37,0.09&#10;&#9;c-14.37,14.42-28.78,28.82-43.18,43.21c-0.35,0.35-0.8,0.58-1.21,0.87c0.1,0.12,0.2,0.24,0.3,0.35&#10;&#9;C483.67,601.26,528.35,601.26,572.89,601.26z M438.86,503.86c0.26,0.33,0.34,0.47,0.46,0.58c21.81,21.1,43.63,42.18,65.41,63.31&#10;&#9;c0.98,0.95,1.46,1.11,2.53,0.06c9.25-9.05,18.55-18.04,27.9-26.98c1.11-1.06,1.09-1.55,0.06-2.64c-7.15-7.66-9.84-16.7-8.12-27.06&#10;&#9;c0.41-2.49,1.35-4.83,2.19-7.26C499.11,503.86,469.12,503.86,438.86,503.86z M434.65,597.25c0.29-0.2,0.39-0.26,0.46-0.33&#10;&#9;c14.77-14.76,29.52-29.53,44.32-44.26c0.88-0.87,0.49-1.21-0.16-1.84c-12.23-11.8-24.43-23.61-36.65-35.42&#10;&#9;c-2.6-2.51-5.2-5.02-7.98-7.71C434.65,537.69,434.65,567.36,434.65,597.25z M557.75,542.31c14.1-0.01,25.53-11.45,25.53-25.54&#10;&#9;c0-14.19-11.42-25.54-25.69-25.53c-14.06,0.01-25.51,11.52-25.47,25.6C532.16,530.9,543.65,542.32,557.75,542.31z M577.31,541.16&#10;&#9;c-11.52,8-23.28,9.13-35.53,2.32c-0.81-0.45-1.18-0.25-1.75,0.3c-2.35,2.32-4.69,4.67-7.16,6.86c-1.09,0.97-0.86,1.45,0.03,2.35&#10;&#9;c14.46,14.41,28.88,28.85,43.32,43.28c0.3,0.3,0.61,0.58,1.08,1.03C577.31,578.42,577.31,559.84,577.31,541.16z" style="fill: rgb(50, 192, 204);"/><path class="st0" d="M560.14,527.92c2.34,0.05,4.64-0.26,6.8-1.13c0.96-0.39,1.15-0.06,1.37,0.76c0.8,3.03,0.84,3.07-2.28,3.84&#10;&#9;c-4.86,1.19-9.7,1.63-14.41-0.67c-4.06-1.98-6.37-5.32-7.2-9.62c-1.19-6.16-0.33-11.92,4.28-16.6c3.79-3.84,8.46-4.59,13.47-3.2&#10;&#9;c4.79,1.32,6.98,5.02,8.04,9.56c0.37,1.59,0.47,3.2,0.5,4.83c0.03,1.28-0.33,1.79-1.77,1.76c-6.03-0.09-12.06-0.01-18.09-0.07&#10;&#9;c-1.3-0.01-1.76,0.17-1.53,1.65C550.24,524.99,553.73,527.92,560.14,527.92z M557.29,513.58c2.32,0,4.64,0.01,6.96-0.01&#10;&#9;c0.44,0,1,0.27,1.07-0.65c0.23-3.09-1.98-6.65-4.9-7.69c-5.05-1.8-10.81,2.22-11.04,7.63c-0.04,0.95,0.49,0.72,0.95,0.72&#10;&#9;C552.65,513.59,554.97,513.58,557.29,513.58z" style="fill: rgb(50, 192, 204);"/></g></g></svg>