<?xml version="1.0" encoding="utf-8"?>
<svg id="master-artboard" viewBox="0 0 100 100" version="1.1" xmlns="http://www.w3.org/2000/svg" x="0px" y="0px" style="enable-background:new 0 0 1400 980;" width="100px" height="100px"><rect id="ee-background" x="0" y="0" width="100" height="100" style="fill: white; fill-opacity: 0; pointer-events: none;"/><g transform="matrix(0.43467704092058734, 0, 0, 0.43467704092058734, 6.5323031797079265, 6.532294596639079)"><rect id="rect-1" x="0" y="0" width="200" height="200" style="fill: white; fill-opacity: 0; pointer-events: none;"/><g transform="matrix(0.9689736486445547, 0, 0, 0.9689736486445547, -383.08321403093566, -404.29168012875664)"><path class="st0" d="M569.54,485.59H425.46c-6.18,0-11.19-5.01-11.19-11.19v0c0-6.18,5.01-11.19,11.19-11.19h144.08&#10;&#9;c6.18,0,11.19,5.01,11.19,11.19v0C580.73,480.58,575.72,485.59,569.54,485.59z" style="fill: rgb(50, 192, 204);"/><path class="st0" d="M569.54,525.37H425.46c-6.18,0-11.19-5.01-11.19-11.19l0,0c0-6.18,5.01-11.19,11.19-11.19h144.08&#10;&#9;c6.18,0,11.19,5.01,11.19,11.19l0,0C580.73,520.36,575.72,525.37,569.54,525.37z" style="fill: rgb(50, 192, 204);"/><path class="st0" d="M569.54,572.3H425.46c-6.18,0-11.19-5.01-11.19-11.19v0c0-6.18,5.01-11.19,11.19-11.19h144.08&#10;&#9;c6.18,0,11.19,5.01,11.19,11.19v0C580.73,567.29,575.72,572.3,569.54,572.3z" style="fill: rgb(50, 192, 204);"/><g>
	<path class="st0" d="M448.51,493.33c-10.52-0.02-18.9-8.5-18.87-19.09c0.03-10.35,8.6-18.8,19.02-18.76&#10;&#9;&#9;c10.45,0.03,18.87,8.56,18.84,19.08C467.48,484.93,458.96,493.35,448.51,493.33z" style="fill: rgb(50, 192, 204);"/>
	<path class="st1" d="M448.54,484.4c-5.56-0.01-9.99-4.49-9.97-10.09c0.02-5.47,4.54-9.93,10.05-9.91&#10;&#9;&#9;c5.52,0.02,9.97,4.52,9.95,10.08C458.56,479.96,454.06,484.41,448.54,484.4z" style="fill: rgb(255, 255, 255);"/>
</g><g>
	<path class="st0" d="M548.42,533.11c-10.52-0.02-18.9-8.5-18.87-19.09c0.03-10.35,8.6-18.8,19.02-18.76&#10;&#9;&#9;c10.45,0.03,18.87,8.56,18.84,19.08C567.39,524.71,558.87,533.13,548.42,533.11z" style="fill: rgb(50, 192, 204);"/>
	<path class="st1" d="M548.45,524.18c-5.56-0.01-9.99-4.49-9.97-10.09c0.02-5.47,4.54-9.93,10.05-9.91&#10;&#9;&#9;c5.52,0.02,9.97,4.52,9.95,10.08C558.47,519.75,553.97,524.19,548.45,524.18z" style="fill: rgb(255, 255, 255);"/>
</g><g>
	<path class="st0" d="M446.61,580.04c-10.52-0.02-18.9-8.5-18.87-19.09c0.03-10.35,8.6-18.8,19.02-18.76&#10;&#9;&#9;c10.45,0.03,18.87,8.56,18.84,19.08C465.58,571.64,457.06,580.06,446.61,580.04z" style="fill: rgb(50, 192, 204);"/>
	<path class="st1" d="M446.64,571.11c-5.56-0.01-9.99-4.49-9.97-10.09c0.02-5.47,4.54-9.93,10.05-9.91&#10;&#9;&#9;c5.52,0.02,9.97,4.52,9.95,10.08C456.66,566.67,452.16,571.12,446.64,571.11z" style="fill: rgb(255, 255, 255);"/>
</g></g></g></svg>