<?xml version="1.0" encoding="utf-8"?>
<svg id="master-artboard" viewBox="0 0 100 100" version="1.1" xmlns="http://www.w3.org/2000/svg" x="0px" y="0px" style="enable-background:new 0 0 1400 980;" width="100px" height="100px"><rect id="ee-background" x="0" y="0" width="100" height="100" style="fill: white; fill-opacity: 0; pointer-events: none;"/><g transform="matrix(0.4085478486361626, 0, 0, 0.4085478486361626, 9.145221636574204, 9.145213152323775)"><rect id="rect-1" x="0" y="0" width="200" height="200" style="fill: white; fill-opacity: 0; pointer-events: none;"/><g transform="matrix(1.2659000158309937, 0, 0, 1.2659000158309937, -545.5082352127326, -631.3740440160481)"><g>
	<path class="st0" d="M508.75,643.17c-36.07,0.03-65.44-29.34-65.44-65.43c0-36.1,29.35-65.44,65.44-65.42&#10;&#9;&#9;c36.11,0.02,65.45,29.39,65.4,65.46C574.1,613.87,544.82,643.15,508.75,643.17z M471.88,623.35c0-0.37,0-0.61,0-0.85&#10;&#9;&#9;c0.03-9.72,0.07-19.45,0.1-29.17c0-0.71,0-1.42,0.13-2.12c1.1-5.57,6.37-9.92,12.12-9.97c3.66-0.03,7.32,0.01,10.98-0.02&#10;&#9;&#9;c0.63-0.01,1.06,0.2,1.5,0.63c3.59,3.47,7.22,6.9,10.8,10.38c0.51,0.49,0.75,0.41,1.21-0.03c3.61-3.49,7.24-6.95,10.88-10.41&#10;&#9;&#9;c0.29-0.27,0.54-0.57,1.03-0.56c3.93,0.02,7.87-0.02,11.8,0.03c5.99,0.08,11.98,5.79,11.9,12.25c-0.13,10.02,0.06,20.05,0.12,30.07&#10;&#9;&#9;c0,0.18-0.08,0.38,0.08,0.54c15.81-11.69,27.1-34.4,21.45-59.33c-5.8-25.6-28.05-44.37-53.94-45.68&#10;&#9;&#9;c-26.52-1.34-50.52,14.83-58.94,39.86C444.81,583.6,453.81,608.95,471.88,623.35z M508.21,593.09c-0.05-0.01-0.1-0.02-0.14-0.02&#10;&#9;&#9;c-0.25,0.97-0.51,1.94-0.76,2.92c-1.69,6.6-3.37,13.2-5.07,19.8c-0.1,0.37-0.1,0.64,0.25,0.92c1.75,1.39,3.49,2.8,5.21,4.22&#10;&#9;&#9;c0.35,0.29,0.58,0.24,0.9-0.01c1.67-1.32,3.34-2.63,5.04-3.91c0.41-0.31,0.49-0.6,0.36-1.09c-0.79-3.03-1.55-6.08-2.32-9.11&#10;&#9;&#9;C510.52,602.23,509.37,597.66,508.21,593.09z" style="fill: rgb(50, 192, 204);"/>
	<path class="st1" d="M508.21,593.09c1.16,4.57,2.31,9.14,3.47,13.71c0.77,3.04,1.52,6.08,2.32,9.11c0.13,0.49,0.05,0.78-0.36,1.09&#10;&#9;&#9;c-1.7,1.28-3.37,2.59-5.04,3.91c-0.33,0.26-0.55,0.3-0.9,0.01c-1.72-1.43-3.46-2.83-5.21-4.22c-0.35-0.28-0.34-0.55-0.25-0.92&#10;&#9;&#9;c1.69-6.6,3.38-13.2,5.07-19.8c0.25-0.97,0.51-1.94,0.76-2.92C508.12,593.08,508.16,593.09,508.21,593.09z" style="fill: rgb(255, 255, 255);"/>
	<path class="st0" d="M484.01,552.84c0-13.31,10.8-24.1,24.11-24.1c13.33,0,24.1,10.78,24.1,24.1c0,13.35-10.8,24.11-24.18,24.1&#10;&#9;&#9;C494.8,576.93,484.01,566.11,484.01,552.84z" style="fill: rgb(50, 192, 204);"/>
</g></g></g></svg>