<svg id="Layer_1" data-name="Layer 1" xmlns="http://www.w3.org/2000/svg" xmlns:xlink="http://www.w3.org/1999/xlink" viewBox="0 0 760 440"><defs><linearGradient id="linear-gradient-11" x1="676.83" y1="516.57" x2="660.29" y2="529.29" gradientTransform="matrix(1 0 0 -1 -41 804.5)" gradientUnits="userSpaceOnUse"><stop offset="0" stop-color="#e07288"/><stop offset="1" stop-color="#f59f90"/></linearGradient><linearGradient id="linear-gradient-22" x1="408.13" y1="460.79" x2="418.81" y2="492.84" xlink:href="#linear-gradient-17"/><linearGradient id="linear-gradient-2" x1="270.44" y1="386.71" x2="327.72" y2="386.71" xlink:href="#linear-gradient"/><linearGradient id="linear-gradient-3" x1="163.35" y1="443.92" x2="174.8" y2="485.51" gradientTransform="matrix(1 0 0 -1 -41 804.5)" gradientUnits="userSpaceOnUse"><stop offset="0" stop-color="#f9c895"/><stop offset="1" stop-color="#fee3c2"/></linearGradient><linearGradient id="linear-gradient-4" x1="289.48" y1="579.39" x2="312.21" y2="593.45" gradientTransform="matrix(1 0 0 -1 -41 804.5)" gradientUnits="userSpaceOnUse"><stop offset="0" stop-color="#925a50"/><stop offset="1" stop-color="#db8569"/></linearGradient><linearGradient id="linear-gradient-5" x1="279.55" y1="558.74" x2="233.2" y2="607.72" xlink:href="#linear-gradient-4"/><linearGradient id="linear-gradient-6" x1="266.56" y1="540.71" x2="272.15" y2="503.34" xlink:href="#linear-gradient-3"/><linearGradient id="linear-gradient-7" x1="285.29" y1="532.23" x2="256.64" y2="561.75" xlink:href="#linear-gradient-3"/><linearGradient id="linear-gradient-8" x1="289.83" y1="400.33" x2="278.08" y2="420.36" xlink:href="#linear-gradient-3"/><linearGradient id="linear-gradient-9" x1="545.45" y1="519.42" x2="568.43" y2="613.05" gradientTransform="matrix(1 0 0 -1 -41 804.5)" gradientUnits="userSpaceOnUse"><stop offset="0" stop-color="#494443"/><stop offset="1" stop-color="#666060"/></linearGradient><linearGradient id="linear-gradient-10" x1="498.62" y1="385.23" x2="602.91" y2="385.23" gradientTransform="matrix(1 0 0 -1 -41 804.5)" gradientUnits="userSpaceOnUse"><stop offset="0" stop-color="#32308e"/><stop offset="1" stop-color="#4c499e"/></linearGradient><linearGradient id="linear-gradient" x1="234.41" y1="382.03" x2="287.93" y2="382.03" gradientTransform="matrix(1 0 0 -1 -41 804.5)" gradientUnits="userSpaceOnUse"><stop offset="0" stop-color="#4c499e"/><stop offset="1" stop-color="#32308e"/></linearGradient><linearGradient id="linear-gradient-12" x1="549.39" y1="551.45" x2="552.84" y2="509.26" xlink:href="#linear-gradient-11"/><linearGradient id="linear-gradient-13" x1="527.75" y1="546.04" x2="557.6" y2="567.11" xlink:href="#linear-gradient-11"/><linearGradient id="linear-gradient-14" x1="492.11" y1="400.11" x2="512.38" y2="413.01" xlink:href="#linear-gradient-11"/><linearGradient id="linear-gradient-15" x1="352.91" y1="384.55" x2="404.11" y2="384.55" xlink:href="#linear-gradient"/><linearGradient id="linear-gradient-16" x1="398.61" y1="386.59" x2="450.08" y2="386.59" xlink:href="#linear-gradient"/><linearGradient id="linear-gradient-17" x1="389.46" y1="455.97" x2="349.36" y2="475.8" gradientTransform="matrix(1 0 0 -1 -41 804.5)" gradientUnits="userSpaceOnUse"><stop offset="0" stop-color="#f8aba8"/><stop offset="1" stop-color="#fee3d1"/></linearGradient><linearGradient id="linear-gradient-18" x1="401.15" y1="549.71" x2="402.16" y2="527.51" xlink:href="#linear-gradient-17"/><linearGradient id="linear-gradient-19" x1="292.74" y1="629.1" x2="343.23" y2="629.1" gradientTransform="scale(1 -1) rotate(-2.59 -18687.276 -702.38)" xlink:href="#linear-gradient-17"/><linearGradient id="linear-gradient-20" x1="361.07" y1="609.29" x2="313.4" y2="637.36" gradientTransform="scale(1 -1) rotate(-2.59 -18687.276 -702.38)" xlink:href="#linear-gradient-17"/><linearGradient id="linear-gradient-21" x1="319.41" y1="635.07" x2="319.41" y2="674.89" gradientTransform="scale(1 -1) rotate(-2.59 -18687.276 -702.38)" gradientUnits="userSpaceOnUse"><stop offset="0" stop-color="#773e4f"/><stop offset="1" stop-color="#ab5757"/></linearGradient><style>.cls-2,.cls-24,.cls-25,.cls-26,.cls-29,.cls-30{stroke-width:0}.cls-2{opacity:.51}.cls-2,.cls-24{isolation:isolate}.cls-2,.cls-30{fill:#68c9d8}.cls-24,.cls-32{opacity:.48}.cls-24,.cls-29{fill:#04969f}.cls-25{fill:#4762ac}.cls-26{fill:#26265e}</style></defs><path class="cls-29" d="M371.22 431.61h-38.51l-3.11-.56s-4.81-8.64-14.18-19.85c-10.51-12.56-25.36-28.06-17.77-33.03 7.09-4.64 9.14-5.06-1.49-18.87-10.65-13.8-14.25-24.56-8.73-27.65s13.58.19 13.13-7.59c-.46-7.76-15.71-18.68-22.12-32.96-6.4-14.29 1.87-18.01 4.37-17.65 2.51.36 14.07 6.1 13.29-2.98-.78-9.08-2.07-30.08 5.96-32.82 8.03-2.73 20.61 11.1 21.84 27.94 1.23 16.85 7.81 20 13.44 17.34s9.13-.21 11.66 6.16c2.53 6.37-9.5 40.09-4.97 42.77 4.52 2.69 10.46-12.53 17.73-10.47 4.97 1.42 3.88 13.07.98 24.67-1.34 5.37-3.07 10.72-4.75 15.05-5.34 13.7-.23 22.72 8.16 19.45 8.37-3.27 10.17 3.6 10.88 10.38.63 6.12-5.01 20.35-5.8 40.65z"/><g class="cls-32"><path class="cls-30" d="M308.64 259.43c.01-.21.03-.42.06-.62 0 0-.04.2-.06.62zM319.62 274.08c-.08-.51-.17-1-.28-1.46 0 0 .11.54.28 1.46z"/><path class="cls-2" d="M353.23 431.61h-7.64c-.44-2.7-.99-5.68-1.67-8.88-12.06-10.24-22.38-28.46-23.02-29.59 6.78 10.5 15.48 17.55 21.12 21.38-2.01-7.85-4.73-16.42-8.43-24.77-7.71-17.4-12.22-28.37-14.32-38.23-9.61-4.81-13.62-20.53-13.78-21.14 4.01 9.69 9.73 14.78 13.05 17.09-.6-3.95-.81-7.84-.69-12.02.28-9.5 1.88-17.79 2-25.85-8.83-8.15-13.94-23.18-14.25-24.1 4.52 11.49 12.24 18.08 14.13 19.57-.26-3.85-1-7.67-2.51-11.59-5.12-13.21-9.05-27.12-8.57-34.02-.08 1.99.4 9.12 8.36 25.27.74 1.52 1.4 2.9 2.01 4.2.53-3.49 1.33-10.06.62-14.82.83 4.43 3.19 17.64 2.44 22.22 2.9 8.58 1.93 14.8.94 36.57-.35 7.68 1.27 15.71 3.82 23.76 3.1-4.33 7.78-11.5 8.98-16.91 0 0-.86 10.25-7.67 20.82 4.67 13.18 11.44 26.23 15.92 37.61 1.05-3.97 2.28-9.83 2.3-15.42.08.76 1.36 13.14.21 22.42 2.72 8.64 5.1 17.6 6.65 26.43z"/></g><path class="cls-24" d="m336.05 421.08-.14 10.52h-49.79s-7.77-4.15-12.17-8.68c-1.8-1.85-3.04-3.77-2.96-5.49.12-2.54 2.87-4.88 5.12-7.11 2.54-2.51 4.44-4.88 1.24-7.23-.61-.45-1.4-.89-2.41-1.33-11.01-4.86-19.36-7-17.5-13.24 1.69-5.67 8.45-10.61.28-12.43-12.14-2.7-20.6-11.62-18.91-18.11 1.24-4.75 12.98-2.7 8.47-10s-23.99-13.24-23.71-22.7c.28-9.46 12.7-2.7 12.98-7.84.28-5.13-12.7-11.89-8.19-21.62s18.35-3.24 25.4 5.4c7.06 8.65 8.47 6.76 12.14 3.51 3.67-3.24 9.31-2.97 11.29 12.16 1.98 15.13 3.95 22.43 11.85 21.08 7.9-1.35 10.44 9.19 8.19 19.72-2.26 10.54 1.13 19.46 9.31 17.02 1.25-.37 2.33-.55 3.27-.55 5.22-.01 6.08 5.22 7.03 10.95 1.13 6.76-1.69 20 8.47 20.81 10.16.82 10.72 15.15 10.72 15.15z"/><path class="cls-29" d="m306.92 412.99.03.04s5.43-11.01.06-22.9c0 0 3.8 8.57-2.19 20.63l.02.02a59.27 59.27 0 0 0-1.78-1.73c-11.71-10.99-17.91-22.79-22.4-38.29 7.4-4.98 8-15.21 8-15.21-1.88 6.1-6.05 10.59-8.64 12.92-.78-2.87-1.52-5.86-2.22-9-2.25-10.03-7.28-17.34-13.02-24.35l.04.03c2.82-8.65-2.82-19.46-2.82-19.46 3.24 8.65 1.73 15.29 1.09 17.39-6.06-7.2-12.67-14.32-17.6-24.01.12.28 4.13 9.45 15.38 24.18 7.12 9.31 10.49 15.34 12.67 21.42-2.36-.38-13.34-2.53-17.61-10.47 0 0 4.75 11.24 18.44 12.94 1.54 4.98 2.52 10.3 4.29 17.72 3.26 13.74 16.23 29.86 21.31 35.27 3.83 4.08 9.76 9.85 11.83 21.48h5.12c-.65-3.58-2.81-10.55-9.99-18.61zM366.66 431.61h38.51l3.11-.56s4.81-8.64 14.18-19.85c10.51-12.56 25.36-28.06 17.77-33.03-7.09-4.64-9.14-5.06 1.49-18.87 10.65-13.8 14.25-24.56 8.73-27.65s-13.58.19-13.13-7.59c.46-7.76 15.71-18.68 22.12-32.96 6.4-14.29-1.87-18.01-4.37-17.65-2.51.36-14.07 6.1-13.29-2.98.78-9.08 2.07-30.08-5.96-32.82-8.03-2.73-20.61 11.1-21.84 27.94-1.23 16.85-7.81 20-13.44 17.34s-9.13-.21-11.66 6.16c-2.53 6.37 9.5 40.09 4.97 42.77-4.52 2.69-10.46-12.53-17.73-10.47-4.97 1.42-3.88 13.07-.98 24.67 1.34 5.37 3.07 10.72 4.75 15.05 5.34 13.7.23 22.72-8.16 19.45-8.37-3.27-10.17 3.6-10.88 10.38-.63 6.12 5.01 20.35 5.8 40.65z"/><g class="cls-32"><path class="cls-30" d="M429.23 259.43zM418.25 274.08c.08-.51.17-1 .28-1.46 0 0-.11.54-.28 1.46z"/><path class="cls-2" d="M384.65 431.61h7.64c.44-2.7.99-5.68 1.67-8.88 12.06-10.24 22.38-28.46 23.02-29.59-6.78 10.5-15.48 17.55-21.12 21.38 2.01-7.85 4.73-16.42 8.43-24.77 7.71-17.4 12.22-28.37 14.32-38.23 9.61-4.81 13.62-20.53 13.78-21.14-4.01 9.69-9.73 14.78-13.05 17.09.6-3.95.81-7.84.69-12.02-.28-9.5-1.88-17.79-2-25.85 8.83-8.15 13.94-23.18 14.25-24.1-4.52 11.49-12.24 18.08-14.13 19.57.26-3.85 1-7.67 2.51-11.59 5.12-13.21 9.05-27.12 8.57-34.02.08 1.99-.4 9.12-8.36 25.27-.74 1.52-1.4 2.9-2.01 4.2-.53-3.49-1.33-10.06-.62-14.82-.83 4.43-3.19 17.64-2.44 22.22-2.9 8.58-1.93 14.8-.94 36.57.35 7.68-1.27 15.71-3.82 23.76-3.1-4.33-7.78-11.5-8.98-16.91 0 0 .86 10.25 7.67 20.82-4.67 13.18-11.44 26.23-15.92 37.61-1.05-3.97-2.28-9.83-2.3-15.42-.08.76-1.36 13.14-.21 22.42-2.72 8.64-5.1 17.6-6.65 26.43z"/></g><path class="cls-24" d="m401.8 421.08.14 10.52h49.78s7.77-4.15 12.17-8.68c1.8-1.85 3.04-3.77 2.96-5.49-.12-2.54-2.87-4.88-5.12-7.11-2.54-2.51-4.44-4.88-1.24-7.23.61-.45 1.4-.89 2.41-1.33 11.01-4.86 19.36-7 17.5-13.24-1.69-5.67-8.45-10.61-.28-12.43 12.14-2.7 20.6-11.62 18.91-18.11-1.24-4.75-12.98-2.7-8.47-10s23.99-13.24 23.71-22.7c-.28-9.46-12.7-2.7-12.98-7.84-.28-5.13 12.7-11.89 8.19-21.62s-18.35-3.24-25.4 5.4c-7.06 8.65-8.47 6.76-12.14 3.51-3.67-3.24-9.31-2.97-11.29 12.16s-3.95 22.43-11.85 21.08c-7.9-1.35-10.44 9.19-8.19 19.72 2.26 10.54-1.13 19.46-9.31 17.02-1.25-.37-2.33-.55-3.27-.55-5.22-.01-6.08 5.22-7.03 10.95-1.13 6.76 1.69 20-8.47 20.81-10.16.82-10.72 15.15-10.72 15.15z"/><path class="cls-29" d="m430.96 412.99-.03.04s-5.43-11.01-.06-22.9c0 0-3.8 8.57 2.19 20.63l-.02.02c.56-.57 1.16-1.15 1.78-1.73 11.71-10.99 17.91-22.79 22.4-38.29-7.4-4.98-8-15.21-8-15.21 1.88 6.1 6.05 10.59 8.64 12.92.78-2.87 1.52-5.86 2.22-9 2.25-10.03 7.28-17.34 13.02-24.35l-.04.03c-2.82-8.65 2.82-19.46 2.82-19.46-3.24 8.65-1.73 15.29-1.09 17.39 6.06-7.2 12.67-14.32 17.6-24.01-.12.28-4.13 9.45-15.38 24.18-7.12 9.31-10.49 15.34-12.67 21.42 2.36-.38 13.34-2.53 17.61-10.47 0 0-4.75 11.24-18.44 12.94-1.54 4.98-2.52 10.3-4.29 17.72-3.26 13.74-16.23 29.86-21.31 35.27-3.83 4.08-9.76 9.85-11.83 21.48h-5.12c.65-3.58 2.81-10.55 9.99-18.61z"/><path class="cls-24" d="M205.35 430.57s-97.32 12.18-106.24-3.01c-8.91-15.19 67.5-25.75 106.24 3.01z"/><path class="cls-24" d="M205.35 430.57s-29.51-46.45-81.16-55.74c-51.65-9.28-45.09 34.02-1.61 33.07 43.49-.96 82.77 22.67 82.77 22.67z"/><path class="cls-24" d="M213.84 416.76s-43.24-67.29-69.19-90.23c-25.95-22.94-44.29-30.51-56.12-21.3-11.83 9.21-5.49 33.6 26.19 50.7s64.85 44.09 90.63 74.64l8.49-13.81z"/><path class="cls-24" d="M205.35 430.57s-25.11-69.8-65.49-127.33c-37.89-53.99-21.34-86.72 3.95-75.04 30.23 13.97 58.07 88.97 69.46 190.76l-7.92 11.61z"/><path class="cls-29" d="M196.15 430.94c1.07-.15 1.98-.9 2.24-1.97.34-1.38-.56-2.77-2.02-3.09-43.12-9.55-78.81-4.14-80.31-3.9-1.47.23-2.46 1.55-2.22 2.96.24 1.38 1.59 2.33 3.04 2.13h.05c.36-.05 36.18-5.47 78.22 3.84.34.08.67.09.99.04z"/><path class="cls-29" d="M199.16 430.52c.53-.07 1.04-.3 1.46-.67 1.08-.97 1.13-2.6.11-3.64-21.51-21.8-45.89-32.41-62.55-37.48-18.09-5.5-30.96-5.83-31.5-5.84-1.49-.03-2.72 1.1-2.75 2.51-.03 1.42 1.14 2.6 2.63 2.63.62.01 50.71 1.65 90.25 41.71.63.63 1.51.9 2.35.78zM203.87 425.16c.32-.04.63-.14.93-.3 1.3-.69 1.76-2.26 1.04-3.5-24.2-41.44-50.97-66.24-69.18-79.74-19.85-14.73-33.84-19.54-34.42-19.74-1.4-.47-2.94.23-3.44 1.57s.24 2.81 1.64 3.28c.14.05 13.94 4.83 33.16 19.13 17.74 13.21 43.87 37.46 67.54 78.01.56.96 1.67 1.45 2.74 1.3zM207.33 395.63c.68-.09 1.32-.44 1.77-1.01l1.42-1.82-.49-1.3c-20.52-54.51-42.9-100.73-70.43-145.47-.75-1.23-2.41-1.63-3.69-.91-1.28.72-1.71 2.3-.96 3.52 27.15 44.12 49.26 89.71 69.53 143.37-.52 1.08-.2 2.4.84 3.14.6.42 1.32.58 2 .48z"/><path class="cls-24" d="M535.41 430.57s97.32 12.18 106.24-3.01c8.91-15.19-67.51-25.75-106.24 3.01z"/><path class="cls-24" d="M535.41 430.57s29.51-46.45 81.16-55.74c51.65-9.28 45.1 34.02 1.61 33.07-43.49-.96-82.77 22.67-82.77 22.67z"/><path class="cls-24" d="M526.92 416.76s43.24-67.29 69.19-90.23c25.95-22.94 44.29-30.51 56.12-21.3 11.83 9.21 5.49 33.6-26.19 50.7s-64.85 44.09-90.63 74.64l-8.49-13.81z"/><path class="cls-24" d="M535.41 430.57s25.11-69.8 65.49-127.33c37.89-53.99 21.34-86.72-3.95-75.04-30.23 13.97-58.07 88.97-69.46 190.76l7.92 11.61z"/><path class="cls-29" d="M544.61 430.94c-1.07-.15-1.98-.9-2.24-1.97-.34-1.38.56-2.77 2.02-3.09 43.12-9.55 78.81-4.14 80.31-3.9 1.47.23 2.46 1.55 2.22 2.96-.24 1.38-1.59 2.33-3.04 2.13h-.05c-.36-.05-36.18-5.47-78.22 3.84-.34.08-.67.09-.99.04z"/><path class="cls-29" d="M541.6 430.52a2.76 2.76 0 0 1-1.46-.67 2.498 2.498 0 0 1-.11-3.64c21.51-21.8 45.89-32.41 62.55-37.48 18.09-5.5 30.96-5.83 31.5-5.84 1.49-.03 2.72 1.1 2.75 2.51.03 1.42-1.14 2.6-2.63 2.63-.62.01-50.71 1.65-90.25 41.71-.62.63-1.5.9-2.35.78zM536.89 425.16c-.32-.04-.63-.14-.93-.3-1.3-.69-1.76-2.26-1.04-3.5 24.2-41.44 50.97-66.24 69.18-79.74 19.85-14.73 33.84-19.54 34.42-19.74 1.4-.47 2.94.23 3.44 1.57s-.24 2.81-1.64 3.28c-.14.05-13.94 4.83-33.16 19.13-17.74 13.21-43.87 37.46-67.54 78.01-.56.96-1.66 1.45-2.74 1.3zM533.42 395.63c-.68-.09-1.32-.44-1.77-1.01l-1.42-1.82.49-1.3c20.52-54.51 42.9-100.73 70.43-145.47.75-1.23 2.41-1.63 3.69-.91 1.28.72 1.71 2.3.96 3.52-27.15 44.12-49.26 89.71-69.53 143.37.52 1.08.2 2.4-.84 3.14-.6.42-1.31.58-2 .48z"/><ellipse class="cls-24" cx="711.69" cy="201.65" rx="22.7" ry="21.73"/><path class="cls-29" d="M707.41 222.22c-1.35-3.14-2.44-7.71-2.97-13.26-.04-.48-.09-.97-.12-1.45-.15-1.87-.22-3.84-.22-5.9s.08-4.03.22-5.9c.03-.49.08-.98.12-1.45.52-5.55 1.62-10.11 2.97-13.26.12-.28.23-.55.36-.8.14-.28.27-.55.41-.8-.65.09-1.3.21-1.92.35-.13.27-.25.55-.37.83-.11.28-.23.55-.33.84-1.31 3.52-2.2 8.1-2.64 12.94-.04.48-.08.97-.11 1.45-.15 1.91-.21 3.85-.21 5.77s.07 3.87.21 5.77c.03.49.07.97.11 1.45.45 4.85 1.33 9.43 2.64 12.94.11.29.22.56.33.84.11.29.23.56.37.83.63.14 1.27.27 1.92.35-.14-.25-.27-.51-.41-.8-.12-.25-.23-.51-.36-.79zm13.13-26.39c-.03-.49-.07-.97-.11-1.45-.45-4.85-1.33-9.43-2.64-12.94-.11-.29-.22-.56-.33-.84a7.75 7.75 0 0 0-.37-.83c-.63-.14-1.27-.27-1.92-.35.14.25.27.51.41.8.12.25.23.52.36.8 1.35 3.14 2.44 7.71 2.97 13.26.04.48.09.97.12 1.45a79.037 79.037 0 0 1 0 11.8c-.03.49-.08.98-.12 1.45-.52 5.55-1.62 10.11-2.97 13.26-.12.28-.23.55-.36.8-.14.28-.27.55-.41.8.65-.09 1.3-.21 1.92-.35.13-.27.25-.55.37-.83.11-.28.23-.55.33-.84 1.31-3.52 2.2-8.09 2.64-12.94.04-.48.08-.97.11-1.45.15-1.91.21-3.85.21-5.77 0-1.94-.07-3.87-.21-5.78z"/><path class="cls-29" d="M734.69 197.27c-.27-.12-.56-.22-.86-.33-.27-.09-.55-.19-.84-.28-3.37-1.09-7.8-1.86-12.57-2.28l-1.53-.12c-2.38-.17-4.81-.25-7.23-.25s-4.85.09-7.23.25l-1.53.12c-4.77.42-9.2 1.19-12.57 2.28-.29.09-.57.19-.84.28-.3.11-.58.22-.86.33-.11.55-.2 1.11-.27 1.68.25-.12.52-.23.81-.35.26-.1.52-.21.81-.3 3.01-1.08 7.41-1.98 12.8-2.46.5-.04 1.01-.09 1.52-.12 2.29-.17 4.76-.26 7.35-.26s5.06.09 7.35.26c.52.04 1.02.08 1.52.12 5.4.48 9.8 1.38 12.8 2.46.29.1.55.21.81.3.29.12.56.23.81.35-.06-.56-.15-1.13-.26-1.68zm-.54 7.34c-.26.1-.52.21-.81.3-3.01 1.08-7.41 1.98-12.8 2.46-.5.04-1.01.09-1.52.12-2.29.17-4.76.26-7.35.26s-5.06-.09-7.35-.26c-.52-.04-1.02-.08-1.52-.12-5.4-.48-9.8-1.38-12.8-2.46-.29-.1-.55-.21-.81-.3-.29-.12-.56-.23-.81-.35.07.56.16 1.13.27 1.68.27.12.56.22.86.33.27.09.55.19.84.28 3.37 1.09 7.8 1.86 12.57 2.28l1.53.12c2.38.17 4.81.25 7.23.25s4.85-.09 7.23-.25l1.53-.12c4.77-.42 9.2-1.19 12.57-2.28.29-.09.57-.19.84-.28.3-.11.58-.22.86-.33.11-.55.2-1.11.27-1.68-.26.12-.53.23-.82.35z"/><path class="cls-29" d="M734.96 198.95a23.5 23.5 0 0 0-.27-1.68c-1.77-8.62-8.72-15.5-17.6-17.51-.63-.14-1.27-.27-1.92-.35-1.14-.17-2.31-.25-3.5-.25a25.295 25.295 0 0 0-5.42.6c-8.88 2.01-15.83 8.89-17.6 17.51-.11.55-.2 1.11-.27 1.68-.11.87-.17 1.76-.17 2.66s.05 1.79.17 2.66c.07.56.16 1.13.27 1.68 1.77 8.62 8.72 15.5 17.6 17.51.63.14 1.27.27 1.92.35 1.14.17 2.31.25 3.5.25a25.295 25.295 0 0 0 5.42-.6c8.88-2.01 15.83-8.89 17.6-17.51.11-.55.2-1.11.27-1.68.11-.87.17-1.76.17-2.66s-.05-1.79-.17-2.66zm-1.35 2.66c0 1.13-.09 2.23-.27 3.31-.09.56-.2 1.11-.35 1.65-1.85 7.31-7.71 13.14-15.21 15.22-.6.17-1.23.32-1.86.43-1.38.26-2.8.4-4.26.4s-2.88-.14-4.26-.4c-.63-.12-1.25-.26-1.86-.43-7.5-2.08-13.36-7.91-15.21-15.22-.15-.54-.26-1.09-.35-1.65-.18-1.08-.27-2.18-.27-3.31s.09-2.23.27-3.31c.09-.56.2-1.11.35-1.65 1.85-7.31 7.71-13.14 15.21-15.22.6-.17 1.23-.32 1.86-.43 1.38-.26 2.8-.4 4.26-.4s2.88.14 4.26.4c.63.12 1.25.26 1.86.43 7.5 2.08 13.36 7.91 15.21 15.22.15.54.26 1.09.35 1.65.18 1.08.27 2.18.27 3.31z"/><ellipse class="cls-24" cx="236.28" cy="123.04" rx="22.7" ry="21.73"/><path class="cls-29" d="M232.02 143.63c-1.35-3.14-2.44-7.71-2.97-13.26-.04-.48-.09-.97-.12-1.45-.15-1.87-.22-3.84-.22-5.9s.08-4.03.22-5.9c.03-.49.08-.98.12-1.45.52-5.55 1.62-10.11 2.97-13.26.12-.28.23-.55.36-.8.14-.28.27-.55.41-.8-.65.09-1.3.21-1.92.35-.13.27-.25.55-.37.83-.11.28-.23.55-.33.84-1.31 3.52-2.2 8.09-2.64 12.94-.04.48-.08.97-.11 1.45-.15 1.91-.21 3.85-.21 5.77s.07 3.87.21 5.77c.03.49.07.97.11 1.45.45 4.85 1.33 9.43 2.64 12.94.11.29.22.56.33.84.11.29.23.56.37.83.63.14 1.27.27 1.92.35-.14-.25-.27-.51-.41-.8-.12-.24-.23-.51-.36-.79zm13.13-26.39c-.03-.49-.07-.97-.11-1.45-.45-4.85-1.33-9.43-2.64-12.94-.11-.29-.22-.56-.33-.84a7.75 7.75 0 0 0-.37-.83c-.63-.14-1.27-.27-1.92-.35.14.25.27.51.41.8.12.25.23.52.36.8 1.35 3.14 2.44 7.71 2.97 13.26.04.48.09.97.12 1.45a79.037 79.037 0 0 1 0 11.8c-.03.49-.08.98-.12 1.45-.52 5.55-1.62 10.11-2.97 13.26-.12.28-.23.55-.36.8-.14.28-.27.55-.41.8.65-.09 1.3-.21 1.92-.35.13-.27.25-.55.37-.83.11-.28.23-.55.33-.84 1.31-3.52 2.2-8.09 2.64-12.94.04-.48.08-.97.11-1.45.15-1.91.21-3.85.21-5.77s-.07-3.87-.21-5.78z"/><path class="cls-29" d="M259.3 118.68c-.27-.12-.56-.22-.86-.33-.27-.09-.55-.19-.84-.28-3.37-1.09-7.8-1.86-12.57-2.28l-1.53-.12c-2.38-.17-4.81-.25-7.23-.25s-4.85.09-7.23.25l-1.53.12c-4.77.42-9.2 1.19-12.57 2.28-.29.09-.57.19-.84.28-.3.11-.58.22-.86.33-.11.55-.2 1.11-.27 1.68.25-.12.52-.23.81-.35.26-.1.52-.21.81-.3 3.01-1.08 7.41-1.98 12.8-2.46.5-.04 1.01-.09 1.52-.12 2.29-.17 4.76-.26 7.35-.26s5.06.09 7.35.26c.52.04 1.02.08 1.52.12 5.4.48 9.8 1.38 12.8 2.46.29.1.55.21.81.3.29.12.56.23.81.35-.06-.56-.15-1.13-.26-1.68zm-.54 7.35c-.26.1-.52.21-.81.3-3 1.08-7.41 1.98-12.8 2.46-.5.04-1.01.09-1.52.12-2.29.17-4.76.26-7.35.26s-5.06-.09-7.35-.26c-.52-.04-1.02-.08-1.52-.12-5.4-.48-9.8-1.38-12.8-2.46-.29-.1-.55-.21-.81-.3-.29-.12-.56-.23-.81-.35.07.56.16 1.13.27 1.68.27.12.56.22.86.33.27.09.55.19.84.28 3.37 1.09 7.8 1.86 12.57 2.28l1.53.12c2.38.17 4.81.25 7.23.25s4.85-.09 7.23-.25l1.53-.12c4.77-.42 9.2-1.19 12.57-2.28.29-.09.57-.19.84-.28.3-.11.58-.22.86-.33.11-.55.2-1.11.27-1.68-.26.12-.53.23-.82.35z"/><path class="cls-29" d="M259.57 120.36a23.5 23.5 0 0 0-.27-1.68c-1.77-8.62-8.72-15.5-17.6-17.51-.63-.14-1.27-.27-1.92-.35-1.14-.17-2.31-.25-3.5-.25a25.295 25.295 0 0 0-5.42.6c-8.88 2.01-15.83 8.89-17.6 17.51-.11.55-.2 1.11-.27 1.68-.11.87-.17 1.76-.17 2.66s.05 1.79.17 2.66c.07.56.16 1.13.27 1.68 1.77 8.62 8.72 15.5 17.6 17.51.63.14 1.27.27 1.92.35 1.14.17 2.31.25 3.5.25a25.295 25.295 0 0 0 5.42-.6c8.88-2.01 15.83-8.89 17.6-17.51.11-.55.2-1.11.27-1.68.11-.87.17-1.76.17-2.66 0-.9-.05-1.79-.17-2.66zm-1.35 2.66c0 1.13-.09 2.23-.27 3.31-.09.56-.2 1.11-.35 1.65-1.85 7.31-7.71 13.14-15.21 15.22-.6.17-1.23.32-1.86.43-1.38.26-2.8.4-4.26.4s-2.88-.14-4.26-.4c-.63-.12-1.25-.26-1.86-.43-7.5-2.08-13.36-7.91-15.21-15.22-.15-.54-.26-1.09-.35-1.65-.18-1.08-.27-2.18-.27-3.31s.09-2.23.27-3.31c.09-.56.2-1.11.35-1.65 1.85-7.31 7.71-13.14 15.21-15.22.6-.17 1.23-.32 1.86-.43 1.38-.26 2.8-.4 4.26-.4s2.88.14 4.26.4c.63.12 1.25.26 1.86.43 7.5 2.08 13.36 7.91 15.21 15.22.15.54.26 1.09.35 1.65.18 1.08.27 2.18.27 3.31z"/><ellipse class="cls-24" cx="533.36" cy="122.07" rx="23.85" ry="22.83"/><path class="cls-29" d="M538.9 115.69s-3.67 1.32-4.59-1.32c-.92-2.63 3.67-9.22 5.96-8.79s5.5 6.44 5.5 9.22c0 3.07-5.05 17.57-11.47 21.52-6.42 3.95-14.22 2.2-13.3-1.76.92-3.95 4.13-8.79 5.5-8.34 1.38.44 5.05 4.83 5.05 4.83s8.26-7.46 7.34-15.37zM67.21 185.12v34.59c0 1.91-1.62 3.46-3.61 3.46H3.61c-1.99 0-3.61-1.55-3.61-3.46v-34.59c0-.57.15-1.12.41-1.6.6-1.11 1.8-1.86 3.19-1.86h60.01c1.42 0 2.66.79 3.23 1.94.24.46.37.97.37 1.51z"/><path d="m67.13 183.61-33.31 21.85L.55 183.52c.6-1.11 1.8-1.86 3.2-1.86h60.13c1.43 0 2.66.79 3.24 1.94z" style="fill:#6fcbdc;opacity:.48;isolation:isolate;stroke-width:0"/><path class="cls-24" d="m56.89 45.81-.41-9.35c-.03-.69-.95-.96-1.38-.4l-5.98 7.79c-.19.24-.51.35-.81.28l-14.36-3.72c-.54-.14-.75-.77-.38-1.18L68.16.26c.45-.5 1.31-.22 1.34.44l2.65 48.6c.03.5-.46.88-.96.75l-13.74-3.56c-.32-.09-.55-.36-.56-.68zM721.55 81.85l9.02 3.59c.67.27 1.31-.42.96-1.03l-4.86-8.47a.711.711 0 0 1 .09-.83l9.58-10.89c.36-.41 1.05-.32 1.28.17l22.31 46.46c.29.6-.34 1.23-.98.98l-47.14-18.2c-.48-.19-.63-.77-.3-1.15l9.17-10.42c.21-.25.56-.34.87-.21z"/><path class="cls-29" d="M532.13 247.42h-.05c-5.56-.19-8.96-.67-9.1-.69-.74-.11-1.24-.76-1.13-1.46.11-.7.79-1.19 1.53-1.09.03 0 3.4.48 8.8.66.75.02 1.32.62 1.3 1.33-.03.69-.63 1.25-1.35 1.25zm16.15-.31c-.69 0-1.27-.5-1.34-1.17-.07-.71.47-1.34 1.21-1.41 2.98-.28 5.94-.66 8.8-1.15.73-.13 1.43.34 1.56 1.04.13.7-.36 1.37-1.09 1.49-2.93.5-5.96.89-9.01 1.18h-.14zm24.53-5.06c-.56 0-1.08-.33-1.27-.86-.25-.67.12-1.41.82-1.65a86.05 86.05 0 0 0 8.16-3.23c.67-.31 1.48-.04 1.8.61.32.64.04 1.41-.63 1.72a86.433 86.433 0 0 1-8.43 3.33c-.15.05-.3.07-.45.07zm22.02-11.39c-.4 0-.79-.17-1.06-.49-.46-.56-.36-1.37.23-1.81 2.31-1.74 4.51-3.63 6.54-5.62a1.38 1.38 0 0 1 1.9-.02c.53.5.55 1.31.02 1.82-2.11 2.08-4.4 4.05-6.8 5.86-.24.18-.54.27-.83.27zm16.33-18.08c-.22 0-.44-.05-.65-.16-.65-.35-.89-1.13-.53-1.75 1.39-2.42 2.59-4.99 3.58-7.64.25-.67 1.02-1.02 1.72-.78s1.07.97.82 1.65c-1.04 2.78-2.3 5.48-3.76 8.03-.25.42-.71.67-1.18.67zm7.14-23.02h-.15c-.74-.08-1.27-.71-1.19-1.42.3-2.64.49-5.41.58-8.47.02-.7.62-1.25 1.34-1.25h.04c.74 0 1.33.58 1.31 1.29-.09 3.14-.28 5.99-.59 8.71-.07.66-.66 1.15-1.33 1.15zm.31-23.93c-.72 0-1.31-.54-1.34-1.23-.11-2.19-.22-4.39-.35-6.62l-.11-1.95c-.04-.71.53-1.32 1.28-1.36.75-.02 1.38.51 1.42 1.22l.11 1.95c.12 2.23.24 4.45.35 6.64.03.71-.54 1.31-1.29 1.35h-.06zm-1.06-24.05c-.74 0-1.33-.56-1.34-1.27-.01-1-.02-2-.02-3.01 0-1.94.03-3.84.09-5.65.02-.71.64-1.31 1.39-1.25.75.02 1.33.62 1.31 1.33-.06 1.78-.09 3.65-.09 5.57 0 .99 0 1.99.02 2.97 0 .71-.58 1.3-1.33 1.31h-.02zm1.42-24c-.06 0-.13 0-.19-.01-.74-.1-1.25-.76-1.14-1.46.44-2.91.99-5.78 1.64-8.55.16-.69.89-1.13 1.61-.97.73.15 1.18.84 1.02 1.54-.63 2.7-1.17 5.52-1.6 8.36-.09.64-.67 1.11-1.32 1.11zm6.3-23.25c-.16 0-.33-.03-.49-.09-.69-.26-1.04-1-.77-1.67.65-1.61 1.35-3.23 2.09-4.8.5-1.08 1.03-2.14 1.58-3.18.34-.63 1.14-.89 1.81-.57.66.32.93 1.1.59 1.73-.53.99-1.04 2.02-1.52 3.06a97.64 97.64 0 0 0-2.04 4.69c-.2.51-.72.82-1.26.82zm90.55-18.69c-.24 0-.48-.06-.7-.19-2.45-1.44-5.06-2.84-7.75-4.16-.66-.33-.93-1.1-.58-1.73.34-.63 1.15-.88 1.81-.56 2.76 1.35 5.43 2.78 7.93 4.26.63.37.83 1.17.44 1.77-.25.4-.7.62-1.15.62zM638 73.77c-.33 0-.66-.12-.93-.35a1.25 1.25 0 0 1-.05-1.82c2.16-2.2 4.51-4.14 6.99-5.78.61-.41 1.45-.26 1.88.33.42.59.27 1.39-.34 1.8a40.833 40.833 0 0 0-6.57 5.43c-.27.26-.62.4-.98.4zm55.12-8.43c-.15 0-.29-.02-.44-.07-2.87-.94-5.73-1.73-8.5-2.35-.73-.16-1.17-.85-1.01-1.55.17-.69.9-1.12 1.62-.96 2.85.64 5.8 1.45 8.76 2.42.7.23 1.08.97.84 1.64-.19.54-.71.87-1.27.87zm-33.57-3.2c-.62 0-1.18-.42-1.31-1.03-.15-.69.32-1.38 1.04-1.52 2.91-.58 6-.91 9.16-.97.74-.03 1.36.55 1.37 1.26.01.71-.57 1.3-1.32 1.31-3 .06-5.91.36-8.66.91-.1.02-.19.02-.28.02zM196.38 229.7h-.03c-.75-.02-1.33-.61-1.31-1.32v-.8c0-1.31-.05-4.04-.37-7.68-.06-.71.49-1.33 1.23-1.39.75-.07 1.39.47 1.46 1.18.33 3.73.38 6.54.38 7.89v.87c-.02.69-.62 1.25-1.35 1.25zm-2.97-23.9c-.61 0-1.16-.4-1.31-.99-.72-2.84-1.56-5.57-2.52-8.12-.25-.67.11-1.41.81-1.65.7-.24 1.47.11 1.72.78.99 2.63 1.87 5.46 2.6 8.38.18.69-.27 1.39-.99 1.56-.1.03-.2.04-.31.04zm-9.86-22.01c-.42 0-.84-.19-1.1-.55-1.73-2.34-3.65-4.45-5.7-6.26a1.25 1.25 0 0 1-.08-1.82c.51-.52 1.36-.55 1.9-.07 2.19 1.94 4.23 4.18 6.07 6.67.43.58.29 1.38-.32 1.8-.24.16-.51.24-.78.24zm-19.71-14.17c-.14 0-.27-.02-.41-.06-2.66-.81-5.51-1.34-8.48-1.6-.74-.07-1.29-.69-1.22-1.4.07-.71.73-1.24 1.46-1.17 3.17.28 6.21.85 9.05 1.71.71.21 1.1.94.88 1.62-.17.55-.7.9-1.28.9zm-24.92-1.47h-.02c-3.05-.04-6.1-.15-9.04-.33-.74-.05-1.31-.66-1.26-1.37.05-.71.7-1.25 1.43-1.2 2.91.18 5.9.29 8.91.33.75 0 1.34.6 1.33 1.31-.02.7-.62 1.27-1.35 1.27zm-25.05-2.3c-.07 0-.15 0-.22-.02-3.04-.49-6.03-1.07-8.89-1.73-.72-.17-1.17-.86-.99-1.55.18-.69.9-1.12 1.63-.95 2.8.64 5.73 1.21 8.71 1.69.74.12 1.23.78 1.11 1.49-.12.62-.69 1.07-1.33 1.07zm-24.19-6.4c-.17 0-.34-.03-.51-.1a90.17 90.17 0 0 1-8.26-3.7c-.66-.34-.91-1.11-.56-1.74.35-.63 1.16-.87 1.82-.53 2.53 1.29 5.22 2.5 8 3.59.69.27 1.02 1.02.74 1.68-.21.5-.72.81-1.25.81zm-21.46-12.33c-.31 0-.62-.1-.88-.31-2.32-1.92-4.51-4-6.49-6.17-.49-.54-.43-1.35.13-1.82s1.41-.42 1.9.12c1.9 2.08 4 4.08 6.22 5.92.56.47.62 1.28.14 1.82-.26.29-.63.45-1.01.45zm-15.3-18.85c-.5 0-.97-.26-1.21-.71a65.579 65.579 0 0 1-3.52-8.07c-.24-.67.13-1.41.84-1.64.71-.23 1.47.13 1.71.8.96 2.69 2.1 5.3 3.38 7.76.33.64.06 1.41-.6 1.73-.19.09-.39.13-.6.13zm-7.06-22.94c-.67 0-1.25-.47-1.33-1.12-.38-2.79-.64-5.71-.76-8.66-.03-.71.55-1.31 1.29-1.34.74-.03 1.37.53 1.4 1.24.12 2.88.37 5.72.74 8.44.1.7-.42 1.35-1.16 1.45h-.18zm-.29-24.01h-.12c-.74-.07-1.29-.69-1.22-1.4.26-2.8.63-5.69 1.08-8.61.11-.7.8-1.2 1.53-1.09.74.11 1.24.76 1.13 1.46-.45 2.87-.8 5.71-1.06 8.46-.06.67-.65 1.18-1.34 1.18zm4.16-23.72c-.1 0-.21 0-.31-.03-.73-.16-1.17-.86-1-1.55.68-2.73 1.44-5.55 2.25-8.37.2-.69.94-1.09 1.66-.9s1.13.9.94 1.59c-.81 2.79-1.56 5.58-2.23 8.28-.15.58-.7.98-1.31.98z"/><path d="m246.44 406.78.49 11.09v22.14h-53.35c-.2-5.29-.2-9.95-.11-13.7.14-6.03.49-9.75.49-9.75 1.95-2.06 4.15-3.77 6.51-5.19 9.69-5.81 22.17-6.75 31.74-6.35 8.45.36 14.63 1.76 14.23 1.76z" style="stroke-width:0;fill:url(#linear-gradient)"/><path d="M286.12 440h-56.68c.06-11.29 1.45-21.35 1.45-21.35s7.01-5.94 15.96-11.8c13.59-8.9 31.64-17.59 36.25-4.85.75 2.08 1.36 4.26 1.85 6.51 2.27 10.41 2 22.27 1.17 31.48z" style="fill:url(#linear-gradient-2);stroke-width:0"/><path d="M193.61 348.21s-16.63 14.71-26.81 17.15c-10.18 2.44-56.02-32.51-71.3-49.57 0 0-9.34-4.88-16.13-9.75-6.79-4.88-5.09-23.57-2.55-23.57s17.83 17.07 20.37 17.07-1.7-12.19 0-12.19 9.34 10.57 10.18 19.51c0 0 41.59 29.26 56.02 34.94 0 0 8.49-7.32 12.73-13.82 0 0 14.59 5.52 17.48 20.23z" style="fill:url(#linear-gradient-3);stroke-width:0"/><path class="cls-26" d="M218.58 272.71s-1.7 3.25-10.18 6.5c-8.49 3.25-16.98 12.19-22.92 23.57-5.94 11.38-13.58 29.26-13.58 29.26s11.04 17.88 26.31 16.26 20.37-75.58 20.37-75.58z"/><path class="cls-26" d="M278.85 378.36c.85 13.82 11.88 21.13 6.79 29.26s-63.66 16.26-80.64 6.5-14.43-13-7.64-22.76c6.79-9.75 8.49-26.82-2.55-41.44-11.04-14.63-4.24-30.07 4.24-48.76 8.49-18.69 21.22-28.44 21.22-28.44l18.67-3.25c3.39 4.88 7.64 4.88 22.07 9.75 14.44 4.88 21.62 12.43 21.62 12.43l-3.79 86.72z"/><path d="M237.37 200.03s-2.05-11.96 10.07-14.27c12.73-2.44 23.77 16.26 16.98 41.44-6.79 25.19 0 29.26 0 29.26s-16.75-.28-18.67-34.94l-8.38-21.48z" style="fill:url(#linear-gradient-4);stroke-width:0"/><path d="m236.28 200.91 2.67-2.15s10.18 4.06 11.04 21.13l-5.94 3.25-7.77-22.23z" style="fill:#fff6ee;stroke-width:0"/><path d="M198.21 245.9s-11.05-18-5.94-31.69c4.24-11.38 12.73-4.88 12.73-4.88s3.39-12.19 20.37-12.19 22.92 20.32 21.22 32.51c-2.25 16.19-12.73 27.63-11.04 34.94 1.7 7.32-37.35-18.69-37.35-18.69z" style="fill:url(#linear-gradient-5);stroke-width:0"/><path d="M233.86 244.27s0 22.76 10.18 30.07c0 0-2.55 14.63-19.52 14.63s-13.58-6.5-9.34-11.38c4.24-4.88 2.55-8.13 2.55-13 0-4.87 16.13-20.32 16.13-20.32z" style="fill:url(#linear-gradient-6);stroke-width:0"/><path d="M196.51 236.14s2.07 26.71 13.58 33.32c8.49 4.88 22.92-16.26 23.77-24.38 0 0 5.94-.81 5.09-8.94-.85-8.13-7.64-5.69-8.49 6.5 0 0-4.24-3.25-5.09-9.75 0 0-14.43-2.44-17.83-13.82 0 0-1.69 12.19-11.03 17.07z" style="fill:url(#linear-gradient-7);stroke-width:0"/><path d="M295.82 352.35s-2.33 26.98-5.09 30.07c-5.09 5.69-76.39 28.44-76.39 28.44s-3.39 6.5-10.18 8.13c-6.79 1.63-13.58 12.19-16.98 10.57-3.39-1.63-2.55-5.69-1.7-13 .85-7.32 6.79-13 11.04-13.82 4.24-.81 11.04-1.63 11.04-1.63s52.62-30.07 58.57-34.13c0 0 1.7-5.69 1.7-13l28.01-1.63z" style="fill:url(#linear-gradient-8);stroke-width:0"/><path class="cls-26" d="M297.52 352.35s-.85-55.26-17.83-62.58-16.98 20.32-15.28 33.32c1.27 9.71.85 30.88.85 30.88s14.43 7.32 32.26-1.62z"/><path d="M543.67 278.18s-.85-23.57-1.7-47.95c-.85-24.38-4.24-32.51-15.28-30.88 0 0-3.39-15.44-25.46-5.69s-20.41 43.88-21.22 59.32c-.85 16.26-5.09 30.07-5.09 30.07s52.63 24.39 68.75-4.87z" style="fill:url(#linear-gradient-9);stroke-width:0"/><path d="M561.91 440H457.62c1.54-12.1 3.75-20.3 5.75-25.7 1.72-4.7 3.3-7.28 4.14-8.46.38-.56.62-.8.62-.8l2.85-.21 82.03-6.3c.45.97.88 1.96 1.29 2.97 4.95 12.3 6.88 27.51 7.62 38.5z" style="fill:url(#linear-gradient-10);stroke-width:0"/><path d="M588.99 309.36s28.53-30.37 40.41-49.06c0 0 3.39-15.44 6.79-18.69 3.39-3.25 2.55 9.75 2.55 9.75s5.09-8.13 7.64-14.63 9.34-.81 10.18 10.57c.85 11.38-16.98 20.32-16.98 20.32s-22.32 43.57-35.35 61.2l-15.24-19.45z" style="fill:url(#linear-gradient-11);stroke-width:0"/><path class="cls-26" d="M606.48 326.13s-11.88 15.44-22.07 16.26c-4.22.33-9.89-1.7-15.09-4.19-6.2-2.98-11.74-6.62-13.32-7.69-.29-.21-.45-.31-.45-.31s-.11 1.17-.54 3.39c-.75 3.93-2.46 11.14-6.25 20.99-5.94 15.44 0 27.63 4.24 36.57 4.24 8.94 5.09 13-21.22 21.13-26.31 8.13-61.11-3.25-65.36-7.32-4.24-4.06 5.94-31.69 7.64-40.63.91-4.77-1.09-13.94-3.15-21.45-1.8-6.57-3.64-11.87-3.64-11.87s-2.76 2.89-6.16 6.57c-5.44 5.9-12.51 13.86-12.51 15.37 0 2.44 2.55 8.94 2.55 8.94-5.09 4.88-21.22 8.94-21.22 8.94-11.04-13.82-5.94-21.94-.39-34.54 5.56-12.59 24.16-50.79 32.65-56.48 8.49-5.69 19.29-5.94 19.29-5.94 29.47 9.5 46.07 1.88 54.71 1.02 8.64-.86 15.97 2.49 23.61 10.61 7.64 8.13 21.22 26.82 23.77 26.82s7.64-4.88 7.64-4.88c11.03 6.5 15.27 18.68 15.27 18.68z"/><path d="M496.99 239.98s1.7 18.69-3.39 26.01-13.58 8.13-13.58 8.13 5.09 2.44 16.98 9.75c11.88 7.32 30.56 13 43.29-8.94 0 0-16.13.81-20.37-6.5-5.36-9.24-1.7-16.26-1.7-16.26L497 239.98z" style="fill:url(#linear-gradient-12);stroke-width:0"/><path d="M533.06 225.28s0 33.3-10.71 35.01c-4.58.73-12.64-1.84-17.73-6.49-5.87-5.37-8.49-13-8.49-13s-4.08-3.48-5.94-7.32c-1.32-2.71-.12-5.23.85-5.69 6.81-3.26 7.23 8.59 7.23 8.59s6.24-5.98 5.35-15.37c0 0 13.38-.85 17.84-11.96 0 0 3.57 12.8 11.6 16.22z" style="fill:url(#linear-gradient-13);stroke-width:0"/><path class="cls-25" d="M556.01 330.5c.42-3.07.11-8.72-3.85-18.19-6.79-16.26-1.7-23.57-1.7-23.57s-.85 12.19 10.18 26.01c6.61 8.28 8.34 17.43 8.67 23.44-6.2-2.98-11.73-6.63-13.31-7.69zM480.01 314.75l-9.09 28.13c-1.8-6.57-3.64-11.87-3.64-11.87s-2.76 2.89-6.16 6.57l18.9-22.83z"/><path d="M428.93 369.53s17.13 23.24 26.47 34.62c9.34 11.38 12.73 17.88 17.83 17.07 5.09-.81 8.49-4.88 10.18-5.69 1.7-.81 11.04 7.32 15.28 7.32s-.85-16.26-5.94-18.69c-5.09-2.44-18.67 7.32-18.67 7.32l-23.46-51.02s-7.4 10.23-21.68 9.08z" style="fill:url(#linear-gradient-14);stroke-width:0"/><path d="M313.77 407.83s-2.53 9.7-1.69 24.25h50.66s.84-9.7 0-24.25h-48.97z" style="fill:url(#linear-gradient-15);stroke-width:0"/><path d="M407.01 403.28s2.75 14.63 1.9 29.26h-50.92s-.85-9.75 0-24.38l49.02-4.88z" style="fill:url(#linear-gradient-16);stroke-width:0"/><path d="M352.69 247.88s-8.49 4.06-19.52 8.13c-11.04 4.06-28.86 12.19-33.95 24.38-5.09 12.19-5.09 42.26-7.64 47.13-2.55 4.88-4.24 6.5-1.7 8.94 2.55 2.44-5.94 10.16 2.97 14.02 8.91 3.86 15.7 4.67 15.7 4.67l9.34-2.44s.85 14.63-1.7 26.82-6.79 23.57-2.55 28.44 22.07 7.32 52.62 6.5c30.56-.81 44.14-9.75 41.59-16.26-2.55-6.5-6.79-34.13-5.94-60.14l25.38 1.37s5.18-6.24 2.63-10.31c-2.55-4.06 3.39-4.06 1.7-8.94-1.7-4.88-4.24-11.38-5.94-23.57-1.7-12.19-6.79-28.44-16.98-34.13-10.18-5.69-36.47-11.38-39.03-14.63-2.56-3.25-16.99 0-16.99 0z" style="fill:#ffcc07;stroke-width:0"/><path class="cls-26" d="m319.59 322.64-2.55-35.76s-5.94 39.01-5.09 46.32 93.37-2.44 93.37-2.44 0-28.44-4.24-43.88l-3.39 39.01-78.09-3.25z"/><path d="M321.68 329.48s-20.76 2.11-27.55 15.11c-6.79 13 12.73 17.07 38.2 6.5 25.46-10.57 35.65-17.07 44.99-18.69 9.34-1.63-21.22-5.69-21.22-5.69s-17.05-.15-34.41 2.77z" style="fill:url(#linear-gradient-17);stroke-width:0"/><path d="M344.26 240.53s5.89 6.53 5.04 17.91c-.85 11.38 13.58 16.26 22.07 10.57 8.49-5.69 1.7-10.57 2.55-30.07l-29.66 1.59z" style="fill:url(#linear-gradient-18);stroke-width:0"/><path d="M340.7 226.68s-.64-3.04-5.4-2.5c-4.75.55 1.68 14.41 10.33 14.78l30.42 1.32s9.15-4.88 7.97-13.23c-1.18-8.35-11.87.99-11.87.99l-31.45-1.36z" style="fill:url(#linear-gradient-19);stroke-width:0"/><path d="M338.56 222.06s6.3 33.47 22.02 34.15c15.73.68 19.76-34.6 19.76-34.6l-6.37-15.36-4.47-5.47-23.59-1.02-3.47 6.64-3.89 15.67z" style="fill:url(#linear-gradient-20);stroke-width:0"/><path d="M346.28 208.82s-3.18 17.22-7.04 15.54c-3.86-1.67-7.9-16.19-7.69-20.7s1.96-8.21 7.32-4.96c0 0-5.26-5.51-1.08-10.61s10.54-6.33 23.06-4.28c12.51 2.05 23.06-4.28 25.41-4.18 2.36.1-2 8.97-2 8.97s5.72-4.28 7.29-4.21-.64 13.55-5.54 17.11c0 0-2.21 24.24-6.57 22.35-3.86-1.67-7.08-16.9-7.08-16.9s-8.14 5.67-26.09 1.88z" style="fill:url(#linear-gradient-21);stroke-width:0"/><path d="M428.23 335.65c1.37 7.24-14.43 13.82-41.59 4.88-27.16-8.94-51.78-16.26-51.78-16.26s-5.94 4.88-21.22 6.5c0 0 0-11.38 6.79-14.63s14.43-1.63 18.67-1.63 44.99 1.63 60.27 4.88c15.28 3.25 27.17 7.32 28.86 16.26z" style="fill:url(#linear-gradient-22);stroke-width:0"/><g class="cls-32"><path class="cls-29" d="M658.63 440H72.56c-2.31 0-4.18-1.77-4.18-3.96s1.87-3.96 4.18-3.96h586.07c2.31 0 4.18 1.77 4.18 3.96s-1.87 3.96-4.18 3.96z"/></g></svg>