<svg xmlns="http://www.w3.org/2000/svg" xmlns:xlink="http://www.w3.org/1999/xlink" version="1.1" id="Layer_1" x="0px" y="0px" viewBox="0 0 111 28" style="enable-background:new 0 0 111 28;" xml:space="preserve" width="140"  height="50" >
<style type="text/css">
	.st0{fill-rule:evenodd;clip-rule:evenodd;fill:#FFFFFF;}
</style>
<g>
	<path class="st0" d="M1.23,5.51C1.23,3.3,1,1.63,0,0.33h8.24l13.21,15.2V5.51c0-2.26-0.35-3.99-1.15-5.19h8.96   c-0.87,1.35-1.15,3-1.15,5.19v18.22c0,1.34,0.11,2.65,0.3,3.84h-6.44L8.24,10.24v12.19c0,2.1,0.24,3.75,1.11,5.14H0.08   c0.87-1.31,1.15-2.97,1.15-5.14V5.51z M34.81,22.43V5.47c0-2.36-0.35-4.08-1.17-5.14l9.93-0.04c1.72,0,11.26-0.91,11.26,8.33   c0,5.92-3.97,9.67-10.56,9.67c-0.57,0-1.28-0.04-1.98-0.09v4.23c0,2.3,0.43,4.04,1.17,5.14h-9.8   C34.5,26.31,34.81,24.64,34.81,22.43z M42.29,12.78c0.54,0.09,1.11,0.13,1.56,0.13c2.78,0,3.86-2.19,3.86-3.77   c0-2.06-1.04-3.56-3.62-3.56c-0.46,0-1.11,0.04-1.8,0.13V12.78z M74.04,21.43H66.3V6.88c0-1.93-0.11-3.95,1.19-6.55h-9.85   c1.3,2.54,1.2,4.58,1.2,6.55v16.46c0,1.47-0.26,2.99-1.13,4.4l17.24-0.02c1.3,0,1.88-0.2,2.12-1.5l0.74-5.34   C76.17,21.41,74.95,21.43,74.04,21.43z M111,0.28v27.33H83.67V0.28H111z M106.45,9.46h-0.24V9.07h-0.91v0.74   c0,0.17-0.32,0.06-0.38-0.02L104.93,9c-0.13-0.01-0.24-0.07-0.37-0.17c-0.11-0.11-0.22-0.35,0.13-0.43   c0.15,0.02,0.41,0.5,0.85,0.37c0.3-0.06,0.72-0.37,0.68-0.67c-0.02-0.18-0.27-0.52-0.27-0.52s0.18-0.11,0.07-0.3   c-0.01-0.01-1.4-2.38-2.13-2.88c-0.54-0.37-1.57,0.01-2.13,0.25c-0.04-0.41-0.02-0.68-0.4-1.04c0,0-0.25-0.14-0.29-0.14   c-0.3-0.06-0.59,0.05-0.72,0.28c0,0-0.17,0.26-0.04,0.53c0.05,0.08-0.02,0.15-0.02,0.15s-0.22,0.22-0.28,0.22   c-0.39-0.09-0.72-0.37-0.78-0.67c0,0,0.29-0.21,0.39-0.43c0.1-0.22,0.08-0.41,0.08-0.65c-0.07-0.72-0.67-1.17-1.28-1.46   c-0.33-0.15-0.8-0.2-1.12-0.21c-0.32,0.01-0.8,0.06-1.12,0.21c-0.61,0.28-1.22,0.74-1.28,1.46c0,0.24-0.02,0.43,0.08,0.65   c0.1,0.22,0.39,0.43,0.39,0.43c-0.07,0.31-0.39,0.59-0.78,0.67c-0.07,0-0.28-0.22-0.28-0.22s-0.07-0.07-0.02-0.15   c0.13-0.26-0.03-0.53-0.03-0.53c-0.13-0.24-0.42-0.35-0.73-0.28c-0.04,0-0.29,0.14-0.29,0.14c-0.38,0.35-0.36,0.62-0.4,1.04   c-0.56-0.24-1.59-0.62-2.13-0.25c-0.73,0.49-2.12,2.87-2.13,2.88c-0.11,0.19,0.07,0.3,0.07,0.3S88.4,7.91,88.38,8.1   c-0.03,0.3,0.38,0.6,0.68,0.67c0.44,0.13,0.7-0.35,0.85-0.37c0.35,0.09,0.24,0.33,0.13,0.43C89.91,8.94,89.8,8.99,89.68,9   l0.01,0.79c-0.05,0.08-0.37,0.19-0.37,0.02V9.07H88.4v0.39h-0.24v4.32c0,0.63,1.19,0.82,1.57,0.56l-0.9,1.82   c-0.37,0.8,0.23,1.76,0.71,2.49c0.5,0.78,1.13,2.04,1.72,2.1l0.39,0.57c0,0,0.02,0.09-0.01,0.13c-0.03,0.04-0.73,0.39-0.6,0.85   c0.27,0.94,1.42,1.98,2.1,2.08c0.65,0.11,0.99-0.05,1.29-0.46c0.32-0.44,0.49-0.74,0.68-1.13c0,0,0.12,0.77,0.44,1.19   c0.18,0.23,0.49,0.64,0.49,0.64c0,0.52,0.43,0.78,0.43,0.78c0,0.4,0.34,0.89,0.82,0.89c0.47,0,0.81-0.49,0.81-0.89   c0,0,0.43-0.26,0.43-0.78c0,0,0.31-0.41,0.49-0.64c0.32-0.42,0.44-1.19,0.44-1.19c0.2,0.38,0.37,0.69,0.69,1.13   c0.3,0.41,0.64,0.57,1.29,0.46c0.67-0.11,1.82-1.15,2.1-2.08c0.13-0.46-0.57-0.81-0.59-0.85c-0.03-0.04-0.01-0.13-0.01-0.13   l0.4-0.57c0.58-0.06,1.22-1.32,1.72-2.1c0.48-0.74,1.08-1.69,0.72-2.49l-0.9-1.82c0.38,0.26,1.57,0.07,1.58-0.56V9.46z    M97.17,22.26l-0.28-0.97h0.24l0.24,0.86l0.24-0.86h0.24l-0.29,1c0.07,0.06,0.11,0.15,0.11,0.24c0,0.18-0.15,0.33-0.33,0.33   c-0.18,0-0.32-0.14-0.32-0.33C97.01,22.41,97.07,22.31,97.17,22.26z M97.25,22.54c0,0.05,0.04,0.09,0.09,0.09   c0.05,0,0.09-0.04,0.09-0.09c0-0.05-0.04-0.08-0.09-0.08C97.29,22.45,97.25,22.49,97.25,22.54z M90.31,10.03v-0.8   c0.63-0.17,0.57-0.5,0.57-0.5V7.39h-0.19c0,0,0.01,0.95,0.01,1.33c0,0.22-0.57,0.38-0.57,0.38v0.91c0,0.26-0.39,0.25-0.53,0.25   c-0.14,0-0.19,0.06-0.19,0.06C90.38,10.53,90.31,10.03,90.31,10.03z M90.3,12.23c0.04,0,0.08-0.04,0.08-0.08v-0.82   c0-0.04-0.04-0.08-0.08-0.08c-0.04,0-0.08,0.04-0.08,0.08v0.82C90.22,12.19,90.25,12.23,90.3,12.23z M94.12,5.1   c0,0-0.52-0.55-0.4-0.7c0.01-0.01,0.03,0,0.04,0c0.18-0.01,0.32-0.17,0.31-0.36c-0.01-0.19-0.15-0.35-0.33-0.34   c-0.18,0-0.3,0.17-0.31,0.36C93.42,4.15,93.37,4.74,94.12,5.1z M92.1,22.54c-0.01-0.01,0.33-0.42-0.08-0.64   c-0.2-0.11-0.47-0.08-0.58,0.1c-0.11,0.18-0.06,0.51,0.11,0.65c0.08,0.07,0.73,0.51,1.63-0.36C93.19,22.28,92.23,22.72,92.1,22.54z    M91.93,20.36c-0.13,0.05-0.2,0.19-0.15,0.32c0.04,0.13,0.21,0.18,0.35,0.15c0.06-0.02,0.43-0.12,0.5-0.76c0,0-0.22,0.41-0.37,0.46   c-0.01,0,0-0.02-0.01-0.03C92.2,20.38,92.06,20.31,91.93,20.36z M94.79,4.91l-0.57-0.44c0,0-0.07-0.06-0.08,0.03   C94.12,4.62,94.35,4.9,94.79,4.91z M88.73,8.06c-0.01,0.12,0.33,0.57,0.81,0.38l-0.76-0.43C88.78,8.01,88.73,7.97,88.73,8.06z    M91.71,5.72c0.01-0.03,0.01-0.06,0.01-0.1c0-0.19-0.14-0.35-0.31-0.35c-0.17,0-0.32,0.16-0.32,0.35c0,0.06,0.01,0.1,0.03,0.15   c0,0-0.35-0.01-0.34-0.41c0.01-0.43,0.52-0.56,1.41-0.41l1.09,0.21c0,0-0.79-0.36-1.26-0.48c-0.46-0.12-1-0.28-1.4,0.15   C89.86,5.66,91.37,6.64,91.71,5.72z M90.02,7.78l0.17-0.25c0.15,0.06,0.23,0.06,0.23,0.06l0.46-0.67c0,0-0.08,0-0.23-0.06   l0.16-0.24c0.16,0.06,0.23,0.06,0.23,0.06l0.21-0.3c0,0-0.2,0-0.62-0.27c-0.43-0.28-0.43-0.45-0.43-0.45l-0.2,0.29   c0,0,0,0.18,0.42,0.45c0.04,0.02,0.07,0.04,0.11,0.06l-0.16,0.24c-0.03-0.02-0.07-0.04-0.11-0.07c-0.42-0.27-0.42-0.45-0.42-0.45   l-0.46,0.67c0,0,0,0.18,0.42,0.45c0.04,0.02,0.07,0.05,0.11,0.06l-0.17,0.25c-0.03-0.02-0.06-0.04-0.1-0.06   C89.2,7.3,89.2,7.12,89.2,7.12l-0.21,0.3c0,0,0,0.18,0.43,0.45c0.42,0.27,0.62,0.27,0.62,0.27l0.21-0.3   C90.25,7.85,90.17,7.85,90.02,7.78z M92.17,19.53l-0.18-0.32c0,0-0.03,0.07-0.16,0.18l-0.15-0.26c0.12-0.11,0.15-0.18,0.15-0.18   l-0.4-0.71c0,0-0.03,0.07-0.16,0.18l-0.14-0.25c0.13-0.11,0.16-0.18,0.16-0.18l-0.17-0.31c0,0-0.09,0.18-0.51,0.44   c-0.44,0.26-0.59,0.19-0.59,0.19l0.17,0.31c0,0,0.16,0.08,0.59-0.18c0.03-0.03,0.07-0.04,0.1-0.07l0.15,0.25   c-0.03,0.02-0.07,0.04-0.11,0.07c-0.43,0.26-0.59,0.18-0.59,0.18l0.4,0.71c0,0,0.16,0.08,0.59-0.18c0.04-0.02,0.07-0.04,0.11-0.07   l0.15,0.26c-0.03,0.02-0.06,0.04-0.1,0.06c-0.44,0.26-0.6,0.19-0.6,0.19l0.18,0.32c0,0,0.16,0.08,0.59-0.19   C92.09,19.71,92.17,19.53,92.17,19.53z M97.3,4.67c0.1,0,0.18-0.08,0.18-0.18c0-0.1-0.08-0.18-0.18-0.18   c-0.1,0-0.18,0.08-0.18,0.18C97.12,4.59,97.2,4.67,97.3,4.67z M89.16,13.75c-0.25-0.2-0.2-0.61-0.2-0.61V9.22h-0.4v4   c0,1.09,1.08,0.82,1.24,0.65C89.79,13.87,89.35,13.91,89.16,13.75z M90.94,17.42c0.04-0.19,0.07-0.75-0.4-0.65   c-0.42,0.09-0.27,0.62-0.12,0.63c0,0-0.34,0.45-0.74,0.03c-0.45-0.47,0.06-0.86,0.17-0.99c0.11-0.12,0.31-0.35,0.31-0.54   c0,0-0.18,0.02-0.23-0.06c-0.05-0.08,0.17-0.21,0.31-0.34c0.14-0.12,0.43-0.38,0.43-0.58c0-0.08-0.22-0.03-0.23-0.11   c-0.02-0.08,0.26-1-0.06-1.05c0,0,0,0.62-0.58,1.51c-0.59,0.89-0.85,1.93-0.11,2.53C90,18.07,90.83,17.89,90.94,17.42z    M96.52,24.73c-0.06,0.04,0.05,0.45,0.16,0.42c0.08-0.02,0.05-0.44,0.05-0.44S96.65,24.64,96.52,24.73z M103.9,8.72   c0-0.37,0.01-1.33,0.01-1.33h-0.19v1.33c0,0-0.05,0.33,0.57,0.5v0.8c0,0-0.07,0.5,0.91,0.3c0,0-0.05-0.06-0.19-0.06   c-0.14,0-0.53,0.01-0.53-0.25V9.1C104.48,9.1,103.9,8.94,103.9,8.72z M104.31,12.23c0.04,0,0.08-0.04,0.08-0.08v-0.82   c0-0.04-0.04-0.08-0.08-0.08c-0.05,0-0.08,0.04-0.08,0.08v0.82C104.23,12.19,104.26,12.23,104.31,12.23z M101.17,4.06   c-0.02-0.19-0.13-0.36-0.31-0.36c-0.18,0-0.33,0.15-0.33,0.34c-0.01,0.19,0.13,0.35,0.32,0.36c0.01,0,0.03-0.01,0.04,0   c0.12,0.15-0.4,0.7-0.4,0.7C101.24,4.74,101.19,4.15,101.17,4.06z M102.59,21.89c-0.41,0.22-0.07,0.63-0.08,0.64   c-0.13,0.18-1.09-0.26-1.09-0.26c0.9,0.88,1.55,0.43,1.63,0.36c0.18-0.14,0.22-0.47,0.12-0.65   C103.05,21.81,102.79,21.79,102.59,21.89z M101.98,20.07c0.06,0.64,0.44,0.74,0.5,0.76c0.13,0.03,0.3-0.02,0.35-0.15   c0.05-0.13-0.02-0.28-0.15-0.32c-0.13-0.05-0.27,0.01-0.31,0.14c0,0.01,0,0.03-0.01,0.03C102.2,20.49,101.98,20.07,101.98,20.07z    M100.47,4.5c-0.01-0.08-0.08-0.03-0.08-0.03l-0.57,0.44C100.25,4.9,100.48,4.62,100.47,4.5z M105.88,8.06   c-0.01-0.08-0.05-0.05-0.05-0.05l-0.76,0.43C105.55,8.63,105.89,8.18,105.88,8.06z M103.81,5.37c0.01,0.4-0.34,0.41-0.34,0.41   c0.02-0.05,0.03-0.1,0.03-0.15c0-0.19-0.14-0.35-0.31-0.35c-0.17,0-0.31,0.16-0.31,0.35c0,0.04,0,0.07,0.01,0.1   c0.34,0.91,1.85-0.06,1.08-0.89c-0.4-0.43-0.94-0.27-1.4-0.15c-0.46,0.12-1.25,0.48-1.25,0.48l1.09-0.21   C103.29,4.8,103.8,4.94,103.81,5.37z M103.36,6.4l0.2,0.3c0,0,0.08,0,0.23-0.06l0.16,0.24c-0.16,0.07-0.23,0.06-0.23,0.06   l0.46,0.67c0,0,0.08,0,0.23-0.06l0.17,0.25c-0.16,0.06-0.23,0.06-0.23,0.06l0.21,0.3c0,0,0.2,0,0.62-0.27   c0.43-0.27,0.43-0.45,0.43-0.45l-0.21-0.3c0,0,0,0.18-0.43,0.45c-0.04,0.02-0.07,0.04-0.1,0.06l-0.17-0.25   c0.03-0.02,0.07-0.04,0.1-0.06c0.43-0.28,0.42-0.45,0.42-0.45l-0.46-0.67c0,0,0,0.18-0.43,0.45c-0.04,0.02-0.07,0.05-0.11,0.07   l-0.16-0.24c0.03-0.02,0.07-0.04,0.1-0.06c0.43-0.28,0.43-0.45,0.43-0.45l-0.2-0.29c0,0,0,0.18-0.43,0.45   C103.56,6.4,103.36,6.4,103.36,6.4z M103.99,18.12c-0.43-0.26-0.52-0.44-0.52-0.44l-0.17,0.31c0,0,0.03,0.07,0.16,0.18l-0.14,0.25   c-0.13-0.11-0.16-0.18-0.16-0.18l-0.39,0.71c0,0,0.03,0.06,0.15,0.18l-0.15,0.26c-0.13-0.11-0.16-0.18-0.16-0.18l-0.18,0.32   c0,0,0.08,0.18,0.51,0.44c0.44,0.27,0.6,0.19,0.6,0.19l0.18-0.32c0,0-0.16,0.08-0.59-0.19c-0.03-0.02-0.07-0.04-0.1-0.06l0.15-0.26   c0.03,0.02,0.07,0.04,0.1,0.07c0.43,0.26,0.59,0.18,0.59,0.18l0.39-0.71c0,0-0.16,0.08-0.59-0.18c-0.04-0.02-0.07-0.05-0.11-0.07   l0.15-0.25c0.03,0.02,0.07,0.04,0.1,0.07c0.43,0.26,0.59,0.18,0.59,0.18l0.17-0.31C104.59,18.3,104.43,18.38,103.99,18.12z    M95.79,3.51c0.11-0.04,0.18-0.3-0.08-0.34c-0.23-0.03-0.04-1.01,0.91-1.41c0.12-0.05,0.46-0.11,0.69-0.11   c0.22,0,0.56,0.06,0.68,0.11c0.95,0.4,1.14,1.37,0.91,1.41c-0.26,0.04-0.19,0.3-0.08,0.34c0.12,0.05,0.57,0.01,0.5-0.51   c-0.2-1.66-2.01-1.62-2.01-1.62s-1.81-0.04-2.01,1.62C95.23,3.52,95.67,3.56,95.79,3.51z M97.2,3.46V3.03   C97.02,3,96.88,2.91,96.88,2.8c0-0.13,0.19-0.24,0.43-0.24c0.23,0,0.42,0.11,0.42,0.24c0,0.11-0.14,0.2-0.32,0.22v0.44   c0,0,0.09,0.17,0.3,0.24c0,0,0.27,1.03,0.81,1.18c0,0,0.05,0.08,0.12,0.13c0.11,0.08,0.21,0.16,0.19,0.24   c-0.02,0.11-0.1,0.06-0.19,0.03c0,0-0.66-0.18-1.33-0.18c-0.68,0-1.33,0.18-1.33,0.18c-0.09,0.03-0.17,0.08-0.19-0.03   c-0.02-0.08,0.08-0.16,0.19-0.24c0.07-0.06,0.12-0.13,0.12-0.13c0.53-0.15,0.8-1.18,0.8-1.18C97.11,3.64,97.2,3.46,97.2,3.46z    M96.89,4.49c0,0.23,0.19,0.41,0.42,0.41c0.23,0,0.41-0.18,0.41-0.41c0-0.23-0.18-0.42-0.41-0.42C97.07,4.08,96.89,4.26,96.89,4.49   z M105.65,13.14c0,0,0.05,0.41-0.2,0.61c-0.2,0.16-0.63,0.12-0.63,0.12c0.16,0.17,1.24,0.44,1.24-0.65v-4h-0.4V13.14z    M104.24,13.77c-0.33,0.05-0.05,0.97-0.06,1.05c-0.02,0.08-0.23,0.03-0.23,0.11c0,0.2,0.29,0.46,0.43,0.58   c0.14,0.12,0.35,0.26,0.31,0.34c-0.05,0.08-0.23,0.06-0.23,0.06c0,0.19,0.2,0.42,0.31,0.54c0.11,0.12,0.61,0.51,0.17,0.99   c-0.4,0.42-0.74-0.03-0.74-0.03c0.15-0.01,0.29-0.54-0.13-0.63c-0.47-0.1-0.44,0.45-0.4,0.65c0.11,0.47,0.94,0.64,1.26,0.39   c0.74-0.6,0.48-1.64-0.11-2.53C104.24,14.38,104.24,13.77,104.24,13.77z M102.13,23.27c0,0-0.43,0.51-0.77,0.6   c-0.34,0.09-0.83,0.27-1.29-0.81c-0.18-0.43-0.3-1.38-0.3-1.38h-1.05c0,0,0.07,1.12-0.39,1.46c0,0-0.21,0.11-0.37,0.08   c-0.16-0.03-0.32-0.09-0.34-0.32c0,0,0.23-0.06,0.31-0.36c0.06-0.23,0.07-0.5,0.08-0.62c0.01-0.12,0.07-0.54,0.28-0.56   c0.2-0.02,0.58-0.13,0.58-0.13c2.64-0.95,4.58-4.22,4.58-8.11c0-3.16-1.32-6.19-3.74-7.45c0,0-0.49-0.63-0.83-0.85   c-0.33-0.22-0.81-0.79-0.76-1.22c0,0-0.25-0.2-0.26-0.38c-0.02-0.3,0.2-0.31,0.2-0.44c0-0.13-0.24-0.48-0.76-0.48   c-0.53,0-0.76,0.35-0.76,0.48c0,0.13,0.22,0.14,0.2,0.44c-0.01,0.18-0.26,0.38-0.26,0.38c0.04,0.42-0.43,1-0.77,1.22   c-0.33,0.22-0.83,0.85-0.83,0.85c-2.41,1.26-3.74,4.29-3.74,7.45c0,3.89,1.94,7.16,4.58,8.11c0,0,0.38,0.11,0.58,0.13   c0.21,0.02,0.27,0.44,0.29,0.56c0.01,0.12,0.02,0.39,0.08,0.62c0.08,0.3,0.31,0.36,0.31,0.36c-0.03,0.23-0.18,0.29-0.34,0.32   c-0.16,0.03-0.37-0.08-0.37-0.08c-0.46-0.34-0.39-1.46-0.39-1.46h-1.05c0,0-0.12,0.94-0.3,1.38c-0.46,1.09-0.95,0.9-1.29,0.81   c-0.34-0.09-0.77-0.6-0.77-0.6s0.97-0.25,1.2-0.96c0.21-0.63-0.03-1.47-0.04-1.52c-0.01-0.05-0.12-0.06-0.12-0.06l-0.36,0.72   c0,0-0.2,0.07-0.41-0.02c-0.31-0.13-0.25-0.3-0.25-0.3c0.71-0.61,0.47-1.06,0.41-1.23c-0.06-0.17-0.44-0.93-0.85-1.64   c-0.4-0.72-1.21-1.71-1.21-1.71s-0.13,0.01-0.31,0c-0.18-0.01-0.1-0.19-0.1-0.19s0.23-0.48,0.52-1.12   c0.28-0.63-0.17-0.69-0.17-0.69c0.08-0.47,0.02-0.71-0.13-1.1c-0.15-0.38-0.52-0.36-0.63-0.36c-0.11,0-0.12,0.18-0.12,0.18   s-0.1,0.02-0.19,0c-0.09-0.02-0.13-0.42-0.13-0.42v-2.19c0.98,0.11,1.02-0.48,1.02-0.48V9.38c0.69-0.16,0.56-0.61,0.56-0.61   s0,0,0-0.99c0-1.06,0.29-1.18,0.56-1.44c0.59-0.57,0.35-1.07,0.35-1.07c0.2-0.03,0.68,0.04,1.04,0.11   c0.36,0.07,0.95,0.12,1.15,0.06c0.33-0.1,0.65-0.33,0.85-0.47c0.31-0.22,0.5-0.55,0.54-0.67c0.04-0.11,0.13-0.33,0.18-0.37   C95.86,3.9,96,3.9,96.06,3.87c0.05-0.03,0.18-0.2,0.22-0.3c0.04-0.1,0.12-0.32-0.05-0.42C96,3.01,96.08,2.85,96.08,2.85   c0.28-0.92,1.23-0.9,1.23-0.9s0.94-0.02,1.23,0.9c0,0,0.07,0.16-0.15,0.29c-0.17,0.1-0.09,0.32-0.05,0.42   c0.04,0.1,0.17,0.27,0.22,0.3c0.05,0.03,0.19,0.03,0.24,0.07c0.05,0.04,0.14,0.26,0.18,0.37c0.04,0.11,0.24,0.44,0.54,0.67   c0.2,0.14,0.52,0.37,0.85,0.47c0.2,0.06,0.78,0.01,1.15-0.06c0.36-0.07,0.83-0.14,1.04-0.11c0,0-0.24,0.5,0.35,1.07   c0.27,0.26,0.56,0.38,0.56,1.44c0,0.99,0,0.99,0,0.99s-0.13,0.45,0.56,0.61v0.79c0,0,0.04,0.6,1.01,0.48v2.19   c0,0-0.04,0.4-0.13,0.42c-0.09,0.02-0.19,0-0.19,0s-0.01-0.18-0.12-0.18c-0.11,0-0.48-0.02-0.63,0.36   c-0.15,0.38-0.21,0.63-0.13,1.1c0,0-0.45,0.06-0.17,0.69c0.29,0.64,0.51,1.12,0.51,1.12s0.08,0.18-0.1,0.19   c-0.18,0.01-0.31,0-0.31,0s-0.8,0.99-1.21,1.71c-0.4,0.72-0.78,1.47-0.85,1.64c-0.06,0.17-0.29,0.61,0.41,1.23   c0,0,0.06,0.17-0.25,0.3c-0.21,0.09-0.41,0.02-0.41,0.02l-0.37-0.72c0,0-0.11,0.01-0.12,0.06c-0.01,0.05-0.25,0.89-0.04,1.52   C101.17,23.02,102.13,23.27,102.13,23.27z M104.02,12.22c0,0,0.01,0.29,0.29,0.29c0.31,0,0.3-0.3,0.3-0.3v-1.17   c0,0-0.19,0.01-0.59-0.31V12.22z M90.59,10.73c-0.41,0.32-0.6,0.31-0.6,0.31v1.17c0,0-0.01,0.3,0.3,0.3c0.28,0,0.3-0.29,0.3-0.29   V10.73z M97.3,23.28c-1.29,1.5-1.66-1.08-1.66-1.08s0.08,2.84,1.66,2.07c1.58,0.76,1.66-2.07,1.66-2.07S98.59,24.78,97.3,23.28z    M97.87,24.71c0,0-0.03,0.42,0.05,0.44c0.11,0.03,0.22-0.38,0.16-0.42C97.96,24.64,97.87,24.71,97.87,24.71z M97.29,25.39   c-0.12,0-0.22-0.18-0.22-0.39c0-0.21,0.1-0.39,0.22-0.39c0.12,0,0.22,0.17,0.22,0.39C97.51,25.21,97.41,25.39,97.29,25.39z    M97.3,25.06c0.02,0,0.05-0.02,0.05-0.05c0-0.03-0.02-0.05-0.05-0.05c-0.03,0-0.05,0.02-0.05,0.05   C97.25,25.03,97.27,25.06,97.3,25.06z M97.3,25.99c0.17,0,0.38-0.35,0.38-0.35h-0.76C96.92,25.64,97.13,25.99,97.3,25.99z    M97.32,5.38c3.25,0,5.89,3.49,5.89,7.79c0,4.29-2.64,7.78-5.89,7.78c-3.25,0-5.9-3.49-5.9-7.78C91.42,8.88,94.07,5.38,97.32,5.38z    M91.59,13.17c0,4.2,2.57,7.62,5.73,7.62c3.16,0,5.73-3.42,5.73-7.62c0-4.2-2.57-7.62-5.73-7.62C94.16,5.55,91.59,8.97,91.59,13.17   z M91.94,13.46h5.68V6.01c2.85,0.19,5.12,3.33,5.12,7.16c0,3.96-2.42,7.16-5.41,7.16C94.43,20.33,92.06,17.28,91.94,13.46z    M93.99,17.99c0.88,1.08,2.06,1.74,3.36,1.74c2.73,0,4.95-2.94,4.95-6.56c0-2.82-1.34-5.22-3.22-6.15c1.72,1.29,2.93,3.04,2.93,5.7   C102,16.15,99.07,21.5,93.99,17.99z M91.93,13.16c0-3.96,2.41-7.16,5.4-7.16l-0.01,7.15L91.93,13.16z M93.95,7.71l0.09,0.02   l-0.03,0.05l0.1,0l0.04,0.05l0.05-0.02l0.05,0.1l0.03-0.01l0.02,0.07l0.05-0.02c0,0,0.24,0.19,0.28,0.2   c0.04,0.02,0.09-0.02,0.09-0.02l-0.01,0.15c0,0-0.01,0.03-0.02,0.06c-0.01,0.03-0.03,0.11-0.03,0.11s-0.05,0.03-0.05,0.06   l-0.07,0.02c0,0-0.08,0.02-0.1,0.04c-0.02,0.03-0.07,0.07-0.03,0.14c0.01,0.02,0.07,0,0.07,0s0.02,0.03,0.05,0.04   c0,0,0.02-0.02,0.03-0.04c0.01-0.02,0.08,0.05,0.08,0.05l0.07-0.02l0.01-0.13l0.04,0.06c0,0,0.04-0.11,0.04-0.14l0.03,0.03   l0.02-0.06l0.03-0.02l0.01-0.07l0.08-0.03l0.07-0.14c0,0,0.12,0.03,0.14,0.04c0.03,0.01,0.13,0.04,0.16,0.03   c0.04-0.01,0.16,0.01,0.17,0L95.5,8.24c0,0,0.07,0,0.18-0.04c0.11-0.03,0.17-0.11,0.22-0.11c0.04-0.01,0.12-0.01,0.12-0.01   s0.04,0.1,0.21,0.18c0,0,0.08,0.05,0.05,0.13c-0.01,0.03-0.07,0.03-0.07,0.03s-0.08-0.01-0.11,0.02c-0.06,0.05-0.03,0.14-0.03,0.14   l0.07-0.01l0.05,0.03l0.04-0.02l0.06,0.02c0,0,0.01,0,0.04-0.02c0.03-0.02,0.07-0.09,0.07-0.09l0.04,0.04l0.01-0.11L96.5,8.4   l-0.02-0.09l0.07,0.03V8.2c0,0,0.17,0.05,0.21,0.08c0,0,0.02,0.11,0.02,0.13c-0.01,0.01-0.03,0.01-0.06,0.02   c-0.04,0.01-0.1,0.01-0.12,0.06c-0.02,0.05-0.05,0.1-0.05,0.1s0.08-0.01,0.08,0c0,0.01,0.03,0.05,0.03,0.05l0.07-0.06l0.02,0.04   l0.06-0.05l0.08,0.03c0,0,0.1-0.02,0.1-0.05c0-0.03-0.04-0.14-0.04-0.14l-0.01-0.05l0.08,0.01L96.94,8.3l0.08-0.01l-0.07-0.06   l0.06-0.02c0,0-0.07-0.02-0.17-0.07c-0.1-0.05-0.14-0.29-0.29-0.35c0,0,0.05-0.03,0.12-0.05c0.11-0.03,0.27-0.17-0.04-0.24   c-0.14-0.03-0.51-0.06-0.51-0.12c0-0.07,0.22-0.05,0.28-0.05c0.06,0,0.38,0.02,0.39,0.02c0.01,0,0.04,0.04,0.09,0.05   c0.2,0.05,0.14-0.05,0.14-0.05s0.04-0.01,0.11,0.02C97.2,7.4,97.1,7.32,97.1,7.32s0.05,0,0.09,0.01c0.05,0-0.16-0.16-0.35-0.07   c-0.04,0.02-0.49,0.03-0.6,0.03c-0.08,0-0.21,0.02-0.21,0.09c0.01,0.1,0.21,0.11,0.61,0.19c0.1,0.02,0.03,0.1-0.08,0.1   c-0.11,0.01-0.29-0.09-0.42-0.08c-0.12,0.01-0.38,0-0.54,0.06c-0.01,0.01-0.11,0.06-0.13,0c-0.02-0.06-0.07-0.06-0.07-0.08   c0-0.01,0.09,0,0.09,0l-0.07-0.11l0.06,0.02c0,0-0.05-0.08-0.1-0.13l0.09,0.04c0,0-0.1-0.15-0.18-0.2   c-0.06-0.03-0.24-0.07-0.32-0.05c-0.07,0.02-0.13,0.03-0.13,0.03S94.82,7.2,94.78,7.2c-0.03,0.01-0.09,0.02-0.13,0.04   c-0.04,0.02-0.11,0.02-0.14,0.03c-0.02,0.01-0.04,0.04-0.04,0.08c0,0.04,0.02,0.04,0.02,0.07c0,0.02,0.03,0.03,0.03,0.03l0.05-0.01   l0.06,0c0,0,0.07-0.01,0.1,0.03c0,0-0.02,0.02-0.04,0.02c-0.02,0-0.11-0.01-0.14-0.01c-0.02,0-0.05-0.01-0.06,0.01   c-0.01,0.02-0.03,0.13,0.06,0.18c0.01,0.01-0.01-0.05-0.01-0.05s0.03,0.02,0.07,0.04l-0.02-0.04c0,0,0.05,0,0.08-0.01   c0.03-0.01,0.09-0.02,0.09-0.02s0.05,0.04,0.04,0.06c-0.01,0.02-0.06,0.01-0.1,0.04c-0.03,0.03-0.08,0.08-0.09,0.1   c-0.02,0.02-0.04,0.01-0.06,0c-0.03-0.01-0.29-0.16-0.32-0.16c-0.03,0-0.06-0.01-0.06-0.01s-0.05-0.06-0.09-0.06   c-0.06,0.01-0.12,0.05-0.15,0.08C93.92,7.68,93.95,7.71,93.95,7.71z M93.33,9.59l0.11,0.02l-0.04,0.05l0.12,0l0.05,0.06l0.06-0.03   l0.06,0.11l0.04-0.02l0.02,0.08l0.05-0.02c0,0,0.28,0.22,0.33,0.24c0.04,0.02,0.11-0.02,0.11-0.02l-0.02,0.18   c0,0-0.02,0.04-0.02,0.07c-0.01,0.03-0.03,0.14-0.03,0.14s-0.06,0.03-0.07,0.07l-0.08,0.03c0,0-0.1,0.02-0.12,0.05   c-0.02,0.03-0.08,0.09-0.04,0.17c0.02,0.03,0.08,0.01,0.08,0.01s0.03,0.03,0.06,0.05c0,0,0.02-0.03,0.04-0.05   c0.02-0.03,0.1,0.06,0.1,0.06l0.08-0.03l0.02-0.16l0.05,0.07c0,0,0.04-0.13,0.04-0.16l0.04,0.03l0.03-0.08l0.04-0.02l0.01-0.09   l0.1-0.03l0.08-0.17c0,0,0.15,0.03,0.17,0.05c0.03,0.01,0.15,0.05,0.2,0.04c0.04-0.02,0.18,0.01,0.21,0l-0.03-0.06   c0,0,0.08,0,0.22-0.04c0.13-0.04,0.21-0.13,0.26-0.14c0.05,0,0.14-0.01,0.14-0.01s0.04,0.13,0.25,0.21c0,0,0.1,0.06,0.06,0.16   c-0.01,0.03-0.08,0.03-0.08,0.03s-0.09-0.01-0.13,0.02c-0.07,0.06-0.03,0.16-0.03,0.16l0.08-0.01l0.06,0.03l0.04-0.02l0.08,0.02   c0,0,0.01-0.01,0.05-0.03c0.04-0.02,0.08-0.11,0.08-0.11l0.05,0.04l0.02-0.14l0.04,0.01l-0.02-0.11l0.08,0.04v-0.17   c0,0,0.2,0.06,0.25,0.1c0,0,0.02,0.14,0.02,0.15c-0.01,0.01-0.04,0.01-0.08,0.03c-0.04,0.02-0.11,0.02-0.14,0.07   c-0.03,0.06-0.06,0.13-0.06,0.13s0.1-0.01,0.1,0c0,0.01,0.03,0.06,0.03,0.06l0.08-0.07l0.02,0.05l0.07-0.05l0.09,0.03   c0,0,0.12-0.02,0.12-0.06c0-0.04-0.04-0.16-0.04-0.16l-0.01-0.06l0.09,0L96.9,10.3l0.1-0.01l-0.09-0.08l0.07-0.03   c0,0-0.09-0.03-0.21-0.09c-0.12-0.06-0.17-0.35-0.35-0.42c0,0,0.06-0.04,0.14-0.06c0.13-0.03,0.33-0.2-0.04-0.28   c-0.16-0.04-0.61-0.07-0.61-0.14c0-0.08,0.27-0.06,0.34-0.06c0.07,0,0.45,0.03,0.47,0.03c0.02,0,0.05,0.05,0.11,0.07   c0.24,0.06,0.17-0.06,0.17-0.06s0.05-0.01,0.13,0.02c0.08,0.03-0.05-0.06-0.05-0.06s0.06,0,0.11,0.01c0.06,0-0.19-0.19-0.41-0.08   c-0.05,0.02-0.59,0.04-0.71,0.04c-0.09,0-0.26,0.02-0.25,0.11c0.01,0.13,0.25,0.13,0.73,0.22c0.13,0.03,0.04,0.12-0.09,0.13   c-0.13,0.01-0.35-0.11-0.5-0.1c-0.14,0-0.46,0-0.64,0.07c-0.02,0-0.14,0.07-0.16-0.01c-0.03-0.08-0.08-0.08-0.08-0.09   c0-0.02,0.1-0.01,0.1-0.01l-0.08-0.13l0.07,0.02c0,0-0.06-0.09-0.12-0.16l0.1,0.05c0,0-0.12-0.18-0.22-0.24   c-0.07-0.04-0.29-0.09-0.37-0.06c-0.09,0.03-0.17,0.04-0.17,0.04s-0.03,0.05-0.07,0.05c-0.04,0-0.11,0.02-0.15,0.05   c-0.05,0.03-0.13,0.03-0.16,0.04c-0.03,0.01-0.05,0.04-0.05,0.09c0,0.05,0.03,0.05,0.03,0.08c0,0.03,0.03,0.03,0.03,0.03l0.06-0.01   l0.07,0.01c0,0,0.08-0.01,0.12,0.03c0,0-0.02,0.03-0.04,0.03c-0.03,0-0.14-0.01-0.16-0.01c-0.02,0-0.06-0.01-0.07,0.01   c-0.01,0.02-0.03,0.16,0.07,0.22c0.02,0.01-0.01-0.06-0.01-0.06s0.04,0.03,0.09,0.05l-0.02-0.05c0,0,0.06,0,0.09-0.01   c0.04,0,0.1-0.02,0.1-0.02s0.06,0.05,0.04,0.07c-0.02,0.02-0.08,0.01-0.12,0.05c-0.04,0.04-0.09,0.09-0.11,0.12   c-0.02,0.03-0.05,0.02-0.08,0c-0.03-0.01-0.34-0.19-0.38-0.19c-0.04-0.01-0.07-0.01-0.07-0.01s-0.06-0.07-0.1-0.07   c-0.08,0-0.15,0.06-0.18,0.1C93.29,9.55,93.33,9.59,93.33,9.59z M92.99,11.64C92.96,11.68,93,11.72,93,11.72l0.11,0.02l-0.04,0.06   l0.14-0.01l0.05,0.06l0.07-0.03l0.07,0.12l0.04-0.02l0.03,0.09L93.52,12c0,0,0.31,0.24,0.36,0.26c0.05,0.02,0.12-0.02,0.12-0.02   l-0.02,0.19c0,0-0.02,0.04-0.02,0.07c-0.01,0.03-0.04,0.15-0.04,0.15s-0.07,0.04-0.07,0.07l-0.09,0.03c0,0-0.11,0.02-0.13,0.06   c-0.02,0.04-0.09,0.09-0.04,0.18c0.02,0.03,0.09,0.01,0.09,0.01s0.03,0.04,0.07,0.05c0,0,0.02-0.03,0.04-0.06   c0.02-0.03,0.1,0.06,0.1,0.06l0.09-0.03L94,12.87l0.05,0.07c0,0,0.05-0.14,0.05-0.18l0.04,0.04l0.03-0.08l0.04-0.02l0.01-0.1   l0.11-0.04l0.08-0.18c0,0,0.16,0.04,0.19,0.05c0.03,0.02,0.16,0.06,0.21,0.04c0.05-0.02,0.2,0.01,0.22,0l-0.04-0.06   c0,0,0.09,0,0.24-0.05c0.15-0.04,0.22-0.14,0.28-0.15c0.06-0.01,0.15-0.02,0.15-0.02s0.05,0.14,0.27,0.23c0,0,0.11,0.07,0.07,0.18   c-0.01,0.03-0.08,0.03-0.08,0.03s-0.1-0.01-0.14,0.02c-0.08,0.06-0.04,0.18-0.04,0.18l0.09-0.02l0.07,0.04l0.05-0.03l0.09,0.02   c0,0,0.01-0.01,0.05-0.03c0.04-0.02,0.09-0.11,0.09-0.11l0.05,0.05l0.02-0.15l0.05,0.01l-0.03-0.12l0.08,0.04v-0.19   c0,0,0.22,0.06,0.27,0.11c0,0,0.03,0.15,0.02,0.16c-0.01,0.01-0.04,0.01-0.09,0.03c-0.04,0.02-0.12,0.02-0.15,0.08   c-0.03,0.06-0.06,0.14-0.06,0.14s0.11-0.02,0.11,0c0,0.02,0.04,0.06,0.04,0.06l0.09-0.07l0.02,0.05l0.08-0.06l0.1,0.03   c0,0,0.13-0.02,0.13-0.06c0-0.04-0.05-0.18-0.05-0.18l-0.01-0.06l0.1,0.01l-0.09-0.1l0.11-0.01l-0.09-0.09l0.08-0.03   c0,0-0.09-0.03-0.23-0.09c-0.13-0.06-0.18-0.37-0.38-0.45c0,0,0.06-0.05,0.15-0.06c0.15-0.03,0.35-0.22-0.05-0.31   c-0.18-0.04-0.66-0.07-0.66-0.15c0-0.08,0.29-0.07,0.37-0.07c0.08,0,0.49,0.03,0.51,0.03c0.02,0,0.05,0.05,0.12,0.07   c0.26,0.06,0.19-0.07,0.19-0.07s0.05-0.01,0.14,0.02c0.09,0.03-0.05-0.07-0.05-0.07s0.06,0,0.12,0.01c0.06,0-0.2-0.21-0.45-0.09   c-0.05,0.02-0.64,0.04-0.77,0.04c-0.1,0-0.28,0.02-0.27,0.12c0.01,0.14,0.27,0.15,0.79,0.24c0.14,0.02,0.04,0.13-0.1,0.14   c-0.14,0.01-0.38-0.12-0.54-0.11c-0.16,0-0.5,0-0.7,0.07c-0.01,0.01-0.15,0.07-0.17,0c-0.03-0.09-0.09-0.09-0.09-0.1   c0-0.01,0.11-0.01,0.11-0.01l-0.09-0.14l0.08,0.03c0,0-0.07-0.1-0.13-0.17l0.12,0.05c0,0-0.13-0.19-0.24-0.26   c-0.07-0.04-0.31-0.1-0.41-0.07C94.24,10.99,94.16,11,94.16,11s-0.04,0.05-0.08,0.06c-0.04,0.01-0.11,0.02-0.17,0.06   c-0.05,0.03-0.14,0.03-0.17,0.04c-0.03,0.01-0.05,0.05-0.05,0.1c0,0.05,0.03,0.06,0.03,0.08c0,0.03,0.04,0.04,0.04,0.04l0.07-0.02   l0.08,0.01c0,0,0.09-0.01,0.13,0.03c0,0-0.02,0.03-0.05,0.03c-0.03,0-0.14-0.01-0.17-0.01c-0.03,0-0.07-0.01-0.08,0.01   c-0.02,0.02-0.04,0.17,0.08,0.24c0.02,0.01-0.01-0.07-0.01-0.07s0.04,0.03,0.1,0.05l-0.03-0.05c0,0,0.06,0,0.1-0.01   c0.04-0.01,0.11-0.02,0.11-0.02s0.07,0.05,0.05,0.08c-0.02,0.03-0.09,0.01-0.13,0.05c-0.04,0.04-0.1,0.1-0.12,0.13   c-0.02,0.03-0.05,0.02-0.08,0c-0.04-0.02-0.37-0.2-0.41-0.21c-0.04-0.01-0.08-0.01-0.08-0.01s-0.07-0.08-0.11-0.08   C93.09,11.54,93.02,11.6,92.99,11.64z"/>
</g>
</svg>