<?xml version="1.0" encoding="utf-8"?>
<!-- Generator: Adobe Illustrator 27.5.0, SVG Export Plug-In . SVG Version: 6.00 Build 0)  -->
<svg version="1.1" id="Layer_1" xmlns="http://www.w3.org/2000/svg" xmlns:xlink="http://www.w3.org/1999/xlink" x="0px" y="0px"
	 viewBox="0 0 156 48" style="enable-background:new 0 0 156 48;" xml:space="preserve">
<style type="text/css">
	.st0{fill-rule:evenodd;clip-rule:evenodd;fill:#FFFEFE;}
	.st1{filter:url(#Adobe_OpacityMaskFilter);}
	.st2{fill-rule:evenodd;clip-rule:evenodd;fill:#FFFFFF;}
	.st3{mask:url(#mask-2_00000168114694317393914570000001733937966589854599_);fill-rule:evenodd;clip-rule:evenodd;fill:#FFFEFE;}
	.st4{filter:url(#Adobe_OpacityMaskFilter_00000139991695176171241350000002927371803311666093_);}
	.st5{mask:url(#mask-2_00000146487728531841727010000008576977567472051870_);fill-rule:evenodd;clip-rule:evenodd;fill:#FFFEFE;}
	.st6{filter:url(#Adobe_OpacityMaskFilter_00000111913348190014645850000007523999467291420562_);}
	.st7{mask:url(#mask-2_00000023267363175541945320000011763550180112359850_);fill-rule:evenodd;clip-rule:evenodd;fill:#FFFFFE;}
	.st8{fill-rule:evenodd;clip-rule:evenodd;fill:#FFFFFE;}
	.st9{filter:url(#Adobe_OpacityMaskFilter_00000033368600474166469910000007642087632312531377_);}
	.st10{mask:url(#mask-4_00000097465681651439551370000007186731055108499857_);fill-rule:evenodd;clip-rule:evenodd;fill:#FFFFFE;}
	.st11{filter:url(#Adobe_OpacityMaskFilter_00000104689259081851419500000007579311528273496472_);}
	.st12{mask:url(#mask-4_00000048459920349148791090000015742842902481171623_);fill-rule:evenodd;clip-rule:evenodd;fill:#FFFFFE;}
</style>
<g id="Page-1">
	<g id="Artboard" transform="translate(-54.000000, -189.000000)">
		<g id="HTA_wo_A4_55mm" transform="translate(54.000000, 189.000000)">
			<polyline id="Fill-1" class="st0" points="36.6,2 41.8,2 41.7,13.3 53.9,13.3 54,2 59.2,2 59,29.7 53.8,29.7 53.9,17.7 
				41.7,17.7 41.6,29.7 36.4,29.7 36.6,2 			"/>
			<polyline id="Fill-2" class="st0" points="71.4,6.4 63.6,6.4 63.7,2 84.2,2 84.2,6.4 76.5,6.4 76.3,29.7 71.2,29.7 71.4,6.4 			
				"/>
			<path id="Fill-3" class="st0" d="M96.4,7.4L96.4,7.4l-3.6,10.8h6.8L96.4,7.4z M88.2,30.3l-4.8-1.4L94.1,2h4.7l9.9,26.8l-5,1.4
				l-2.7-7.9h-9.6L88.2,30.3L88.2,30.3z"/>
			<polyline id="Fill-4" class="st0" points="36.6,36.1 37.7,36.1 37.6,39.7 42,39.7 42,36.1 43,36.1 43,44.1 42,44.1 42,40.5 
				37.6,40.5 37.6,44.1 36.6,44.1 36.6,36.1 			"/>
			<path id="Fill-5" class="st0" d="M45,38.3h0.9l0,2.6c0,0.5,0,1,0,1.6c0,0.6,0.4,0.9,1.1,0.9c0.6,0,1.1-0.3,1.7-1.1l0-4.1h0.9
				l0,5.8h-0.9l0-0.9h0c-0.5,0.7-1.3,1.1-2,1.1c-1.3,0-1.8-0.7-1.8-1.8c0-0.4,0-0.9,0-1.3L45,38.3"/>
			<path id="Fill-6" class="st0" d="M51.4,38.3h0.9l0,0.9h0c0.5-0.6,1.1-1,1.9-1c0.7,0,1.3,0.4,1.5,1.1c0.5-0.5,1.3-1.1,2-1.1
				c1.2,0,1.6,0.7,1.6,1.8c0,0.4,0,0.9,0,1.3l0,2.9h-0.9l0-2.6c0-0.5,0-1,0-1.6c0-0.6-0.4-0.9-0.9-0.9c-0.7,0-1.2,0.4-1.7,1
				l-0.1,4.2h-0.9l0-2.6c0-0.5,0-1,0-1.6c0-0.6-0.4-0.9-0.9-0.9c-0.7,0-1.2,0.4-1.7,1l-0.1,4.2h-0.9L51.4,38.3"/>
			<path id="Fill-7" class="st0" d="M64.1,41.1c-1.6,0.2-2.5,0.5-2.5,1.5c0,0.7,0.4,1,1,1c0.6,0,1-0.4,1.4-0.9L64.1,41.1z
				 M66.1,43.9c-0.3,0.3-0.7,0.4-1.1,0.4c-0.5,0-0.8-0.5-0.9-1c-0.4,0.5-1,1-1.8,1c-1,0-1.7-0.7-1.7-1.7c0-1.6,2.1-2,3.4-2.1
				c0-0.2,0-0.5,0-0.7c0-0.5-0.3-0.9-0.9-0.9c-0.5,0-0.8,0.2-1.7,0.8l-0.4-0.6c1.2-0.8,1.5-1,2.4-1c1,0,1.5,0.6,1.5,1.5
				c0,1.1-0.1,2.1-0.1,3.1c0,0.4,0.1,0.8,0.4,0.8c0.2,0,0.3-0.1,0.5-0.2L66.1,43.9L66.1,43.9z"/>
			<path id="Fill-8" class="st0" d="M67,38.3h0.9l0,0.9h0c0.5-0.7,1.3-1.1,2-1.1c1.3,0,1.8,0.7,1.8,1.8c0,0.4,0,0.9,0,1.3l0,2.9
				h-0.9l0-2.6c0-0.5,0-1,0-1.6c0-0.6-0.4-0.9-1.1-0.9c-0.6,0-1.1,0.4-1.7,1.1l0,4.1H67L67,38.3"/>
			<polyline id="Fill-9" class="st0" points="74.6,36.1 80.7,36.1 80.7,36.9 78.2,36.9 78.1,44.1 77.1,44.1 77.1,36.9 74.6,36.9 
				74.6,36.1 			"/>
			<path id="Fill-10" class="st0" d="M81.2,38.3h0.9l0,5.8h-0.9L81.2,38.3z M81.2,37.1h1v-1.1h-1V37.1z"/>
			<path id="Fill-11" class="st0" d="M83.7,43.1c0.3,0.2,0.8,0.5,1.3,0.5c0.5,0,1.1-0.3,1.1-0.9c0-1.4-2.7-0.8-2.7-2.8
				c0-1.1,0.9-1.7,2-1.7c0.7,0,1.3,0.2,1.7,0.5l-0.4,0.6c-0.3-0.2-0.7-0.4-1.1-0.4c-0.7,0-1.2,0.3-1.2,1c0,1.2,2.7,0.7,2.7,2.7
				c0,1.1-1,1.8-1.9,1.8c-0.7,0-1.3-0.2-1.8-0.6L83.7,43.1"/>
			<path id="Fill-12" class="st0" d="M88.3,43.1c0.3,0.2,0.8,0.5,1.3,0.5c0.5,0,1.1-0.3,1.1-0.9c0-1.4-2.7-0.8-2.7-2.8
				c0-1.1,0.9-1.7,2-1.7c0.7,0,1.3,0.2,1.7,0.5l-0.4,0.6c-0.3-0.2-0.7-0.4-1.1-0.4c-0.7,0-1.2,0.3-1.2,1c0,1.2,2.7,0.7,2.7,2.7
				c0,1.1-1,1.8-1.9,1.8c-0.7,0-1.3-0.2-1.8-0.6L88.3,43.1"/>
			<path id="Fill-13" class="st0" d="M93,38.3h0.9l0,2.6c0,0.5,0,1,0,1.6c0,0.6,0.4,0.9,1.1,0.9c0.6,0,1.1-0.3,1.7-1.1l0-4.1h0.9
				l0,5.8h-0.9l0-0.9h0c-0.5,0.7-1.3,1.1-2,1.1c-1.3,0-1.8-0.7-1.8-1.8c0-0.4,0-0.9,0-1.3L93,38.3"/>
			<path id="Fill-14" class="st0" d="M103,40.5c0-0.8-0.4-1.6-1.3-1.6c-0.9,0-1.4,0.8-1.6,1.6H103z M100,41.1v0.2
				c0,1.2,0.5,2.3,1.6,2.3c0.7,0,1.2-0.4,1.7-0.8l0.5,0.5c-0.6,0.6-1.4,1-2.2,1c-1.6,0-2.5-1.2-2.5-3.1c0-1.6,1.1-3.1,2.7-3.1
				c1.6,0,2.2,1.2,2.2,2.8v0.2H100L100,41.1z"/>
			<path id="Fill-15" class="st0" d="M110.9,37L110.9,37l-1.4,3.6h2.6L110.9,37z M110.4,36.1h1l3.2,7.9l-1,0.3l-1.1-2.8h-3.3
				l-1.2,2.8L107,44L110.4,36.1L110.4,36.1z"/>
			<path id="Fill-16" class="st0" d="M115.6,38.3h0.9l0,2.6c0,0.5,0,1,0,1.6c0,0.6,0.4,0.9,1.1,0.9c0.6,0,1.1-0.3,1.7-1.1l0-4.1h0.9
				l0,5.8h-0.9l0-0.9h0c-0.5,0.7-1.3,1.1-2,1.1c-1.3,0-1.8-0.7-1.8-1.8c0-0.4,0-0.9,0-1.3L115.6,38.3"/>
			<path id="Fill-17" class="st0" d="M122.4,38.3l0-2.1h0.9l0,2.1h1.6V39h-1.6l0,2.4c0,0.7,0,1.1,0,1.4c0,0.5,0.1,0.7,0.5,0.7
				c0.3,0,0.7-0.2,0.9-0.3l0.3,0.6c-0.4,0.3-0.9,0.5-1.5,0.5c-0.9,0-1.2-0.6-1.2-1.5c0-0.4,0-0.9,0-1.7l0-2.1h-1v-0.7H122.4"/>
			<path id="Fill-18" class="st0" d="M126,35.4h1l0,3.9h0c0.5-0.7,1.3-1.1,1.9-1.1c1.3,0,1.8,0.7,1.8,1.8c0,0.4,0,0.9,0,1.3l0,2.9
				h-0.9l0-2.6c0-0.5,0-1,0-1.6c0-0.6-0.4-0.9-1.1-0.9c-0.6,0-1.1,0.4-1.7,1.1l0,4.1h-0.9L126,35.4"/>
			<path id="Fill-19" class="st0" d="M134.7,43.6c0.9,0,1.8-0.8,1.8-2.4c0-1.6-0.8-2.4-1.7-2.4c-0.9,0-1.8,0.8-1.8,2.4
				C133,42.9,133.8,43.6,134.7,43.6z M134.9,38.2c1.7,0,2.7,1.2,2.7,3.1c0,1.5-1,3.1-2.8,3.1c-1.7,0-2.7-1.2-2.7-3.1
				C132,39.7,133,38.2,134.9,38.2L134.9,38.2z"/>
			<path id="Fill-20" class="st0" d="M139,38.3h1l0,1.1l0,0c0.2-0.5,0.8-1.3,1.6-1.3c0.2,0,0.4,0,0.5,0.1l-0.3,0.9
				c-0.1,0-0.2-0.1-0.4-0.1c-0.4,0-1,0.3-1.5,1.2l0,3.8h-0.9L139,38.3"/>
			<path id="Fill-21" class="st0" d="M142.8,38.3h0.9l0,5.8h-0.9L142.8,38.3z M142.7,37.1h1v-1.1h-1V37.1z"/>
			<g id="Group-26" transform="translate(0.000000, 26.000000)">
				<g id="Clip-23">
				</g>
				<defs>
					<filter id="Adobe_OpacityMaskFilter" filterUnits="userSpaceOnUse" x="144.8" y="10.2" width="3.7" height="8.1">
						<feColorMatrix  type="matrix" values="1 0 0 0 0  0 1 0 0 0  0 0 1 0 0  0 0 0 1 0"/>
					</filter>
				</defs>
				
					<mask maskUnits="userSpaceOnUse" x="144.8" y="10.2" width="3.7" height="8.1" id="mask-2_00000168114694317393914570000001733937966589854599_">
					<g class="st1">
						<polygon id="path-1_00000111909204484981325610000017624035290709965994_" class="st2" points="1.3,-0.6 154,-0.6 154,20.8 
							1.3,20.8 						"/>
					</g>
				</mask>
				<path id="Fill-22" class="st3" d="M145.8,12.3l0-2.1h0.9l0,2.1h1.6V13h-1.6l0,2.4c0,0.7,0,1.1,0,1.4c0,0.5,0.1,0.7,0.5,0.7
					c0.3,0,0.7-0.2,0.9-0.3l0.3,0.6c-0.4,0.3-0.9,0.5-1.5,0.5c-0.9,0-1.2-0.6-1.2-1.5c0-0.4,0-0.9,0-1.7l0-2.1h-1v-0.7H145.8"/>
				<defs>
					
						<filter id="Adobe_OpacityMaskFilter_00000008854804260563729110000011170316846701275296_" filterUnits="userSpaceOnUse" x="148.7" y="12.2" width="5.3" height="8.7">
						<feColorMatrix  type="matrix" values="1 0 0 0 0  0 1 0 0 0  0 0 1 0 0  0 0 0 1 0"/>
					</filter>
				</defs>
				
					<mask maskUnits="userSpaceOnUse" x="148.7" y="12.2" width="5.3" height="8.7" id="mask-2_00000146487728531841727010000008576977567472051870_">
					<g style="filter:url(#Adobe_OpacityMaskFilter_00000008854804260563729110000011170316846701275296_);">
						<polygon id="path-1_00000052784167390573095580000013371713306493473933_" class="st2" points="1.3,-0.6 154,-0.6 154,20.8 
							1.3,20.8 						"/>
					</g>
				</mask>
				<path id="Fill-24" class="st5" d="M148.8,20.2c0.9,0,1.2-0.2,1.4-0.8l0.6-1.4l-2.2-5.6l1-0.3l1.6,4.7h0l1.8-4.7l0.9,0.3
					l-2.6,6.4c-0.7,1.6-1,2-2.2,2h-0.4V20.2"/>
				<defs>
					
						<filter id="Adobe_OpacityMaskFilter_00000141430013332168238910000015618265266099832253_" filterUnits="userSpaceOnUse" x="1.3" y="-0.6" width="19.4" height="19.4">
						<feColorMatrix  type="matrix" values="1 0 0 0 0  0 1 0 0 0  0 0 1 0 0  0 0 0 1 0"/>
					</filter>
				</defs>
				
					<mask maskUnits="userSpaceOnUse" x="1.3" y="-0.6" width="19.4" height="19.4" id="mask-2_00000023267363175541945320000011763550180112359850_">
					<g style="filter:url(#Adobe_OpacityMaskFilter_00000141430013332168238910000015618265266099832253_);">
						<polygon id="path-1_00000013904415588229163720000003528016713999740857_" class="st2" points="1.3,-0.6 154,-0.6 154,20.8 
							1.3,20.8 						"/>
					</g>
				</mask>
				<path id="Fill-25" class="st7" d="M4.2,2.2c3.8-3.8,9.9-3.8,13.7,0c3.8,3.8,3.8,9.9,0,13.7c-3.8,3.8-9.9,3.8-13.7,0
					C0.4,12.1,0.4,6,4.2,2.2"/>
			</g>
			<path id="Fill-27" class="st8" d="M8.8,9.8c2.5-2.5,6.6-2.5,9.1,0c1.4,1.4,2,3.3,1.9,5.1c-1.4,0.4-2.6,1.2-3.7,2.2
				c-1.1,1.1-1.8,2.3-2.2,3.7c-1.8,0.1-3.7-0.5-5.1-1.9C6.3,16.5,6.3,12.4,8.8,9.8"/>
			<g id="Group-31" transform="translate(13.000000, 0.000000)">
				<g id="Clip-29">
				</g>
				<defs>
					
						<filter id="Adobe_OpacityMaskFilter_00000066510777124337708110000006718108346302852788_" filterUnits="userSpaceOnUse" x="1.8" y="15.8" width="15.5" height="15.5">
						<feColorMatrix  type="matrix" values="1 0 0 0 0  0 1 0 0 0  0 0 1 0 0  0 0 0 1 0"/>
					</filter>
				</defs>
				
					<mask maskUnits="userSpaceOnUse" x="1.8" y="15.8" width="15.5" height="15.5" id="mask-4_00000097465681651439551370000007186731055108499857_">
					<g style="filter:url(#Adobe_OpacityMaskFilter_00000066510777124337708110000006718108346302852788_);">
						<polygon id="path-3_00000179618460060781622950000003617476402465371272_" class="st2" points="1.8,0.8 17.3,0.8 17.3,31.3 
							1.8,31.3 						"/>
					</g>
				</mask>
				<path id="Fill-28" class="st10" d="M4,18.1c3-3,7.9-3,11,0s3,7.9,0,11c-1.8,1.8-4.2,2.5-6.6,2.2c-0.5-1.5-1.4-2.8-2.6-4
					c-1.2-1.2-2.6-2-4-2.6C1.5,22.3,2.2,19.9,4,18.1"/>
				<defs>
					
						<filter id="Adobe_OpacityMaskFilter_00000145745831988564402210000013974164743368404149_" filterUnits="userSpaceOnUse" x="2.3" y="0.8" width="11.6" height="11.6">
						<feColorMatrix  type="matrix" values="1 0 0 0 0  0 1 0 0 0  0 0 1 0 0  0 0 0 1 0"/>
					</filter>
				</defs>
				
					<mask maskUnits="userSpaceOnUse" x="2.3" y="0.8" width="11.6" height="11.6" id="mask-4_00000048459920349148791090000015742842902481171623_">
					<g style="filter:url(#Adobe_OpacityMaskFilter_00000145745831988564402210000013974164743368404149_);">
						<polygon id="path-3_00000121997950237503507540000014776032660178569653_" class="st2" points="1.8,0.8 17.3,0.8 17.3,31.3 
							1.8,31.3 						"/>
					</g>
				</mask>
				<path id="Fill-30" class="st12" d="M4,2.5c2.3-2.3,6-2.3,8.2,0s2.3,6,0,8.2c-1.2,1.2-2.8,1.8-4.4,1.7c-0.3-1.3-1-2.5-2-3.5
					c-1-1-2.2-1.7-3.5-2C2.3,5.3,2.8,3.7,4,2.5"/>
			</g>
		</g>
	</g>
</g>
</svg>
