<?xml version="1.0" encoding="utf-8"?>
<!-- Generator: Adobe Illustrator 27.3.1, SVG Export Plug-In . SVG Version: 6.00 Build 0)  -->
<svg version="1.1" id="Layer_1" xmlns="http://www.w3.org/2000/svg" xmlns:xlink="http://www.w3.org/1999/xlink" x="0px" y="0px"
	 viewBox="0 0 300 88" style="enable-background:new 0 0 300 88;" xml:space="preserve">
<style type="text/css">
	.st0{fill:#FFFFFF;}
	.st1{fill:none;}
	.st2{fill:#B7368F;}
	.st3{fill:#BF2A87;}
	.st4{fill:#E57F06;}
	.st5{fill:#0093A1;}
	.st6{fill:#AF1918;}
	.st7{fill:#25265A;}
	.st8{fill:#055665;}
	.st9{fill:#1F4E23;}
	.st10{fill:#181917;}
	.st11{fill:#1C1C3D;}
	.st12{fill:#FFCE00;}
	.st13{fill:#0C7533;}
	.st14{fill:#1C1F15;}
	.st15{fill:#AAC811;}
	.st16{fill:#087834;}
	.st17{fill:#171D18;}
	.st18{fill:#7F2315;}
	.st19{fill:#996E1B;}
	.st20{fill:#721B0D;}
	.st21{fill:#26421E;}
	.st22{fill:#224A21;}
	.st23{fill:#191A13;}
	.st24{fill:#A7AA1D;}
	.st25{fill:#1C622C;}
	.st26{fill:#1B1E14;}
	.st27{fill:#0093A0;}
	.st28{fill:#A5A937;}
	.st29{fill:#E38025;}
	.st30{fill:#FDCD07;}
	.st31{fill:#AE2024;}
	.st32{fill:#BF2986;}
	.st33{fill:#09783D;}
	.st34{font-family:'Raleway-Bold';}
	.st35{font-size:9.5356px;}
</style>
<g>
	<path class="st0" d="M77.6-98.7l-1.9-2.7c-0.2,0-0.4,0-0.7,0h-2.3v2.7h-0.9v-8.5h3.2c2.2,0,3.5,1.1,3.5,2.9c0,1.3-0.7,2.3-1.9,2.7
		l2.1,2.9C78.5-98.7,77.6-98.7,77.6-98.7z M77.5-104.3c0-1.4-0.9-2.1-2.6-2.1h-2.3v4.3h2.3C76.6-102.2,77.5-103,77.5-104.3z"/>
	<path class="st0" d="M85.9-101.7h-5.4c0.1,1.3,1.1,2.2,2.5,2.2c0.8,0,1.5-0.3,2-0.8l0.5,0.6c-0.6,0.7-1.5,1.1-2.5,1.1
		c-2,0-3.4-1.4-3.4-3.3s1.3-3.2,3.1-3.2c1.8,0,3.1,1.3,3.1,3.2C86-101.8,85.9-101.8,85.9-101.7z M80.6-102.3h4.5
		c-0.1-1.2-1-2.1-2.3-2.1C81.6-104.4,80.7-103.6,80.6-102.3z"/>
	<path class="st0" d="M93.6-107.8v9h-0.8v-1.3c-0.5,0.9-1.4,1.3-2.5,1.3c-1.8,0-3.2-1.3-3.2-3.3c0-1.9,1.4-3.2,3.2-3.2
		c1,0,1.9,0.4,2.4,1.3v-3.8L93.6-107.8L93.6-107.8z M92.7-101.9c0-1.5-1-2.5-2.4-2.5c-1.4,0-2.4,1-2.4,2.5s1,2.5,2.4,2.5
		C91.7-99.4,92.7-100.4,92.7-101.9z"/>
	<path class="st0" d="M101.5-101.7h-5.4c0.1,1.3,1.1,2.2,2.5,2.2c0.8,0,1.5-0.3,2-0.8l0.5,0.6c-0.6,0.7-1.5,1.1-2.5,1.1
		c-2,0-3.4-1.4-3.4-3.3s1.3-3.2,3.1-3.2c1.8,0,3.1,1.3,3.1,3.2C101.6-101.8,101.5-101.8,101.5-101.7z M96.2-102.3h4.5
		c-0.1-1.2-1-2.1-2.3-2.1C97.2-104.4,96.3-103.6,96.2-102.3z"/>
	<path class="st0" d="M105.4-107.8c0.5,0,1,0.1,1.3,0.4l-0.3,0.7c-0.2-0.2-0.6-0.3-0.9-0.3c-0.7,0-1.1,0.4-1.1,1.2v0.8h2v0.7h-2v5.7
		h-0.9v-5.7h-1.1v-0.7h1.1v-0.8C103.5-107.1,104.2-107.8,105.4-107.8z M109.5-107.2c0,0.3-0.3,0.6-0.6,0.6c-0.3,0-0.6-0.3-0.6-0.6
		c0-0.3,0.3-0.6,0.6-0.6C109.2-107.8,109.5-107.5,109.5-107.2z M108.4-105.1h0.9v6.4h-0.9V-105.1z"/>
	<path class="st0" d="M117.6-102.4v3.7h-0.9v-3.6c0-1.3-0.7-2-1.9-2c-1.4,0-2.2,0.8-2.2,2.3v3.4h-0.9v-6.4h0.8v1.2
		c0.5-0.8,1.3-1.2,2.4-1.2C116.5-105.2,117.6-104.3,117.6-102.4z"/>
	<path class="st0" d="M119.7-107.1c0-0.3,0.3-0.6,0.6-0.6s0.6,0.3,0.6,0.6c0,0.3-0.3,0.6-0.6,0.6C120-106.5,119.7-106.8,119.7-107.1
		z M119.9-105.1h0.9v6.4h-0.9V-105.1z"/>
	<path class="st0" d="M129.1-102.4v3.7h-0.9v-3.6c0-1.3-0.7-2-1.9-2c-1.4,0-2.2,0.8-2.2,2.3v3.4h-0.9v-6.4h0.8v1.2
		c0.5-0.8,1.3-1.2,2.4-1.2C128-105.2,129.1-104.3,129.1-102.4z"/>
	<path class="st0" d="M137.4-105.1v5.6c0,2.2-1.1,3.2-3.2,3.2c-1.2,0-2.3-0.3-3-1l0.4-0.7c0.6,0.6,1.5,0.9,2.5,0.9
		c1.6,0,2.4-0.7,2.4-2.3v-0.8c-0.5,0.8-1.4,1.2-2.5,1.2c-1.8,0-3.2-1.3-3.2-3.1s1.4-3.1,3.2-3.1c1.1,0,2,0.4,2.5,1.3v-1.2
		L137.4-105.1L137.4-105.1z M136.6-102.1c0-1.4-1-2.3-2.4-2.3s-2.4,0.9-2.4,2.3s1,2.3,2.4,2.3C135.5-99.7,136.6-100.7,136.6-102.1z"
		/>
	<path class="st0" d="M148.9-107.8v9H148v-1.3c-0.5,0.9-1.4,1.3-2.5,1.3c-1.8,0-3.2-1.3-3.2-3.3c0-1.9,1.4-3.2,3.2-3.2
		c1,0,1.9,0.4,2.4,1.3v-3.8L148.9-107.8L148.9-107.8z M148-101.9c0-1.5-1-2.5-2.4-2.5c-1.4,0-2.4,1-2.4,2.5s1,2.5,2.4,2.5
		C147-99.4,148-100.4,148-101.9z"/>
	<path class="st0" d="M154.5-105.2v0.8c-0.1,0-0.1,0-0.2,0c-1.3,0-2.2,0.8-2.2,2.4v3.3h-0.9v-6.4h0.8v1.2
		C152.5-104.7,153.3-105.2,154.5-105.2z"/>
	<path class="st0" d="M161.9-105.1v6.4h-0.8v-1.2c-0.4,0.8-1.3,1.2-2.3,1.2c-1.6,0-2.7-0.9-2.7-2.8v-3.7h0.9v3.6
		c0,1.4,0.7,2.1,1.9,2.1c1.3,0,2.2-0.9,2.2-2.3v-3.4L161.9-105.1L161.9-105.1z"/>
	<path class="st0" d="M170.3-105.1v5.6c0,2.2-1.1,3.2-3.2,3.2c-1.2,0-2.3-0.3-3-1l0.4-0.7c0.6,0.6,1.5,0.9,2.5,0.9
		c1.6,0,2.4-0.7,2.4-2.3v-0.8c-0.5,0.8-1.4,1.2-2.5,1.2c-1.8,0-3.2-1.3-3.2-3.1s1.4-3.1,3.2-3.1c1.1,0,2,0.4,2.5,1.3v-1.2
		L170.3-105.1L170.3-105.1z M169.4-102.1c0-1.4-1-2.3-2.4-2.3s-2.4,0.9-2.4,2.3s1,2.3,2.4,2.3C168.4-99.7,169.4-100.7,169.4-102.1z"
		/>
	<path class="st0" d="M181.7-107.8v9h-0.8v-1.3c-0.5,0.9-1.4,1.3-2.5,1.3c-1.8,0-3.2-1.3-3.2-3.3c0-1.9,1.4-3.2,3.2-3.2
		c1,0,1.9,0.4,2.4,1.3v-3.8L181.7-107.8L181.7-107.8z M180.9-101.9c0-1.5-1-2.5-2.4-2.5c-1.4,0-2.4,1-2.4,2.5s1,2.5,2.4,2.5
		C179.8-99.4,180.9-100.4,180.9-101.9z"/>
	<path class="st0" d="M183.9-107.1c0-0.3,0.3-0.6,0.6-0.6s0.6,0.3,0.6,0.6c0,0.3-0.3,0.6-0.6,0.6
		C184.2-106.5,183.9-106.8,183.9-107.1z M184.1-105.1h0.9v6.4h-0.9V-105.1z"/>
	<path class="st0" d="M186.5-99.5l0.4-0.7c0.5,0.4,1.4,0.7,2.3,0.7c1.2,0,1.7-0.4,1.7-1.1c0-1.7-4.1-0.3-4.1-2.9
		c0-1.1,0.9-1.8,2.5-1.8c0.8,0,1.7,0.2,2.3,0.6l-0.4,0.7c-0.6-0.4-1.2-0.6-1.9-0.6c-1.2,0-1.7,0.4-1.7,1.1c0,1.7,4.1,0.4,4.1,2.9
		c0,1.1-1,1.8-2.6,1.8C188.1-98.7,187-99,186.5-99.5z"/>
	<path class="st0" d="M192.7-101.9c0-1.9,1.4-3.2,3.3-3.2c1.1,0,2,0.4,2.5,1.3l-0.6,0.4c-0.4-0.7-1.1-0.9-1.9-0.9
		c-1.4,0-2.4,1-2.4,2.5c0,1.5,1,2.5,2.4,2.5c0.7,0,1.4-0.3,1.9-0.9l0.6,0.4c-0.5,0.8-1.4,1.3-2.5,1.3
		C194.1-98.7,192.7-100,192.7-101.9z"/>
	<path class="st0" d="M199.4-101.9c0-1.9,1.4-3.2,3.3-3.2s3.2,1.3,3.2,3.2s-1.4,3.3-3.2,3.3C200.8-98.7,199.4-100,199.4-101.9z
		 M205.1-101.9c0-1.5-1-2.5-2.4-2.5s-2.4,1-2.4,2.5s1,2.5,2.4,2.5S205.1-100.4,205.1-101.9z"/>
	<path class="st0" d="M212.9-105.1l-2.9,6.4h-0.9l-2.8-6.4h0.9l2.4,5.4l2.4-5.4H212.9z"/>
	<path class="st0" d="M219.5-101.7h-5.4c0.1,1.3,1.1,2.2,2.5,2.2c0.8,0,1.5-0.3,2-0.8l0.5,0.6c-0.6,0.7-1.5,1.1-2.5,1.1
		c-2,0-3.4-1.4-3.4-3.3s1.3-3.2,3.1-3.2s3.1,1.3,3.1,3.2C219.5-101.8,219.5-101.8,219.5-101.7z M214.2-102.3h4.5
		c-0.1-1.2-1-2.1-2.3-2.1C215.2-104.4,214.3-103.6,214.2-102.3z"/>
	<path class="st0" d="M224.5-105.2v0.8c-0.1,0-0.1,0-0.2,0c-1.3,0-2.1,0.8-2.1,2.4v3.3h-0.9v-6.4h0.8v1.2
		C222.5-104.7,223.4-105.2,224.5-105.2z"/>
	<path class="st0" d="M231.7-105.1l-3.2,7.2c-0.5,1.2-1.2,1.7-2.1,1.7c-0.6,0-1.2-0.2-1.6-0.6l0.4-0.7c0.3,0.3,0.7,0.5,1.2,0.5
		c0.6,0,1-0.3,1.3-1.1l0.3-0.6l-2.9-6.4h0.9l2.4,5.4l2.4-5.4L231.7-105.1L231.7-105.1z"/>
	<path class="st0" d="M239.5-99.1c-0.3,0.3-0.9,0.4-1.4,0.4c-1.2,0-1.9-0.7-1.9-1.9v-3.9h-1.1v-0.7h1.1v-1.4h0.9v1.4h1.9v0.7h-1.9
		v3.8c0,0.8,0.4,1.2,1.1,1.2c0.4,0,0.7-0.1,0.9-0.3L239.5-99.1z"/>
	<path class="st0" d="M247-102.4v3.7h-0.9v-3.6c0-1.3-0.7-2-1.9-2c-1.4,0-2.2,0.8-2.2,2.3v3.4h-0.9v-9h0.9v3.8
		c0.5-0.7,1.3-1.2,2.4-1.2C245.9-105.2,247-104.3,247-102.4z"/>
	<path class="st0" d="M252.6-105.2v0.8c-0.1,0-0.1,0-0.2,0c-1.3,0-2.1,0.8-2.1,2.4v3.3h-0.9v-6.4h0.8v1.2
		C250.6-104.7,251.4-105.2,252.6-105.2z"/>
	<path class="st0" d="M253.4-101.9c0-1.9,1.4-3.2,3.3-3.2s3.2,1.3,3.2,3.2s-1.4,3.3-3.2,3.3S253.4-100,253.4-101.9z M259-101.9
		c0-1.5-1-2.5-2.4-2.5c-1.4,0-2.4,1-2.4,2.5s1,2.5,2.4,2.5C258-99.4,259-100.4,259-101.9z"/>
	<path class="st0" d="M267.5-105.1v6.4h-0.8v-1.2c-0.4,0.8-1.3,1.2-2.3,1.2c-1.6,0-2.7-0.9-2.7-2.8v-3.7h0.9v3.6
		c0,1.4,0.7,2.1,1.9,2.1c1.3,0,2.2-0.9,2.2-2.3v-3.4L267.5-105.1L267.5-105.1z"/>
	<path class="st0" d="M275.8-105.1v5.6c0,2.2-1.1,3.2-3.2,3.2c-1.2,0-2.3-0.3-3-1l0.4-0.7c0.6,0.6,1.5,0.9,2.5,0.9
		c1.6,0,2.4-0.7,2.4-2.3v-0.8c-0.5,0.8-1.5,1.2-2.5,1.2c-1.8,0-3.2-1.3-3.2-3.1s1.4-3.1,3.2-3.1c1.1,0,2,0.4,2.5,1.3v-1.2
		L275.8-105.1L275.8-105.1z M275-102.1c0-1.4-1-2.3-2.4-2.3c-1.4,0-2.4,0.9-2.4,2.3s1,2.3,2.4,2.3C273.9-99.7,275-100.7,275-102.1z"
		/>
	<path class="st0" d="M284.1-102.4v3.7h-0.9v-3.6c0-1.3-0.7-2-1.9-2c-1.4,0-2.2,0.8-2.2,2.3v3.4h-0.9v-9h0.9v3.8
		c0.5-0.7,1.3-1.2,2.4-1.2C283.1-105.2,284.1-104.3,284.1-102.4z"/>
	<path class="st0" d="M295.5-107.8v9h-0.8v-1.3c-0.5,0.9-1.4,1.3-2.5,1.3c-1.8,0-3.2-1.3-3.2-3.3c0-1.9,1.4-3.2,3.2-3.2
		c1,0,1.9,0.4,2.4,1.3v-3.8L295.5-107.8L295.5-107.8z M294.6-101.9c0-1.5-1-2.5-2.4-2.5c-1.4,0-2.4,1-2.4,2.5s1,2.5,2.4,2.5
		C293.6-99.4,294.6-100.4,294.6-101.9z"/>
	<path class="st0" d="M302.7-102.7v4h-0.8v-1c-0.4,0.7-1.1,1.1-2.2,1.1c-1.5,0-2.3-0.8-2.3-1.9c0-1,0.6-1.8,2.5-1.8h2v-0.4
		c0-1.1-0.6-1.7-1.8-1.7c-0.8,0-1.6,0.3-2.1,0.8l-0.4-0.7c0.7-0.6,1.6-0.9,2.6-0.9C301.8-105.2,302.7-104.3,302.7-102.7z
		 M301.9-100.6v-1.1h-2c-1.2,0-1.6,0.5-1.6,1.1c0,0.7,0.6,1.2,1.6,1.2C300.8-99.3,301.5-99.8,301.9-100.6z"/>
	<path class="st0" d="M308.5-99.1c-0.3,0.3-0.9,0.4-1.4,0.4c-1.2,0-1.9-0.7-1.9-1.9v-3.9h-1.1v-0.7h1.1v-1.4h0.9v1.4h2v0.7h-2v3.8
		c0,0.8,0.4,1.2,1.1,1.2c0.4,0,0.7-0.1,1-0.3L308.5-99.1z"/>
	<path class="st0" d="M314.9-102.7v4H314v-1c-0.4,0.7-1.1,1.1-2.2,1.1c-1.5,0-2.3-0.8-2.3-1.9c0-1,0.6-1.8,2.5-1.8h2v-0.4
		c0-1.1-0.6-1.7-1.8-1.7c-0.8,0-1.6,0.3-2.1,0.8l-0.4-0.7c0.6-0.6,1.6-0.9,2.6-0.9C313.9-105.2,314.9-104.3,314.9-102.7z M314-100.6
		v-1.1h-2c-1.2,0-1.6,0.5-1.6,1.1c0,0.7,0.6,1.2,1.6,1.2C312.9-99.3,313.7-99.8,314-100.6z"/>
</g>
<rect x="313.8" y="-146.7" class="st1" width="27.9" height="24.1"/>
<text transform="matrix(0.9644 0 0 1 313.8288 -136.0034)" class="st0" style="font-family:'Montserrat-Medium'; font-size:14.4645px;">™</text>
<g>
	<g>
		<g>
			<path class="st0" d="M89.5-117.4l2.4-5.4c2.1,1.2,4.8,2,7.2,2c2.1,0,2.8-0.4,2.8-1.2c0-2.8-12.1-0.5-12.1-8.7
				c0-4.1,3.4-7.4,10.2-7.4c2.9,0,6,0.6,8.3,1.9l-2.2,5.4c-2.2-1.1-4.2-1.6-6.1-1.6c-2.2,0-2.8,0.6-2.8,1.4c0,2.6,12.1,0.4,12.1,8.5
				c0,4-3.4,7.4-10.2,7.4C95.3-115.2,91.7-116.1,89.5-117.4z"/>
			<path class="st0" d="M115.8-131.9h-6.4v-5.7h20.2v5.7h-6.4v16.2h-7.4L115.8-131.9L115.8-131.9z"/>
			<path class="st0" d="M149.7-121.3v5.6h-18.2v-21.9h17.8v5.6h-10.6v2.6h9.3v5.3h-9.3v2.9L149.7-121.3L149.7-121.3z"/>
			<path class="st0" d="M172.1-115.7l-0.1-10l-4.8,8h-3.2l-4.8-7.7v9.6h-6.7v-21.9h6.1l7.1,11.7l7-11.7h6.1l0.1,21.9H172.1
				L172.1-115.7z"/>
			<path class="st0" d="M203.1-137.6v21.9h-3.4l-12.1-14.8v14.8h-4v-21.9h3.4l12.1,14.8v-14.8H203.1z"/>
			<path class="st0" d="M207.4-126.7c0-6.5,5-11.3,11.8-11.3c6.8,0,11.8,4.8,11.8,11.3c0,6.5-5,11.3-11.8,11.3
				C212.4-115.4,207.4-120.2,207.4-126.7z M226.9-126.7c0-4.5-3.3-7.7-7.7-7.7c-4.4,0-7.7,3.2-7.7,7.7s3.3,7.7,7.7,7.7
				C223.6-119,226.9-122.2,226.9-126.7z"/>
			<path class="st0" d="M254.6-137.6l-9.5,21.9h-4l-9.6-21.9h4.4l7.3,16.9l7.4-16.9C250.6-137.6,254.6-137.6,254.6-137.6z"/>
			<path class="st0" d="M270.4-120.8h-10.9l-2.2,5.1h-4.2l9.9-21.9h4l9.9,21.9h-4.2L270.4-120.8z M269.1-124l-4.1-9.6l-4.1,9.6
				H269.1z"/>
			<path class="st0" d="M283-134.2h-7.3v-3.4h18.6v3.4h-7.3v18.5H283L283-134.2L283-134.2z"/>
			<path class="st0" d="M313.8-119.1v3.4h-16.4v-21.9h16v3.4h-11.9v5.7H312v3.3h-10.6v6H313.8z"/>
		</g>
	</g>
</g>
<g>
	<path class="st2" d="M57.5-125c0,0.1,0,0.1,0,0.2C57.5-124.9,57.5-124.9,57.5-125z"/>
	<path class="st2" d="M84.6-153.9C84.6-153.9,84.6-154,84.6-153.9C84.6-153.9,84.6-153.9,84.6-153.9z"/>
	<path class="st3" d="M62-123.2c0,0.1,0,0.1,0,0.2C62-123,62-123.1,62-123.2"/>
	<g>
		
			<image style="overflow:visible;opacity:0.15;enable-background:new    ;" width="45" height="42" xlink:href="E1003BF8.png"  transform="matrix(0.9762 0 0 0.9762 54.765 -160.5399)">
		</image>
		<g>
			<path class="st4" d="M80.5-133.4L80.5-133.4c2.5-0.6,4.8-1.7,6.8-3.2C85.3-135.1,83-134,80.5-133.4"/>
		</g>
	</g>
	<g>
		
			<image style="overflow:visible;opacity:0.29;enable-background:new    ;" width="46" height="57" xlink:href="E1003BF9.png"  transform="matrix(0.9783 0 0 0.9783 62.7214 -187.4282)">
		</image>
		<g>
			<path class="st4" d="M86.3-143.1L86.3-143.1C86.3-143.1,86.3-143.1,86.3-143.1v-16.7c0-2.8,2.1-5.1,4.7-5.1
				c2.6,0,4.7,2.3,4.7,5.1v6.5c0,0,0,0,0,0l0,0C95.7-152.5,95.3-143.1,86.3-143.1"/>
		</g>
	</g>
	<g>
		
			<image style="overflow:visible;opacity:0.15;enable-background:new    ;" width="38" height="39" xlink:href="E1003BFF.png"  transform="matrix(0.9737 0 0 0.9737 63.7292 -179.5267)">
		</image>
		<g>
			<path class="st4" d="M89.3-155.6C89.3-155.6,89.3-155.6,89.3-155.6C89.3-155.6,89.3-155.6,89.3-155.6L89.3-155.6L89.3-155.6"/>
		</g>
	</g>
	<g>
		
			<image style="overflow:visible;opacity:0.55;enable-background:new    ;" width="47" height="46" xlink:href="E1003BFA.png"  transform="matrix(0.9783 0 0 0.9783 39.7401 -138.5399)">
		</image>
		<g>
			<path class="st5" d="M62.6-111.3c-2.6,0-4.7-2.3-4.7-5.1v-1.8c1.2,0,2.6,0,4.4,0c0.2,0,0.4,0,0.7,0c1.5-0.1,3-0.3,4.4-0.7v2.5
				C67.3-113.6,65.2-111.3,62.6-111.3"/>
		</g>
	</g>
	<g>
		
			<image style="overflow:visible;opacity:0.85;enable-background:new    ;" width="52" height="52" xlink:href="E1003BFB.png"  transform="matrix(0.9808 0 0 0.9808 35.7292 -161.5399)">
		</image>
		<g>
			<path class="st5" d="M58.5-127.8c1.7-6.6,6.7-12.5,13.2-14.5v0C65.1-140.3,60.2-134.4,58.5-127.8
				C58.5-127.8,58.5-127.8,58.5-127.8"/>
		</g>
	</g>
	<g>
		
			<image style="overflow:visible;opacity:0.85;enable-background:new    ;" width="46" height="43" xlink:href="E1003BF6.png"  transform="matrix(0.9767 0 0 0.9767 36.7641 -152.5399)">
		</image>
		<g>
			<path class="st5" d="M59.1-127.9c1.2-2.5,3.5-5,8.2-5.1l0,0c0,0,0,0,0,0v4.8c-1.3,0-2.9,0-5,0c-0.5,0-1,0-1.5,0.1
				c0.4-0.1,0.9-0.1,1.4-0.1C61.1-128.2,60.1-128.1,59.1-127.9"/>
		</g>
	</g>
	<g>
		
			<image style="overflow:visible;opacity:0.15;enable-background:new    ;" width="66" height="58" xlink:href="E1003BF7.png"  transform="matrix(0.9828 0 0 0.9828 41.7982 -176.5399)">
		</image>
		<g>
			<path class="st3" d="M71.8-133c-4.3,0-4.5,0-4.5,0c0-0.3,0.1-6.2,4.5-8.9V-133 M80.6-133.6c0.4-1.5,0.6-3.1,0.6-4.6l0,0l0,0
				c0,0,0,0,0,0v-4.7c4.9,0,5.1,0,5.1,0C86.3-142.6,86.1-135.8,80.6-133.6 M87.4-136.6c5.1-3.8,8.3-10.2,8.3-16.5l0,0
				C95.7-146.8,92.5-140.5,87.4-136.6"/>
		</g>
	</g>
	<g>
		
			<image style="overflow:visible;opacity:0.15;enable-background:new    ;" width="53" height="58" xlink:href="E1003C08.png"  transform="matrix(0.9811 0 0 0.9811 54.7292 -176.4927)">
		</image>
		<g>
			<path class="st6" d="M80.5-133.4c0-0.1,0-0.2,0.1-0.2c5.5-2.1,5.7-8.9,5.7-9.4l0,0c9-0.1,9.4-9.4,9.4-10.1
				c0,6.4-3.2,12.7-8.3,16.5C85.4-135.1,83.1-134,80.5-133.4"/>
		</g>
	</g>
	<path class="st7" d="M58.5-127.8c1.7-6.6,6.6-12.5,13.2-14.5v0.5c-4.4,2.6-4.5,8.5-4.5,8.9l0,0c-4.7,0-7,2.6-8.2,5.1
		C58.9-127.9,58.7-127.9,58.5-127.8"/>
	<path class="st5" d="M67.3-118.9L67.3-118.9c2-0.6,3.9-1.6,5.6-2.9C71.2-120.5,69.3-119.5,67.3-118.9"/>
	<path class="st8" d="M62.9-118.1c1.5-0.1,3-0.3,4.4-0.7v0C65.9-118.4,64.4-118.2,62.9-118.1"/>
	<g>
		
			<image style="overflow:visible;opacity:0.85;enable-background:new    ;" width="46" height="43" xlink:href="E1003C0B.png"  transform="matrix(0.9767 0 0 0.9767 53.7641 -154.5399)">
		</image>
		<g>
			<path class="st5" d="M71.8-128.2L71.8-128.2C71.8-128.2,71.8-128.2,71.8-128.2v-4.8c1.3,0,2.9,0,5,0c0.2,0,0.4,0,0.7,0
				c0.9,0,1.7-0.1,2.6-0.3C78.8-130.8,76.5-128.2,71.8-128.2"/>
		</g>
	</g>
	<g>
		
			<image style="overflow:visible;opacity:0.48;enable-background:new    ;" width="28" height="27" xlink:href="8508AB27.png"  transform="matrix(0.963 0 0 0.963 63.2439 -159.0438)">
		</image>
		<g>
			<path class="st5" d="M71.8-142.4v-2.5c0-2.8,2.1-5.1,4.7-5.1c2.6,0,4.7,2.3,4.7,5.1v1.8c-1.2,0-2.6,0-4.4,0c-0.5,0-1,0-1.5,0.1
				c0.4,0,0.9-0.1,1.4-0.1C75-143.1,73.3-142.8,71.8-142.4"/>
		</g>
	</g>
	<path class="st9" d="M77.4-133c0.9,0,1.7-0.1,2.5-0.3v0C79.2-133.1,78.3-133,77.4-133"/>
	<path class="st8" d="M71.8-142.3L71.8-142.3c1.6-0.5,3.2-0.8,4.9-0.8c-0.5,0-0.9,0-1.4,0.1C74.1-142.9,72.9-142.7,71.8-142.3"/>
	<path class="st7" d="M76.8-133c-2.1,0-3.7,0-5,0v-8.9c1-0.6,2.1-1,3.5-1.2c0.5,0,1-0.1,1.5-0.1c1.8,0,3.2,0,4.4,0v4.7c0,0,0,0,0,0
		l0,0c0,0.3-0.1,2.5-1.1,4.8C79.1-133.2,78.1-133,76.8-133c0.3,0,0.5,0,0.7,0C77.2-133,77-133,76.8-133"/>
	<path class="st10" d="M76.9-133c1.2,0,2.3-0.2,3.2-0.5c0,0-0.1,0.1-0.1,0.2c-0.8,0.2-1.7,0.3-2.6,0.3C77.3-133,77.1-133,76.9-133"
		/>
	<path class="st11" d="M71.8-141.9v-0.5c1.1-0.3,2.3-0.6,3.5-0.7C73.9-142.8,72.7-142.4,71.8-141.9"/>
	<g>
		
			<image style="overflow:visible;opacity:0.29;enable-background:new    ;" width="48" height="59" xlink:href="8508AB25.png"  transform="matrix(0.9792 0 0 0.9792 21.7292 -133.4253)">
		</image>
		<g>
			<path class="st12" d="M48.1-96.4c-2.6,0-4.7-2.3-4.7-5.1v-6.5c0,0,0,0,0,0v0c0-0.9,0.4-10,9.4-10.1l0,0c0,0,0,0,0,0v16.6
				C52.8-98.7,50.7-96.4,48.1-96.4"/>
		</g>
	</g>
	<g>
		
			<image style="overflow:visible;opacity:0.15;enable-background:new    ;" width="53" height="57" xlink:href="8508AB23.png"  transform="matrix(0.9811 0 0 0.9811 17.7292 -151.5022)">
		</image>
		<g>
			<path class="st12" d="M43.4-108.6c0.3-8.7,6.5-17.2,15.1-19.2c0,0,0,0,0,0C49.8-125.8,43.7-117.2,43.4-108.6"/>
		</g>
	</g>
	<path class="st13" d="M58.5-127.8C58.5-127.8,58.5-127.8,58.5-127.8L58.5-127.8C58.5-127.8,58.5-127.8,58.5-127.8L58.5-127.8
		 M59.1-127.9C59.1-127.9,59.1-127.9,59.1-127.9c1-0.2,2.1-0.3,3.1-0.3c-0.5,0-1,0-1.4,0.1C60.2-128.1,59.6-128,59.1-127.9"/>
	<path class="st14" d="M58.5-127.8C58.5-127.8,58.5-127.8,58.5-127.8c0.2-0.1,0.4-0.1,0.6-0.1c0,0,0,0,0,0
		C58.9-127.9,58.7-127.8,58.5-127.8"/>
	<g>
		
			<image style="overflow:visible;opacity:0.15;enable-background:new    ;" width="67" height="58" xlink:href="8508AB3D.png"  transform="matrix(0.9828 0 0 0.9828 17.8068 -151.5399)">
		</image>
		<g>
			<path class="st15" d="M43.4-108.1c0-0.2,0-0.4,0-0.6C43.4-108.4,43.4-108.3,43.4-108.1C43.4-108.1,43.4-108.1,43.4-108.1
				 M57.9-118.1c-4.9,0-5.1,0-5.1,0c0-0.3,0.1-7.3,5.7-9.4c-0.3,1.3-0.5,2.7-0.6,4.1c0,0.2,0,0.4,0,0.6c0,0,0,0,0,0v0c0,0,0,0,0,0
				V-118.1 M67.3-119.4v-8.8c4.3,0,4.5,0,4.5,0C71.8-127.7,71.6-121.9,67.3-119.4"/>
		</g>
	</g>
	<path class="st16" d="M62.3-118.1c-1.8,0-3.2,0-4.4,0v-4.8c0,0,0,0,0,0v0c0-0.4,0.1-2.6,1.1-4.8c0.5-0.2,1.1-0.3,1.8-0.4
		c0.5,0,1-0.1,1.5-0.1c2.1,0,3.7,0,5,0v8.8c-1.2,0.8-2.9,1.2-4.9,1.2c0.2,0,0.4,0,0.5,0C62.7-118.1,62.5-118.1,62.3-118.1 M62-123.2
		c0,0.1,0,0.1,0,0.2C62-123,62-123.1,62-123.2 M57.9-123.5c0-1.4,0.2-2.7,0.6-4.1l0,0C58.1-126.2,57.9-124.9,57.9-123.5"/>
	<path class="st17" d="M62-123c0,0,0-0.1,0-0.2C62-123.1,62-123,62-123"/>
	<path class="st18" d="M57.9-122.9c0-0.2,0-0.4,0-0.6C57.9-123.3,57.9-123.1,57.9-122.9C57.9-122.9,57.9-122.9,57.9-122.9"/>
	<path class="st17" d="M57.9-122.9c0-0.2,0-0.4,0-0.6c0-1.4,0.2-2.7,0.6-4.1c0.2-0.1,0.3-0.1,0.5-0.2
		C58-125.5,57.9-123.3,57.9-122.9"/>
	<path class="st15" d="M72.9-121.8c3.8-2.8,6.5-7.1,7.7-11.7l0,0C79.4-128.8,76.6-124.6,72.9-121.8"/>
	<polyline class="st19" points="80.5,-133.4 80.5,-133.4 80.5,-133.4 80.5,-133.4 80.5,-133.4 	"/>
	<path class="st18" d="M80.6-133.6c0.4-1.5,0.6-3.1,0.6-4.6l0,0C81.2-136.7,81-135.2,80.6-133.6L80.6-133.6"/>
	<path class="st20" d="M80.5-133.4c0-0.1,0-0.2,0.1-0.2l0,0C80.6-133.6,80.6-133.5,80.5-133.4L80.5-133.4"/>
	<g>
		
			<image style="overflow:visible;opacity:0.15;enable-background:new    ;" width="51" height="52" xlink:href="8508AB3F.png"  transform="matrix(0.9804 0 0 0.9804 41.7292 -156.5301)">
		</image>
		<g>
			<path class="st16" d="M67.3-118.9v-0.5c4.3-2.6,4.5-8.3,4.5-8.8l0,0c4.7,0,7-2.6,8.2-5.1c0.2,0,0.4-0.1,0.5-0.1
				c-1.2,4.6-3.9,8.8-7.7,11.7C71.2-120.5,69.3-119.5,67.3-118.9"/>
		</g>
	</g>
	<path class="st21" d="M80-133.3C80-133.3,80-133.3,80-133.3c0.2,0,0.4-0.1,0.5-0.1v0C80.4-133.4,80.2-133.3,80-133.3"/>
	<path class="st22" d="M62.4-118.1c2,0,3.7-0.5,4.9-1.2v0.5c-1.4,0.4-2.8,0.7-4.4,0.7C62.7-118.1,62.6-118.1,62.4-118.1"/>
	<path class="st17" d="M80.1-133.5c1-2.3,1.1-4.5,1.1-4.8c0,1.6-0.2,3.1-0.6,4.6C80.4-133.6,80.2-133.5,80.1-133.5"/>
	<path class="st23" d="M80-133.3c0-0.1,0.1-0.1,0.1-0.2c0.2-0.1,0.4-0.1,0.5-0.2c0,0.1,0,0.2-0.1,0.2
		C80.4-133.4,80.2-133.3,80-133.3"/>
	<g>
		
			<image style="overflow:visible;opacity:0.56;enable-background:new    ;" width="53" height="58" xlink:href="8508AB22.png"  transform="matrix(0.9811 0 0 0.9811 27.7292 -148.4927)">
		</image>
		<g>
			<path class="st24" d="M43.4-108.1c0-0.2,0-0.4,0-0.6c0.3-8.6,6.4-17.2,15.1-19.1c0,0.1,0,0.1,0,0.2c-5.5,2.2-5.7,9.1-5.7,9.4l0,0
				C43.8-118.1,43.4-108.9,43.4-108.1"/>
		</g>
	</g>
	<path class="st25" d="M58.5-127.6c0-0.1,0-0.1,0-0.2l0,0C58.5-127.7,58.5-127.6,58.5-127.6C58.5-127.6,58.5-127.6,58.5-127.6
		 M59-127.8c0,0,0-0.1,0.1-0.1c0.6-0.1,1.1-0.2,1.7-0.2C60.1-128.1,59.5-127.9,59-127.8"/>
	<path class="st26" d="M58.5-127.6c0-0.1,0-0.1,0-0.2c0.2,0,0.4-0.1,0.5-0.1c0,0.1,0,0.1-0.1,0.1C58.8-127.7,58.6-127.6,58.5-127.6"
		/>
</g>
<g>
	<g>
		<g>
			<path class="st0" d="M44.4,68.4l-2-2.8c-0.2,0-0.4,0-0.7,0h-2.3v2.8h-0.9l0-8.7l3.3,0c2.2,0,3.6,1.1,3.6,3c0,1.4-0.7,2.3-2,2.7
				l2.1,3H44.4z M44.3,62.7c0-1.4-0.9-2.2-2.7-2.2h-2.3l0,4.4h2.3C43.4,64.9,44.3,64,44.3,62.7z"/>
			<path class="st0" d="M53,65.4h-5.5c0.1,1.4,1.1,2.3,2.6,2.3c0.8,0,1.5-0.3,2-0.9l0.5,0.6c-0.6,0.7-1.5,1.1-2.5,1.1
				c-2,0-3.4-1.4-3.4-3.3s1.4-3.3,3.2-3.3c1.8,0,3.2,1.4,3.2,3.3C53,65.2,53,65.3,53,65.4z M47.5,64.7l4.7,0c-0.1-1.3-1-2.2-2.3-2.2
				C48.5,62.6,47.6,63.5,47.5,64.7z"/>
			<path class="st0" d="M60.8,59.2l0,9.3h-0.8v-1.3c-0.5,0.9-1.4,1.4-2.5,1.4c-1.9,0-3.3-1.4-3.3-3.3c0-2,1.4-3.3,3.3-3.3
				c1,0,1.9,0.4,2.5,1.3v-3.9H60.8z M59.9,65.1c0-1.5-1-2.6-2.4-2.6c-1.4,0-2.4,1-2.4,2.6c0,1.5,1,2.6,2.4,2.6
				C58.9,67.7,59.9,66.7,59.9,65.1z"/>
			<path class="st0" d="M69,65.4h-5.5c0.1,1.4,1.1,2.3,2.6,2.3c0.8,0,1.5-0.3,2-0.9l0.5,0.6c-0.6,0.7-1.5,1.1-2.5,1.1
				c-2,0-3.4-1.4-3.4-3.3c0-1.9,1.4-3.3,3.2-3.3c1.8,0,3.2,1.4,3.2,3.3C69,65.2,69,65.3,69,65.4z M63.5,64.7h4.7
				c-0.1-1.3-1-2.2-2.3-2.2C64.5,62.6,63.6,63.5,63.5,64.7z"/>
			<path class="st0" d="M72.9,59.1c0.5,0,1,0.1,1.3,0.4L74,60.2c-0.2-0.2-0.6-0.3-1-0.3c-0.8,0-1.2,0.4-1.2,1.2v0.8h2v0.7h-2v5.8H71
				v-5.8h-1.2v-0.7H71V61C71,59.9,71.7,59.1,72.9,59.1z M77.1,59.8c0,0.4-0.3,0.6-0.6,0.6c-0.4,0-0.6-0.3-0.6-0.6
				c0-0.3,0.3-0.6,0.6-0.6C76.9,59.2,77.1,59.4,77.1,59.8z M76,61.9h0.9l0,6.6H76V61.9z"/>
			<path class="st0" d="M85.4,64.6v3.8h-0.9l0-3.7c0-1.4-0.7-2.1-2-2.1c-1.4,0-2.3,0.9-2.3,2.4l0,3.4h-0.9v-6.6h0.8v1.2
				c0.5-0.8,1.4-1.3,2.5-1.3C84.3,61.8,85.4,62.7,85.4,64.6z"/>
			<path class="st0" d="M87.7,59.8c0-0.3,0.3-0.6,0.6-0.6c0.4,0,0.6,0.3,0.6,0.6c0,0.4-0.3,0.6-0.6,0.6
				C87.9,60.4,87.7,60.1,87.7,59.8z M87.9,61.9h0.9l0,6.6h-0.9V61.9z"/>
			<path class="st0" d="M97.3,64.6v3.8h-0.9v-3.7c0-1.4-0.7-2.1-2-2.1c-1.4,0-2.3,0.9-2.3,2.4l0,3.4h-0.9v-6.6h0.8v1.2
				c0.5-0.8,1.4-1.3,2.5-1.3C96.2,61.8,97.3,62.7,97.3,64.6z"/>
			<path class="st0" d="M105.8,61.9v5.8c0,2.3-1.1,3.3-3.3,3.3c-1.2,0-2.4-0.4-3.1-1l0.4-0.7c0.6,0.6,1.6,0.9,2.6,0.9
				c1.7,0,2.4-0.8,2.4-2.4v-0.8c-0.5,0.8-1.5,1.3-2.6,1.3c-1.9,0-3.3-1.3-3.3-3.2c0-1.9,1.4-3.2,3.3-3.2c1.1,0,2,0.4,2.6,1.3v-1.3
				H105.8z M104.9,65c0-1.4-1-2.4-2.5-2.4s-2.5,1-2.5,2.4c0,1.4,1,2.4,2.5,2.4C103.9,67.4,104.9,66.4,104.9,65z"/>
			<path class="st0" d="M117.5,59.2v9.3h-0.8v-1.3c-0.5,0.9-1.4,1.4-2.5,1.4c-1.9,0-3.3-1.4-3.3-3.3s1.4-3.3,3.3-3.3
				c1,0,1.9,0.4,2.5,1.3l0-3.9H117.5z M116.7,65.1c0-1.5-1-2.6-2.4-2.6c-1.4,0-2.4,1-2.4,2.6c0,1.5,1,2.6,2.4,2.6
				C115.6,67.7,116.7,66.7,116.7,65.1z"/>
			<path class="st0" d="M123.3,61.8v0.9c-0.1,0-0.1,0-0.2,0c-1.4,0-2.2,0.9-2.2,2.4v3.3H120l0-6.6h0.8v1.3
				C121.3,62.3,122.1,61.8,123.3,61.8z"/>
			<path class="st0" d="M130.9,61.9l0,6.6h-0.8v-1.2c-0.5,0.8-1.3,1.3-2.4,1.3c-1.7,0-2.8-0.9-2.8-2.8v-3.8h0.9v3.7
				c0,1.4,0.7,2.1,2,2.1c1.4,0,2.2-0.9,2.2-2.4v-3.4H130.9z"/>
			<path class="st0" d="M139.5,61.9l0,5.8c0,2.3-1.1,3.3-3.3,3.3c-1.2,0-2.4-0.4-3.1-1l0.4-0.7c0.6,0.6,1.6,0.9,2.6,0.9
				c1.7,0,2.4-0.8,2.4-2.4v-0.8c-0.5,0.8-1.5,1.3-2.6,1.3c-1.9,0-3.3-1.3-3.3-3.2s1.4-3.2,3.3-3.2c1.1,0,2,0.4,2.6,1.3v-1.3H139.5z
				 M138.6,65c0-1.4-1-2.4-2.5-2.4s-2.5,1-2.5,2.4c0,1.4,1,2.4,2.5,2.4C137.6,67.4,138.6,66.4,138.6,65z"/>
			<path class="st0" d="M151.3,59.2v9.3h-0.8v-1.3c-0.5,0.9-1.4,1.4-2.5,1.4c-1.9,0-3.3-1.4-3.3-3.3c0-2,1.4-3.3,3.3-3.3
				c1,0,1.9,0.4,2.5,1.3l0-3.9L151.3,59.2z M150.4,65.1c0-1.5-1-2.6-2.4-2.6c-1.4,0-2.4,1-2.4,2.6c0,1.5,1,2.6,2.4,2.6
				C149.3,67.7,150.4,66.7,150.4,65.1z"/>
			<path class="st0" d="M153.5,59.8c0-0.3,0.3-0.6,0.6-0.6s0.6,0.3,0.6,0.6c0,0.4-0.3,0.6-0.6,0.6C153.8,60.4,153.5,60.1,153.5,59.8
				z M153.7,61.9h0.9v6.6h-0.9V61.9z"/>
			<path class="st0" d="M156.2,67.7l0.4-0.7c0.5,0.4,1.4,0.7,2.3,0.7c1.2,0,1.8-0.4,1.8-1.1c0-1.7-4.3-0.4-4.3-3
				c0-1.1,0.9-1.9,2.6-1.9c0.8,0,1.8,0.2,2.3,0.6l-0.4,0.7c-0.6-0.4-1.3-0.6-1.9-0.6c-1.2,0-1.7,0.5-1.7,1.1c0,1.8,4.3,0.4,4.3,3
				c0,1.1-1,1.9-2.7,1.9C157.8,68.5,156.7,68.1,156.2,67.7z"/>
			<path class="st0" d="M162.5,65.1c0-2,1.4-3.3,3.4-3.3c1.1,0,2,0.4,2.6,1.3l-0.7,0.4c-0.4-0.7-1.1-1-1.9-1c-1.4,0-2.5,1-2.5,2.6
				c0,1.5,1,2.6,2.5,2.6c0.8,0,1.5-0.3,1.9-1l0.7,0.4c-0.5,0.8-1.5,1.3-2.6,1.3C164,68.5,162.5,67.1,162.5,65.1z"/>
			<path class="st0" d="M169.4,65.1c0-1.9,1.4-3.3,3.3-3.3c1.9,0,3.3,1.4,3.3,3.3c0,1.9-1.4,3.3-3.3,3.3
				C170.9,68.5,169.4,67.1,169.4,65.1z M175.2,65.1c0-1.5-1-2.6-2.4-2.6c-1.4,0-2.4,1-2.4,2.6c0,1.5,1,2.6,2.4,2.6
				C174.2,67.7,175.2,66.7,175.2,65.1z"/>
			<path class="st0" d="M183.3,61.9l-2.9,6.6h-0.9l-2.9-6.6h0.9l2.5,5.6l2.5-5.6H183.3z"/>
			<path class="st0" d="M190.1,65.4h-5.5c0.1,1.4,1.1,2.3,2.6,2.3c0.8,0,1.5-0.3,2-0.9l0.5,0.6c-0.6,0.7-1.5,1.1-2.5,1.1
				c-2,0-3.4-1.4-3.4-3.3s1.4-3.3,3.2-3.3c1.8,0,3.2,1.4,3.2,3.3C190.1,65.2,190.1,65.3,190.1,65.4z M184.6,64.7h4.7
				c-0.1-1.3-1-2.2-2.3-2.2C185.6,62.6,184.7,63.5,184.6,64.7z"/>
			<path class="st0" d="M195.2,61.8v0.9c-0.1,0-0.1,0-0.2,0c-1.4,0-2.2,0.9-2.2,2.4v3.3l-0.9,0v-6.6h0.8v1.3
				C193.1,62.3,194,61.8,195.2,61.8z"/>
			<path class="st0" d="M202.6,61.9l-3.3,7.4c-0.5,1.3-1.2,1.7-2.2,1.7c-0.6,0-1.2-0.2-1.6-0.6l0.4-0.7c0.3,0.3,0.7,0.5,1.2,0.5
				c0.6,0,1-0.3,1.4-1.1l0.3-0.6l-2.9-6.6h0.9l2.5,5.6l2.5-5.6H202.6z"/>
			<path class="st0" d="M210.6,68c-0.3,0.3-0.9,0.5-1.4,0.5c-1.2,0-1.9-0.7-1.9-1.9v-4h-1.2v-0.7l1.2,0v-1.4h0.9v1.4h2v0.7h-2v3.9
				c0,0.8,0.4,1.2,1.1,1.2c0.4,0,0.7-0.1,1-0.3L210.6,68z"/>
			<path class="st0" d="M218.2,64.6v3.8h-0.9v-3.7c0-1.4-0.7-2.1-2-2.1c-1.4,0-2.3,0.9-2.3,2.4v3.4h-0.9v-9.3h0.9V63
				c0.5-0.8,1.3-1.2,2.5-1.2C217.1,61.8,218.2,62.7,218.2,64.6z"/>
			<path class="st0" d="M224,61.8v0.9c-0.1,0-0.1,0-0.2,0c-1.4,0-2.2,0.9-2.2,2.4v3.3h-0.9v-6.6h0.8v1.3
				C221.9,62.3,222.7,61.8,224,61.8z"/>
			<path class="st0" d="M224.8,65.1c0-1.9,1.4-3.3,3.3-3.3s3.3,1.4,3.3,3.3s-1.4,3.3-3.3,3.3S224.8,67.1,224.8,65.1z M230.6,65.1
				c0-1.5-1-2.6-2.4-2.6c-1.4,0-2.4,1-2.4,2.6c0,1.5,1,2.6,2.4,2.6S230.6,66.7,230.6,65.1z"/>
			<path class="st0" d="M239.2,61.9v6.6h-0.8v-1.2c-0.5,0.8-1.3,1.3-2.4,1.3c-1.7,0-2.8-0.9-2.8-2.8v-3.8h0.9v3.7
				c0,1.4,0.7,2.1,2,2.1c1.4,0,2.2-0.9,2.2-2.4l0-3.4H239.2z"/>
			<path class="st0" d="M247.8,61.9v5.8c0,2.3-1.1,3.3-3.3,3.3c-1.2,0-2.4-0.4-3.1-1l0.4-0.7c0.6,0.6,1.6,0.9,2.6,0.9
				c1.7,0,2.4-0.8,2.4-2.4v-0.8c-0.5,0.8-1.5,1.3-2.6,1.3c-1.9,0-3.3-1.3-3.3-3.2c0-1.9,1.4-3.2,3.3-3.2c1.1,0,2,0.4,2.6,1.3v-1.3
				H247.8z M246.9,65c0-1.4-1-2.4-2.5-2.4c-1.4,0-2.5,1-2.5,2.4c0,1.4,1,2.4,2.5,2.4C245.9,67.4,246.9,66.4,246.9,65z"/>
			<path class="st0" d="M256.3,64.6v3.8h-0.9v-3.7c0-1.4-0.7-2.1-2-2.1c-1.4,0-2.3,0.9-2.3,2.4v3.4h-0.9v-9.3h0.9V63
				c0.5-0.8,1.3-1.2,2.5-1.2C255.2,61.8,256.3,62.7,256.3,64.6z"/>
			<path class="st0" d="M268,59.2v9.3h-0.8v-1.3c-0.5,0.9-1.4,1.4-2.5,1.4c-1.9,0-3.3-1.4-3.3-3.3c0-2,1.4-3.3,3.3-3.3
				c1,0,1.9,0.4,2.5,1.3v-3.9H268z M267.1,65.1c0-1.5-1-2.6-2.4-2.6c-1.4,0-2.4,1-2.4,2.6c0,1.5,1,2.6,2.4,2.6
				C266.1,67.7,267.1,66.7,267.1,65.1z"/>
			<path class="st0" d="M275.4,64.3v4.1h-0.8v-1c-0.4,0.7-1.2,1.1-2.3,1.1c-1.5,0-2.4-0.8-2.4-1.9c0-1,0.6-1.9,2.5-1.9h2.1v-0.4
				c0-1.1-0.6-1.7-1.9-1.7c-0.8,0-1.6,0.3-2.2,0.8l-0.4-0.7c0.7-0.6,1.6-0.9,2.7-0.9C274.5,61.8,275.4,62.7,275.4,64.3z M274.6,66.4
				v-1.1h-2.1c-1.3,0-1.7,0.5-1.7,1.2c0,0.8,0.6,1.2,1.7,1.2C273.5,67.8,274.2,67.3,274.6,66.4z"/>
			<path class="st0" d="M281.3,68c-0.3,0.3-0.9,0.5-1.4,0.5c-1.2,0-1.9-0.7-1.9-1.9v-4h-1.2v-0.7h1.2v-1.4l0.9,0v1.4h2v0.7h-2v3.9
				c0,0.8,0.4,1.2,1.1,1.2c0.4,0,0.7-0.1,1-0.3L281.3,68z"/>
			<path class="st0" d="M287.9,64.3v4.1H287v-1c-0.4,0.7-1.2,1.1-2.3,1.1c-1.5,0-2.4-0.8-2.4-1.9c0-1,0.6-1.9,2.5-1.9h2.1v-0.4
				c0-1.1-0.6-1.7-1.9-1.7c-0.8,0-1.6,0.3-2.2,0.8l-0.4-0.7c0.7-0.6,1.6-0.9,2.7-0.9C286.9,61.8,287.9,62.7,287.9,64.3z M287,66.4
				v-1.1h-2.1c-1.3,0-1.7,0.5-1.7,1.2c0,0.8,0.6,1.2,1.7,1.2C285.9,67.8,286.6,67.3,287,66.4z"/>
		</g>
	</g>
	<g>
		<g>
			<g>
				<path class="st0" d="M56.6,49.2l2.4-5.5c2.1,1.3,4.9,2.1,7.4,2.1c2.2,0,2.9-0.5,2.9-1.2c0-2.8-12.4-0.5-12.4-8.9
					c0-4.2,3.5-7.6,10.5-7.6c3,0,6.1,0.6,8.5,2l-2.3,5.5c-2.2-1.1-4.3-1.7-6.3-1.7c-2.2,0-2.9,0.6-2.9,1.4c0,2.7,12.4,0.5,12.4,8.7
					c0,4.1-3.5,7.6-10.5,7.6C62.6,51.5,58.8,50.6,56.6,49.2z"/>
				<path class="st0" d="M83.6,34.4l-6.6,0l0-5.9l20.7,0v5.9l-6.6,0V51l-7.6,0L83.6,34.4L83.6,34.4z"/>
				<path class="st0" d="M118.4,45.3l0,5.7l-18.7,0l0-22.5l18.3,0l0,5.7l-10.8,0v2.6l9.5,0v5.5l-9.5,0l0,3H118.4L118.4,45.3z"/>
				<path class="st0" d="M141.4,51l-0.1-10.2l-4.9,8.2h-3.3l-4.9-7.9V51h-6.9l0-22.5l6.2,0l7.3,12l7.1-12l6.2,0l0.1,22.5L141.4,51
					L141.4,51z"/>
				<path class="st0" d="M173.2,28.5V51h-3.4l-12.4-15.2V51l-4.1,0V28.5h3.4L169,43.7l0-15.2H173.2z"/>
				<path class="st0" d="M177.6,39.8c0-6.6,5.1-11.6,12.1-11.6c7,0,12.1,4.9,12.1,11.6s-5.1,11.6-12.1,11.6
					C182.7,51.3,177.6,46.4,177.6,39.8z M197.6,39.8c0-4.6-3.4-7.9-7.9-7.9c-4.5,0-7.9,3.3-7.9,7.9s3.4,7.9,7.9,7.9
					C194.2,47.7,197.6,44.3,197.6,39.8z"/>
				<path class="st0" d="M226.1,28.5L216.3,51h-4.1l-9.8-22.5l4.5,0l7.5,17.3l7.5-17.3L226.1,28.5z"/>
				<path class="st0" d="M242.3,45.8l-11.2,0l-2.2,5.2h-4.3l10.1-22.5l4.1,0L248.9,51h-4.4L242.3,45.8z M240.9,42.5l-4.2-9.8
					l-4.2,9.8L240.9,42.5z"/>
				<path class="st0" d="M255.2,32l-7.4,0v-3.5l19.1,0V32l-7.4,0V51h-4.2L255.2,32L255.2,32z"/>
				<path class="st0" d="M286.8,47.5V51L270,51V28.5l16.4,0V32l-12.2,0v5.8l10.8,0l0,3.4l-10.8,0v6.2L286.8,47.5z"/>
			</g>
		</g>
	</g>
</g>
<g>
	<g>
		<path class="st27" d="M27.2,47.2c-1.2,1.2-2.4,2.4-3.5,3.7c-1.1,1.3-2.3,2.5-3.3,3.8c1.4-0.9,2.8-1.9,4.1-2.9
			c1.3-1.1,2.6-2.2,3.8-3.5c1.2-1.2,2.4-2.5,3.5-3.8c1.1-1.3,2.1-2.7,2.9-4.1c-1.3,1-2.6,2.1-3.8,3.3C29.7,44.8,28.4,46,27.2,47.2z"
			/>
	</g>
	<g>
		<path class="st27" d="M28.2,42.1c-1.3,1.1-2.6,2.2-3.8,3.4c-1.2,1.2-2.4,2.5-3.5,3.8c-1.1,1.3-2.1,2.6-3,4c1.4-1,2.6-2,3.9-3.2
			c1.3-1.1,2.5-2.3,3.7-3.5c1.2-1.2,2.4-2.4,3.5-3.7c1.1-1.2,2.2-2.5,3.2-3.8c0,0,0,0,0,0c0,0,0,0,0,0C30.8,40,29.5,41,28.2,42.1z"
			/>
	</g>
	<g>
		<path class="st27" d="M26.6,39.8c-1.3,1-2.6,2.1-3.8,3.3c-1.2,1.2-2.3,2.4-3.4,3.8c-1,1.3-2,2.7-2.7,4.1c1.2-1.1,2.4-2.2,3.6-3.3
			c1.2-1.1,2.4-2.3,3.6-3.5c1.2-1.2,2.4-2.3,3.5-3.5c0.9-1,1.9-1.9,2.8-2.9c-0.1-0.1-0.2-0.1-0.2-0.2C28.7,38.3,27.6,39,26.6,39.8z"
			/>
	</g>
	<g>
		<path class="st27" d="M27.1,35.8L27.1,35.8c-0.1-0.1-0.2-0.1-0.3-0.2c-0.8,0.4-1.6,0.9-2.4,1.5c-1.4,0.9-2.7,2-3.9,3.2
			c-1.2,1.2-2.3,2.5-3.3,3.8c-1,1.4-1.8,2.8-2.5,4.3c1.2-1.2,2.3-2.4,3.4-3.6c1.1-1.2,2.3-2.3,3.5-3.5c1.2-1.1,2.4-2.3,3.6-3.4
			c0.7-0.7,1.5-1.3,2.2-2C27.2,36,27.2,35.9,27.1,35.8L27.1,35.8z"/>
	</g>
	<g>
		<path class="st27" d="M22.8,34c-1.5,0.9-2.8,2-4.1,3.2c-1.2,1.2-2.4,2.5-3.3,4c-0.9,1.4-1.7,3-2.3,4.6c1.1-1.3,2.2-2.6,3.3-3.8
			c1.1-1.2,2.2-2.4,3.4-3.6c1.2-1.1,2.4-2.2,3.7-3.3c0.5-0.4,0.9-0.8,1.4-1.1c-0.3-0.2-0.6-0.4-0.9-0.6C23.6,33.5,23.2,33.7,22.8,34
			z"/>
	</g>
	<g>
		<path class="st28" d="M15.8,72.6c-0.3-0.2-0.7-0.1-0.9,0.2s-0.1,0.7,0.2,0.9c0.3,0.2,0.7,0.1,0.9-0.2
			C16.2,73.2,16.1,72.8,15.8,72.6z"/>
	</g>
	<g>
		<path class="st29" d="M8.9,60.8c-3,1.1-5.6,3-7.3,5.8c2-2.1,4.8-3.2,7.7-3.8c-0.1-0.6,0-1.2,0.2-1.7C9.3,61,9.1,60.9,8.9,60.8z"/>
	</g>
	<g>
		<path class="st29" d="M30.4,55.2c-4.7,2.9-10.1,3.1-15.4,4c0.8,0.5,1.4,1.3,1.6,2.2C21.7,60.6,26.8,59.1,30.4,55.2z"/>
	</g>
	<g>
		<path class="st29" d="M31.3,20.9c0,0.6,0.1,1.2,0.2,1.8c0.2,0.1,0.4,0.2,0.6,0.3c0.3,0.2,0.5,0.3,0.7,0.6c0.3-0.3,0.6-0.6,1-0.8
			c-1.2-3.3-1.7-6.7-0.7-10.1c-0.4,1.4-1.4,2.5-1.7,3.9C31.2,18,31.3,19.5,31.3,20.9z"/>
	</g>
	<g>
		<path class="st30" d="M40.2,46.9c0.3-1.2,0.4-2.5,0.5-3.8c0.1-4.9-1.9-9.4-3.9-13.7c-1,0.3-2.1,0.2-3-0.3
			c-0.2-0.1-0.3-0.2-0.4-0.3c-0.1,0.1-0.1,0.2-0.2,0.2c1.3,3.9,2.9,7.8,3.1,12c0.5,8-3.4,15.7-10.7,19.3c-0.6,0.3-1.4,0.6-1.9,0.9
			C31.3,60.2,38.4,54.6,40.2,46.9z"/>
	</g>
	<g>
		<path class="st28" d="M15.4,66.6c-0.6-0.3-1.3-0.2-1.6,0.4c-0.3,0.6-0.2,1.3,0.4,1.6c0.6,0.3,1.3,0.2,1.6-0.4
			C16.2,67.7,16,67,15.4,66.6z"/>
	</g>
	<g>
		<path class="st28" d="M14.5,61.9c-0.1-0.4-0.3-0.7-0.7-0.9c-0.8-0.5-1.7-0.2-2.2,0.5c-0.2,0.3-0.2,0.5-0.2,0.8
			c0,0.5,0.3,1.1,0.8,1.4c0.8,0.5,1.7,0.2,2.2-0.5C14.6,62.8,14.7,62.3,14.5,61.9z"/>
	</g>
	<g>
		<path class="st30" d="M11.8,55.6c-0.9-0.5-2.1-0.3-2.6,0.6c-0.5,0.9-0.3,2.1,0.7,2.6c0.9,0.5,2.1,0.3,2.6-0.7
			C13,57.3,12.7,56.1,11.8,55.6z"/>
	</g>
	<g>
		<path class="st30" d="M10.9,53.1c0.6-1,0.3-2.3-0.7-3c-1-0.6-2.3-0.3-3,0.7c-0.6,1-0.3,2.3,0.7,3C8.9,54.4,10.2,54.1,10.9,53.1z"
			/>
	</g>
	<g>
		<path class="st30" d="M10.1,47.7c0.7-1.1,0.3-2.5-0.8-3.2c-1.1-0.7-2.5-0.3-3.2,0.8c-0.7,1.1-0.3,2.5,0.8,3.2
			C8.1,49.1,9.5,48.7,10.1,47.7z"/>
	</g>
	<g>
		<path class="st31" d="M10.7,42.2c0.7-1.1,0.3-2.6-0.8-3.3c-1.1-0.7-2.6-0.3-3.3,0.8c-0.7,1.1-0.3,2.6,0.8,3.3
			C8.5,43.7,10,43.3,10.7,42.2z"/>
	</g>
	<g>
		<path class="st31" d="M12.8,37.1c0.7-1.2,0.3-2.7-0.8-3.4c-1.2-0.7-2.7-0.3-3.3,0.8c-0.7,1.2-0.3,2.7,0.8,3.3
			C10.6,38.6,12.1,38.2,12.8,37.1z"/>
	</g>
	<g>
		<path class="st31" d="M13.2,33.7c1.1,0.7,2.6,0.3,3.3-0.8c0.7-1.1,0.3-2.6-0.8-3.3c-1.1-0.7-2.6-0.3-3.3,0.8
			C11.7,31.6,12.1,33,13.2,33.7z"/>
	</g>
	<g>
		<path class="st32" d="M18.1,30.8c1.1,0.7,2.5,0.3,3.2-0.8c0.7-1.1,0.3-2.5-0.8-3.2c-1.1-0.7-2.5-0.3-3.2,0.8
			C16.6,28.7,17,30.2,18.1,30.8z"/>
	</g>
	<g>
		<path class="st32" d="M23.5,29c1,0.6,2.3,0.3,2.9-0.7c0.6-1,0.3-2.3-0.7-2.9c-1-0.6-2.3-0.3-2.9,0.7C22.1,27.1,22.5,28.4,23.5,29z
			"/>
	</g>
	<g>
		<path class="st32" d="M31.1,24.8c-0.9-0.5-2.1-0.3-2.6,0.6c-0.5,0.9-0.3,2.1,0.6,2.6s2.1,0.3,2.6-0.6C32.3,26.5,32,25.3,31.1,24.8
			z"/>
	</g>
	<g>
		<path class="st33" d="M34.8,27.3c0.3,0.2,0.7,0.3,1,0.2c0.5-0.1,0.9-0.3,1.1-0.7c0.4-0.7,0.2-1.7-0.5-2.2
			c-0.6-0.4-1.3-0.3-1.8,0.2c-0.1,0.1-0.2,0.2-0.3,0.4C33.9,25.9,34.1,26.8,34.8,27.3z"/>
	</g>
	<g>
		<path class="st33" d="M40.5,26c0.5,0.3,1.2,0.2,1.6-0.4c0.3-0.5,0.2-1.2-0.4-1.6c-0.5-0.3-1.2-0.2-1.6,0.4
			C39.8,24.9,40,25.6,40.5,26z"/>
	</g>
	<g>
		<path class="st33" d="M45.9,23.3c0.3,0.2,0.7,0.1,0.8-0.2c0.2-0.3,0.1-0.7-0.2-0.8c-0.3-0.2-0.7-0.1-0.8,0.2
			C45.6,22.8,45.6,23.2,45.9,23.3z"/>
	</g>
</g>
<text transform="matrix(1.0963 0 0 1 283.0293 27.0942)" class="st0 st34 st35">®</text>
</svg>
