<?xml version="1.0" encoding="utf-8"?>
<!-- Generator: Adobe Illustrator 26.3.1, SVG Export Plug-In . SVG Version: 6.00 Build 0)  -->
<svg version="1.1" id="Layer_1" xmlns="http://www.w3.org/2000/svg" xmlns:xlink="http://www.w3.org/1999/xlink" x="0px" y="0px"
	 viewBox="0 0 1200 200" style="enable-background:new 0 0 1200 200;" xml:space="preserve">
<style type="text/css">
	.st0{fill:#E08026;}
	.st1{opacity:0.63;}
	.st2{opacity:0.63;fill:none;stroke:#A06E00;stroke-width:4;stroke-miterlimit:10;}
</style>
<rect class="st0" width="1200" height="200"/>
<g>
	<g class="st1">
		
			<rect x="36.66" y="86.91" transform="matrix(0.8707 0.4919 -0.4919 0.8707 58.9447 -14.963)" class="st2" width="42.53" height="35.38"/>
		<polygon class="st2" points="66.53,89.36 83.74,99.08 70,103.32 56.26,107.55 52.79,93.59 49.33,79.64 		"/>
	</g>
	<g class="st1">
		
			<rect x="91.7" y="67.37" transform="matrix(0.8707 0.4919 -0.4919 0.8707 50.2873 -40.1667)" class="st2" width="19.64" height="16.34"/>
		<polygon class="st2" points="105.49,68.5 113.44,72.99 107.09,74.94 100.75,76.9 99.15,70.46 97.55,64.01 		"/>
	</g>
</g>
<g>
	<g class="st1">
		
			<rect x="1129.2" y="86.91" transform="matrix(-0.8707 0.4919 -0.4919 -0.8707 2203.5691 -370.2411)" class="st2" width="42.53" height="35.38"/>
		<polygon class="st2" points="1141.85,89.36 1124.65,99.08 1138.39,103.32 1152.13,107.55 1155.59,93.59 1159.06,79.64 		"/>
	</g>
	<g class="st1">
		
			<rect x="1097.05" y="67.37" transform="matrix(-0.8707 0.4919 -0.4919 -0.8707 2107.7214 -403.1643)" class="st2" width="19.64" height="16.34"/>
		<polygon class="st2" points="1102.89,68.5 1094.95,72.99 1101.29,74.94 1107.64,76.9 1109.24,70.46 1110.84,64.01 		"/>
	</g>
</g>
</svg>
