<?xml version="1.0" encoding="utf-8"?>
<!-- Generator: Adobe Illustrator 27.5.0, SVG Export Plug-In . SVG Version: 6.00 Build 0)  -->
<svg version="1.1" id="Layer_1" xmlns="http://www.w3.org/2000/svg" xmlns:xlink="http://www.w3.org/1999/xlink" x="0px" y="0px"
	 viewBox="0 0 506.2 272.5" style="enable-background:new 0 0 506.2 272.5;" xml:space="preserve">
<style type="text/css">
	.st0{fill:#67B9E9;}
	.st1{fill:#FFFFFF;}
	.st2{font-family:'GalanoGrotesqueDEMO-Bold';}
	.st3{font-size:62.7717px;}
	.st4{fill:#9A9E9E;}
	.st5{font-size:42.8954px;}
	.st6{fill:none;stroke:#9A9E9E;stroke-width:2;stroke-miterlimit:10;}
</style>
<ellipse class="st0" cx="105.3" cy="143.4" rx="93.2" ry="105.3"/>
<g>
	<text transform="matrix(0.9316 0 0 1 29.6969 161.9238)" class="st1 st2 st3">QMS</text>
</g>
<g>
	<text transform="matrix(0.9316 0 0 1 212.4739 110.0783)" class="st4 st2 st5">ISO</text>
</g>
<g>
	<text transform="matrix(0.9316 0 0 1 214.791 156.0359)" class="st4 st2 st5">9001   : 2015</text>
</g>
<g>
	<g>
		<g>
			<path class="st4" d="M214.3,200.5v-29.7h4.7v29.7H214.3z M218.7,189.4v-4.7h5.3c1.3,0,2.4-0.4,3.1-1.2c0.7-0.8,1.1-1.9,1.1-3.4
				c0-1.5-0.4-2.7-1.1-3.5s-1.8-1.2-3.1-1.2h-5.2l-0.5-4.7h5.7c2.9,0,5.2,0.8,6.8,2.3c1.6,1.6,2.4,3.8,2.4,6.7
				c0,3.1-0.8,5.4-2.4,7.1s-3.9,2.5-6.8,2.5H218.7z M228.6,200.5l-5.6-14h5l6.2,14H228.6z"/>
			<path class="st4" d="M240.1,200.5v-29.7h4.7v29.7H240.1z M240.1,175.4v-4.7h18.7v4.7H240.1z M240.1,187.9v-4.7h15.2v4.7H240.1z
				 M240.1,200.5v-4.6h18.7v4.6H240.1z"/>
			<path class="st4" d="M276.2,200.9c-4.2,0-7.4-1.3-9.5-3.8c-2.1-2.6-3.2-6.4-3.2-11.5c0-4.8,1.1-8.6,3.3-11.3s5.2-4,9.2-4
				c2,0,3.7,0.3,5.2,1c1.5,0.7,2.6,1.6,3.3,2.8l-3.1,3.6c-0.6-0.9-1.3-1.6-2.3-2.1c-0.9-0.5-1.9-0.7-2.9-0.7c-2.5,0-4.4,0.9-5.7,2.7
				c-1.4,1.8-2,4.3-2,7.6c0,3.6,0.7,6.3,2,8.1c1.4,1.8,3.4,2.7,6.1,2.7c1.2,0,2.3-0.1,3.3-0.4c0.9-0.3,1.7-0.5,2.3-0.7l1.7,4.5
				c-0.6,0.2-1.5,0.4-3,0.8C279.6,200.7,278,200.9,276.2,200.9z M274.5,189.9v-4.6h9.4v4.6H274.5z M279.4,199.6v-14.3h4.6v14.3
				H279.4z"/>
			<path class="st4" d="M291,175.3v-4.6h17.2v4.6H291z M291,200.5v-4.6h17.2v4.6H291z M297.3,200.5v-29.7h4.7v29.7H297.3z"/>
			<path class="st4" d="M324.1,200.9c-1.6,0-3.1-0.1-4.5-0.4c-1.4-0.3-2.7-0.7-3.9-1.2l0.6-5.1c1.4,0.7,2.8,1.2,4.2,1.5
				c1.4,0.3,2.7,0.5,3.9,0.5c1.6,0,2.7-0.3,3.5-0.9s1.2-1.5,1.2-2.6c0-1.5-0.8-2.6-2.4-3.4l-4.3-2.2c-1.9-1-3.4-2.2-4.5-3.6
				c-1-1.4-1.6-3.1-1.6-5c0-2.6,0.8-4.6,2.3-6c1.5-1.4,3.7-2.1,6.5-2.1c1.8,0,3.4,0.3,4.9,0.9c1.5,0.6,2.9,1.6,4.1,2.8l-3.2,3.8
				c-1-0.9-2-1.7-2.9-2.1c-0.9-0.5-1.9-0.7-2.8-0.7c-1.2,0-2.2,0.3-2.8,0.9c-0.7,0.6-1,1.5-1,2.6c0,0.8,0.2,1.5,0.7,2.1
				s1.1,1.1,2,1.6l3.9,2.1c2,1.1,3.5,2.3,4.6,3.7c1.1,1.4,1.6,3,1.6,4.8c0,2.7-0.9,4.7-2.6,6.1C329.9,200.2,327.4,200.9,324.1,200.9
				z"/>
			<path class="st4" d="M340.2,175.4v-4.7h20.7v4.7H340.2z M348.1,200.5v-29.7h4.7v29.7H348.1z"/>
			<path class="st4" d="M367.1,200.5v-29.7h4.7v29.7H367.1z M367.1,175.4v-4.7h18.7v4.7H367.1z M367.1,187.9v-4.7h15.2v4.7H367.1z
				 M367.1,200.5v-4.6h18.7v4.6H367.1z"/>
			<path class="st4" d="M392.1,200.5v-29.7h4.7v29.7H392.1z M396.6,189.4v-4.7h5.3c1.3,0,2.4-0.4,3.1-1.2c0.7-0.8,1.1-1.9,1.1-3.4
				c0-1.5-0.4-2.7-1.1-3.5s-1.8-1.2-3.1-1.2h-5.2l-0.5-4.7h5.7c2.9,0,5.2,0.8,6.8,2.3c1.6,1.6,2.4,3.8,2.4,6.7
				c0,3.1-0.8,5.4-2.4,7.1s-3.9,2.5-6.8,2.5H396.6z M406.5,200.5l-5.6-14h5l6.2,14H406.5z"/>
			<path class="st4" d="M417.9,200.5v-29.7h4.7v29.7H417.9z M417.9,175.4v-4.7h18.7v4.7H417.9z M417.9,187.9v-4.7h15.2v4.7H417.9z
				 M417.9,200.5v-4.6h18.7v4.6H417.9z"/>
			<path class="st4" d="M443,200.5v-29.7h4.7v29.7H443z M447.4,200.5v-4.8h2.5c2.7,0,4.7-0.8,6-2.5c1.3-1.6,2-4,2-7.2
				c0-3.5-0.7-6.1-2-7.9c-1.3-1.8-3.3-2.6-6-2.6h-2.4l-0.5-4.8h2.9c8.6,0,12.9,5.1,12.9,15.3c0,9.6-4.3,14.5-12.9,14.5H447.4z"/>
		</g>
	</g>
</g>
<line class="st6" x1="209.8" y1="58" x2="469.2" y2="58"/>
<line class="st6" x1="209.8" y1="221.4" x2="469.2" y2="221.4"/>
<g>
	<ellipse class="st1" cx="163" cy="110.1" rx="9" ry="11.1"/>
	<g>
		<path class="st0" d="M158,110c2,0.9,3.6,2.3,5.3,3.7c0,0-1.5,0.2-1.5,0.2c1.7-3,3.6-5.8,6.1-8.2c-0.2,0.9-0.5,1.7-0.8,2.5
			c-1.1,2.8-2.7,5.3-4.3,7.8C161,114.1,159.4,112.2,158,110L158,110z"/>
	</g>
</g>
</svg>
