<?xml version="1.0" encoding="utf-8"?>
<!-- Generator: Adobe Illustrator 27.5.0, SVG Export Plug-In . SVG Version: 6.00 Build 0)  -->
<svg version="1.1" id="Layer_1" xmlns="http://www.w3.org/2000/svg" xmlns:xlink="http://www.w3.org/1999/xlink" x="0px" y="0px"
	 viewBox="0 0 1349.7 451.2" style="enable-background:new 0 0 1349.7 451.2;" xml:space="preserve">
<style type="text/css">
	.st0{fill:#C6C6C6;}
	.st1{fill:none;stroke:#C6C6C6;stroke-width:5;stroke-linecap:round;stroke-miterlimit:10;}
	.st2{fill:#00579F;}
	.st3{fill:#FAA61A;}
	.st4{fill:#CC0000;}
	.st5{fill:#00579F;stroke:#00579F;stroke-width:5;stroke-miterlimit:10;}
	.st6{font-family:'Corbel-BoldItalic';}
	.st7{font-size:70.849px;}
	.st8{fill:#FFFFFF;stroke:#FFFFFF;stroke-width:5;stroke-miterlimit:10;}
</style>
<rect width="1349.7" height="451.2"/>
<g>
	<path class="st0" d="M320.9,116.7c0,7.2,0,14.1,0,21.2c-7.3,1.2-14.3,2.5-21.6,3.7c0-31,0-61.8,0-92.8c6.3,0,12.6,0,19,0
		c0.3,2.1,0.6,4.1,0.9,6.7c0.9-0.7,1.5-1.3,2.1-1.8c4.7-4.2,10-6.8,16.4-6.2c9.5,0.8,15.8,5.8,18.5,15.4c3.4,11.8,3.5,23.9-0.1,35.7
		c-4.6,14.9-17.3,21.9-33,18.7C322.5,117,321.8,116.9,320.9,116.7z M320.9,84.3C320.9,84.3,320.9,84.3,320.9,84.3
		c0,4.8,0.1,9.6-0.1,14.3c0,1.7,0.6,2.3,2.1,2.7c5.5,1.5,9.9-0.3,11.9-5.9c1.3-3.5,2.1-7.3,2.2-11c0.1-4.9-0.5-10-1.5-14.8
		c-0.8-3.7-3.6-5.9-6.7-5.5c-2.2,0.3-4.4,1.5-6.3,2.7c-0.9,0.6-1.6,2.1-1.6,3.3C320.8,74.9,320.9,79.6,320.9,84.3z"/>
	<path class="st0" d="M385,89.7c-0.3,6.9,4,11.6,10.8,12.1c6,0.4,11.7-0.7,17.2-3c0.9-0.4,1.8-0.8,3.1-1.3c0.8,4.8,1.7,9.5,2.4,14.2
		c0.1,0.5-0.9,1.5-1.5,1.7c-4.5,1.4-9,3.1-13.7,3.9c-6,1.1-12.2,0.9-18.2-0.4c-10.5-2.2-17.3-8.5-20-18.9c-2.9-11.1-2.8-22.2,1.5-33
		c6.2-15.6,25.1-22.4,39.8-14.4c7.9,4.3,11.6,11.6,13.1,19.9c1,5.7,0.7,11.7,1,17.5c0.1,1.9-1.2,1.8-2.5,1.8c-10,0-20,0-30.1,0
		C387,89.7,386,89.7,385,89.7z M400.4,76.2c-0.1-4-0.4-7.8-2.5-11.1c-2.5-3.8-7.8-4-10.3-0.3c-2.3,3.4-2.7,7.3-2.8,11.5
		C390.1,76.2,395.1,76.2,400.4,76.2z"/>
	<path class="st0" d="M127.8,96.2c5,1.7,9.6,3.5,14.4,4.8c2.5,0.7,5.3,0.7,7.9,0.7c2.2,0,4.2-0.8,4.9-3.3c0.6-2.1-0.2-4-2.7-5.4
		c-2.4-1.3-5-2.2-7.5-3.4c-3.2-1.5-6.5-2.7-9.6-4.5c-7.3-4.1-9.6-10.8-9-18.7c0.7-7.9,4.6-13.7,12.1-16.7c6.4-2.6,13.2-2.8,19.9-1.7
		c4.2,0.7,8.3,2.2,12.4,3.3c1.1,0.3,1.8,0.8,1.5,2.2c-0.8,4.8-1.6,9.7-2.4,14.8c-1.2-0.5-2.1-1-3.1-1.3c-4.3-1.2-8.5-2.6-12.9-3.5
		c-1.6-0.3-3.6,0-5.2,0.6c-2.6,1-3,4.2-0.9,5.9c1.3,1.1,2.9,1.8,4.5,2.5c3.7,1.6,7.6,2.9,11.3,4.7c9.7,4.7,13.5,11.9,12,22.3
		c-1.4,9.7-7.6,16-17.8,17.7c-10.5,1.7-20.6,0.1-30.3-4.1c-1.5-0.7-2.1-1.4-1.8-3.2C126.6,105.2,127.2,100.6,127.8,96.2z"/>
	<path class="st0" d="M219.4,99.5c0,5.4,0,10.5-0.1,15.7c0,0.4-0.7,1.1-1.3,1.3c-6.8,1.8-13.6,2.1-20.4,0
		c-7.3-2.3-11.3-7.7-11.6-16.4c-0.3-7.4-0.1-14.9-0.2-22.3c0-4.1,0-8.3,0-12.6c-3.2,0-6,0-9.2,0c0.8-4.9,1.5-9.5,2.4-14.1
		c0.1-0.6,1.3-1.2,2.1-1.4c4.7-1,4.7-1,5.4-5.7c0.5-3.3,1-6.7,1.6-10c0.1-0.7,0.8-1.6,1.4-1.7c5.6-1,11.2-1.9,17.2-2.8
		c0,6.4,0,12.7,0,19.2c4.7,0,9.2,0,13.9,0c-0.8,5.3-1.5,10.2-2.3,15.2c-0.1,0.5-1.1,1.2-1.8,1.2c-3.1,0.1-6.2,0.1-9.6,0.1
		c0,1-0.1,1.8-0.1,2.6c0,8.1,0,16.3,0,24.4c0,6.7,2.3,8.7,9,7.9C216.8,99.8,217.9,99.7,219.4,99.5z"/>
	<path class="st0" d="M226.7,48.6c5.9,0,11.8,0,17.6,0.1c0.5,0,1.2,0.9,1.3,1.5c0.4,1.9,0.6,3.8,1,6.4c2.6-5.3,6.2-8.1,11.3-8.7
		c0.2,0,0.3,0,0.5-0.1c5-0.5,5.5-0.1,5.5,4.9c0,4.4,0,8.8,0,13.1c0,0.8,0,1.5,0,2.4c-2.8,0-5.3-0.1-7.8,0.1c-1.4,0.1-2.8,0.6-4,1.2
		c-2.5,1.2-3.9,2.8-3.8,6c0.2,12.8,0,25.5,0.1,38.3c0,2.1-0.6,2.8-2.7,2.8c-5.6-0.2-11.3-0.1-16.9,0c-1.6,0-2.4-0.3-2.4-2.2
		c0.1-21.3,0-42.6,0-63.9C226.5,50,226.6,49.4,226.7,48.6z"/>
	<path class="st0" d="M268.8,48.8c7.4,0,14.5,0,21.8,0c0.1,0.9,0.1,1.6,0.1,2.4c0,20.9,0,41.8,0,62.7c0,2-0.4,2.8-2.6,2.7
		c-5.6-0.2-11.3-0.1-16.9,0c-1.9,0-2.6-0.5-2.5-2.5c0.1-15.3,0.1-30.5,0.1-45.8C268.8,61.9,268.8,55.5,268.8,48.8z"/>
	<path class="st0" d="M268.5,30.5c0.1-6.6,5-11.3,11.7-11.1c6.3,0.1,11.1,5.3,10.9,11.7c-0.2,6.1-5.4,11-11.6,10.8
		C273.2,41.8,268.4,36.8,268.5,30.5z"/>
</g>
<polyline class="st1" points="115.1,82.1 70.9,82.1 70.9,419.5 1287.6,419.5 1287.6,82.1 472.7,82.1 444.4,82.1 "/>
<g>
	<path class="st2" d="M641.3,362.9c-0.5,0-0.9-0.1-1.4-0.1c-12.9,0-25.8,0-38.7,0c-0.4,0-0.9,0-1.4,0c-0.5-2.2-0.9-4.4-1.4-6.6
		c-1.3-6.1-2.5-12.2-3.7-18.3c-0.2-0.9-0.6-1.2-1.5-1.2c-18.5,0-37,0-55.6,0c-0.9,0-1.3,0.3-1.6,1.2c-2.9,8-5.8,16-8.7,24
		c-0.2,0.6-0.5,0.9-1.2,0.9c-15.1,0-30.2,0-45.3,0c-0.2,0-0.4,0-0.8,0c0.1-0.4,0.3-0.8,0.4-1.1c22.1-52.7,44.2-105.4,66.3-158
		c2-4.7,4.7-8.8,9.2-11.4c3.6-2.1,7.5-3,11.5-3c12.3-0.1,24.5-0.1,36.8-0.1c0.2,0,0.4,0,0.7,0.1c0.7,3.2,1.3,6.3,2,9.5
		c2.8,13.3,5.6,26.7,8.3,40c2.9,14,5.9,28.1,8.8,42.1c3.2,15.1,6.3,30.2,9.5,45.3c2.5,11.9,5,23.8,7.5,35.7c0.1,0.3,0.2,0.5,0.3,0.8
		C641.3,362.7,641.3,362.8,641.3,362.9z M586.9,301.3c-4.5-21.7-9-43.4-13.4-65c-0.1,0-0.2,0-0.2,0.1c-7.9,21.6-15.9,43.2-23.9,65
		C561.9,301.3,574.3,301.3,586.9,301.3z"/>
	<path class="st2" d="M489.5,193.4c-2,12.4-4,24.8-6.1,37.2c-2.1-0.9-4.1-1.8-6-2.6c-9.6-4-19.7-5.9-30.1-5.8c-5,0-9.9,0.3-14.7,1.8
		c-3.1,1-6,2.4-8.4,4.6c-2.1,1.9-3.6,4.3-4.2,7.2c-0.5,2.7,0.2,5.2,1.7,7.4c1.8,2.7,4.3,4.9,7.1,6.5c5.7,3.3,11.5,6.6,17.3,9.6
		c7.8,4,15.4,8.3,21.9,14.3c6.2,5.6,10.9,12.1,13.3,20.2c1.6,5.4,1.9,11,1.5,16.6c-0.6,7.5-2.5,14.6-6,21.2
		c-5.4,10.2-13.6,17.6-23.6,23.1c-8.6,4.7-17.9,7.5-27.5,9.1c-7.7,1.3-15.4,1.9-23.1,1.7c-13.8-0.4-27.5-2.3-40.7-6.5
		c-2.1-0.7-4.1-1.6-6.2-2.3c-0.9-0.3-1-0.8-0.9-1.6c0.6-3.8,1.3-7.5,1.9-11.3c1.1-6.9,2.2-13.9,3.3-20.8c0.3-1.8,0.6-3.6,0.9-5.5
		c1.1,0.5,2.1,1,3.1,1.4c7.1,3.3,14.4,6.4,22.1,8.2c4.9,1.2,9.9,1.9,15,2.1c3.2,0.1,6.4,0.3,9.5,0.2c6-0.2,11.8-1.3,17.1-4.4
		c4-2.3,7-5.4,8-10.1c0.8-3.7,0-7.1-2.2-10.1c-2.2-3-5.1-5.3-8.2-7.1c-4.5-2.6-9.1-5.2-13.8-7.5c-7.7-3.9-15.2-8.1-21.8-13.7
		c-6.3-5.3-11.4-11.6-14.3-19.4c-1.6-4.4-2.3-9-2.2-13.7c0.4-18.6,9-32.7,24.1-43.1c9.3-6.4,19.6-10,30.6-12.1
		c7.7-1.5,15.5-2.1,23.3-1.9c12.7,0.3,25,2.4,36.9,6.9c0.3,0.1,0.6,0.2,0.9,0.4C489.2,193.2,489.3,193.3,489.5,193.4z"/>
	<path class="st2" d="M133.3,211.7c3.7,2.4,7.4,4.7,11,7.3c16.2,11.4,29.7,25.5,40,42.5c3.7,6.2,7.1,12.6,9.5,19.5
		c1.1,3.2,1.7,6.6,2.4,9.9c1.2,5.5,2.2,11,3.5,16.6c0.2-0.3,0.3-0.6,0.5-1c14.4-38.7,28.8-77.4,43.2-116.2c0.3-0.7,0.5-1.2,1.5-1.2
		c15.1,0,30.1,0,45.2,0c0.3,0,0.6,0,1.1,0.1c-0.2,0.5-0.3,0.9-0.5,1.3c-21.3,52.3-42.6,104.7-63.9,157c-1.9,4.7-3.9,9.4-5.7,14.1
		c-0.3,0.9-0.8,1.1-1.7,1.1c-15,0-30,0-44.9,0c-1.1,0-1.5-0.3-1.7-1.3c-5.8-22.1-11.7-44.1-17.5-66.2c-7.3-27.4-14.6-54.9-21.8-82.3
		c-0.1-0.3-0.1-0.6-0.2-0.9C133.2,211.8,133.3,211.8,133.3,211.7z"/>
	<path class="st2" d="M354.4,189.1c-0.4,2.4-0.7,4.7-1.1,7.1c-1.1,6.9-2.3,13.9-3.4,20.8c-1.2,7.4-2.4,14.7-3.6,22.1
		c-1.2,7.4-2.4,14.7-3.6,22.1c-1.2,7.4-2.4,14.8-3.6,22.2c-1.2,7.4-2.4,14.7-3.6,22.1c-1.2,7.4-2.4,14.7-3.6,22.1
		c-1.1,6.9-2.2,13.8-3.4,20.7c-0.7,4.6-1.5,9.1-2.2,13.7c-0.1,0.6-0.4,0.8-1,0.8c-2.5,0-5,0-7.5,0c-11.7,0-23.4,0-35.1,0
		c-0.4,0-0.9,0-1.4,0c0.4-2.4,0.7-4.7,1.1-6.9c1.2-7.4,2.4-14.9,3.6-22.3c1.2-7.4,2.4-14.7,3.6-22.1c1.3-7.8,2.5-15.7,3.8-23.5
		c1.3-7.8,2.6-15.7,3.8-23.5c1.3-8.3,2.7-16.5,4-24.8c1.3-7.8,2.6-15.7,3.8-23.5c1.3-8.3,2.6-16.5,4-24.8c0.4-2.7-0.3-2.3,2.6-2.3
		c13.7,0,27.3,0,41,0C353.3,189.1,353.8,189.1,354.4,189.1z"/>
	<path class="st3" d="M85.9,194.6V191h76c0,0,18.1,0.5,19,24.3l14.2,69.4C195.1,284.7,177.2,219.6,85.9,194.6z"/>
</g>
<g>
	<circle class="st4" cx="924.9" cy="236.2" r="124.8"/>
	<path class="st3" d="M1057.2,111.4c-37.8,0-71.7,16.8-94.6,43.4l23.8,1.8l9.7,14.5h-45.4c-1.7,2.7-3.2,5.5-4.7,8.3l55.4,3l6.1,14.5
		h-68.8c-1.4,4.1-2.5,8.3-3.5,12.6h75.7l0.6,3.7c2.9,18.7,2.2,37.7-2,56.1l-1.6,6.9h-69.1c1.4,4,2.9,7.9,4.7,11.8h58.5l-6,14
		l-44.8,0.3c2.5,4.1,5.3,8,8.3,11.7h26.5l-12.6,14l-0.9,0c22.2,20.5,51.9,33,84.5,33c68.9,0,124.8-55.9,124.8-124.8
		S1126.2,111.4,1057.2,111.4z"/>
	<text transform="matrix(1 0 0 1 812.3145 267.1576)" class="st5 st6 st7">MasterCard</text>
	<text transform="matrix(1 0 0 1 814.3893 263.5571)" class="st8 st6 st7">MasterCard</text>
</g>
</svg>
