<?xml version="1.0" encoding="utf-8"?>
<!-- Generator: Adobe Illustrator 27.5.0, SVG Export Plug-In . SVG Version: 6.00 Build 0)  -->
<svg version="1.1" id="Layer_1" xmlns="http://www.w3.org/2000/svg" xmlns:xlink="http://www.w3.org/1999/xlink" x="0px" y="0px"
	 viewBox="0 0 1349.7 451.2" style="enable-background:new 0 0 1349.7 451.2;" xml:space="preserve">
<style type="text/css">
	.st0{fill:#C6C6C6;}
	.st1{fill:none;stroke:#C6C6C6;stroke-width:5;stroke-linecap:round;stroke-miterlimit:10;}
</style>
<rect width="1349.7" height="451.2"/>
<image style="overflow:visible;" width="2560" height="829" xlink:href="550DFAF1.png"  transform="matrix(0.2172 0 0 0.2172 125.623 179.3992)">
</image>
<g>
	<path class="st0" d="M320.9,116.7c0,7.2,0,14.1,0,21.2c-7.3,1.2-14.3,2.5-21.6,3.7c0-31,0-61.8,0-92.8c6.3,0,12.6,0,19,0
		c0.3,2.1,0.6,4.1,0.9,6.7c0.9-0.7,1.5-1.3,2.1-1.8c4.7-4.2,10-6.8,16.4-6.2c9.5,0.8,15.8,5.8,18.5,15.4c3.4,11.8,3.5,23.9-0.1,35.7
		c-4.6,14.9-17.3,21.9-33,18.7C322.5,117,321.8,116.9,320.9,116.7z M320.9,84.3C320.9,84.3,320.9,84.3,320.9,84.3
		c0,4.8,0.1,9.6-0.1,14.3c0,1.7,0.6,2.3,2.1,2.7c5.5,1.5,9.9-0.3,11.9-5.9c1.3-3.5,2.1-7.3,2.2-11c0.1-4.9-0.5-10-1.5-14.8
		c-0.8-3.7-3.6-5.9-6.7-5.5c-2.2,0.3-4.4,1.5-6.3,2.7c-0.9,0.6-1.6,2.1-1.6,3.3C320.8,74.9,320.9,79.6,320.9,84.3z"/>
	<path class="st0" d="M385,89.7c-0.3,6.9,4,11.6,10.8,12.1c6,0.4,11.7-0.7,17.2-3c0.9-0.4,1.8-0.8,3.1-1.3c0.8,4.8,1.7,9.5,2.4,14.2
		c0.1,0.5-0.9,1.5-1.5,1.7c-4.5,1.4-9,3.1-13.7,3.9c-6,1.1-12.2,0.9-18.2-0.4c-10.5-2.2-17.3-8.5-20-18.9c-2.9-11.1-2.8-22.2,1.5-33
		c6.2-15.6,25.1-22.4,39.8-14.4c7.9,4.3,11.6,11.6,13.1,19.9c1,5.7,0.7,11.7,1,17.5c0.1,1.9-1.2,1.8-2.5,1.8c-10,0-20,0-30.1,0
		C387,89.7,386,89.7,385,89.7z M400.4,76.2c-0.1-4-0.4-7.8-2.5-11.1c-2.5-3.8-7.8-4-10.3-0.3c-2.3,3.4-2.7,7.3-2.8,11.5
		C390.1,76.2,395.1,76.2,400.4,76.2z"/>
	<path class="st0" d="M127.8,96.2c5,1.7,9.6,3.5,14.4,4.8c2.5,0.7,5.3,0.7,7.9,0.7c2.2,0,4.2-0.8,4.9-3.3c0.6-2.1-0.2-4-2.7-5.4
		c-2.4-1.3-5-2.2-7.5-3.4c-3.2-1.5-6.5-2.7-9.6-4.5c-7.3-4.1-9.6-10.8-9-18.7c0.7-7.9,4.6-13.7,12.1-16.7c6.4-2.6,13.2-2.8,19.9-1.7
		c4.2,0.7,8.3,2.2,12.4,3.3c1.1,0.3,1.8,0.8,1.5,2.2c-0.8,4.8-1.6,9.7-2.4,14.8c-1.2-0.5-2.1-1-3.1-1.3c-4.3-1.2-8.5-2.6-12.9-3.5
		c-1.6-0.3-3.6,0-5.2,0.6c-2.6,1-3,4.2-0.9,5.9c1.3,1.1,2.9,1.8,4.5,2.5c3.7,1.6,7.6,2.9,11.3,4.7c9.7,4.7,13.5,11.9,12,22.3
		c-1.4,9.7-7.6,16-17.8,17.7c-10.5,1.7-20.6,0.1-30.3-4.1c-1.5-0.7-2.1-1.4-1.8-3.2C126.6,105.2,127.2,100.6,127.8,96.2z"/>
	<path class="st0" d="M219.4,99.5c0,5.4,0,10.5-0.1,15.7c0,0.4-0.7,1.1-1.3,1.3c-6.8,1.8-13.6,2.1-20.4,0
		c-7.3-2.3-11.3-7.7-11.6-16.4c-0.3-7.4-0.1-14.9-0.2-22.3c0-4.1,0-8.3,0-12.6c-3.2,0-6,0-9.2,0c0.8-4.9,1.5-9.5,2.4-14.1
		c0.1-0.6,1.3-1.2,2.1-1.4c4.7-1,4.7-1,5.4-5.7c0.5-3.3,1-6.7,1.6-10c0.1-0.7,0.8-1.6,1.4-1.7c5.6-1,11.2-1.9,17.2-2.8
		c0,6.4,0,12.7,0,19.2c4.7,0,9.2,0,13.9,0c-0.8,5.3-1.5,10.2-2.3,15.2c-0.1,0.5-1.1,1.2-1.8,1.2c-3.1,0.1-6.2,0.1-9.6,0.1
		c0,1-0.1,1.8-0.1,2.6c0,8.1,0,16.3,0,24.4c0,6.7,2.3,8.7,9,7.9C216.8,99.8,217.9,99.7,219.4,99.5z"/>
	<path class="st0" d="M226.7,48.6c5.9,0,11.8,0,17.6,0.1c0.5,0,1.2,0.9,1.3,1.5c0.4,1.9,0.6,3.8,1,6.4c2.6-5.3,6.2-8.1,11.3-8.7
		c0.2,0,0.3,0,0.5-0.1c5-0.5,5.5-0.1,5.5,4.9c0,4.4,0,8.8,0,13.1c0,0.8,0,1.5,0,2.4c-2.8,0-5.3-0.1-7.8,0.1c-1.4,0.1-2.8,0.6-4,1.2
		c-2.5,1.2-3.9,2.8-3.8,6c0.2,12.8,0,25.5,0.1,38.3c0,2.1-0.6,2.8-2.7,2.8c-5.6-0.2-11.3-0.1-16.9,0c-1.6,0-2.4-0.3-2.4-2.2
		c0.1-21.3,0-42.6,0-63.9C226.5,50,226.6,49.4,226.7,48.6z"/>
	<path class="st0" d="M268.8,48.8c7.4,0,14.5,0,21.8,0c0.1,0.9,0.1,1.6,0.1,2.4c0,20.9,0,41.8,0,62.7c0,2-0.4,2.8-2.6,2.7
		c-5.6-0.2-11.3-0.1-16.9,0c-1.9,0-2.6-0.5-2.5-2.5c0.1-15.3,0.1-30.5,0.1-45.8C268.8,61.9,268.8,55.5,268.8,48.8z"/>
	<path class="st0" d="M268.5,30.5c0.1-6.6,5-11.3,11.7-11.1c6.3,0.1,11.1,5.3,10.9,11.7c-0.2,6.1-5.4,11-11.6,10.8
		C273.2,41.8,268.4,36.8,268.5,30.5z"/>
</g>
<image style="overflow:visible;" width="2560" height="1536" xlink:href="550DFAF3.png"  transform="matrix(0.1492 0 0 0.1492 791.8618 136.2281)">
</image>
<polyline class="st1" points="115.1,82.1 70.9,82.1 70.9,419.5 1287.6,419.5 1287.6,82.1 472.7,82.1 444.4,82.1 "/>
</svg>
